<svg width="65" height="86" viewBox="0 0 65 86" fill="none" xmlns="http://www.w3.org/2000/svg">
<path d="M32.5471 8.47502C22.5297 4.13454 15.3473 8.47497 8.4895 14.1907C6.34349 15.9635 6.56524 18.1656 8.31531 19.676C10.8978 21.8949 13.7154 23.8223 16.7172 25.4235C17.62 25.9084 19.4651 25.2169 20.6133 24.573C26.5762 21.25 32.4442 17.7681 39.1911 13.849C38.5575 18.3405 37.243 21.0035 34.1863 22.824C28.7619 26.0833 23.2266 29.1838 18.1426 32.9439C11.1519 37.8874 6.35888 45.3744 4.78347 53.8116C2.4078 66.1573 8.74292 76.2215 21.0726 77.9227C30.9237 79.29 40.9966 79.1549 50.9823 79.3457C55.2426 79.4332 59.5268 78.67 64.0405 79.0357C63.6237 79.4145 63.1542 79.7304 62.6468 79.9737C50.7685 83.6464 38.7001 86.2062 26.117 85.8167C3.08091 85.1171 -3.85602 71.1338 2.02771 50.592C3.94408 43.9143 8.11733 37.8727 11.4195 31.2586C11.7996 31.7594 11.7363 31.6322 11.6333 31.5527C8.19653 28.7545 1.78219 27.4428 2.83541 22.0132C4.27664 14.636 6.53356 6.86122 13.7081 2.48099C19.7343 -1.17583 28.6589 1.55887 32.5471 8.47502Z" fill="#8B5E3C"/>
</svg>
