<svg width="93" height="67" viewBox="0 0 93 67" fill="none" xmlns="http://www.w3.org/2000/svg">
<path d="M9.65421 8.45656C8.81416 10.3233 7.8995 12.1901 7.15279 14.0569C4.68865 20.3853 6.14475 25.2575 12.4171 27.871C17.4948 29.9804 23.1884 32.0526 28.5087 31.8285C44.7169 31.4533 60.8877 30.1006 76.933 27.7777C89.1977 25.7802 90.0003 20.6279 80.8344 11.63C79.8637 10.6779 78.837 9.76324 77.5302 8.5125L81.2638 0C84.602 1.60565 87.4438 4.08439 89.4879 7.1736C91.532 10.2628 92.7025 13.8475 92.8752 17.5478C93.3047 20.837 92.6185 24.1752 90.9263 27.0283C89.2341 29.8814 86.6337 32.0843 83.5413 33.2847C74.8421 36.8689 65.6016 40.3037 56.361 41.1624C43.1959 42.1828 29.9673 42.0641 16.8227 40.8077C9.59826 40.229 2.52317 36.5328 0.488381 28.5804C-1.73308 19.9745 4.10986 13.9262 8.23544 7.52317L9.65421 8.45656Z" fill="#8B5E3C"/>
<path d="M46.714 54.9404C47.8534 53.439 50.0949 53.3345 51.4388 54.656C53.5521 56.7343 55.3576 58.4291 56.0047 60.4647C56.4714 61.9768 53.1858 66.3824 51.3937 66.4944C49.2252 66.6364 46.9853 65.6895 44.3532 64.5672C42.4908 63.773 41.8108 61.4012 43.0348 59.7884L46.714 54.9404Z" fill="#8B5E3C"/>
</svg>
