<svg width="113" height="78" viewBox="0 0 113 78" fill="none" xmlns="http://www.w3.org/2000/svg">
<path d="M55.8099 25.2584C57.8099 28.0284 59.5599 30.5484 61.3099 33.0984C63.1899 35.8184 64.9499 36.4083 67.7099 33.7883C73.0199 28.7883 78.4698 23.7884 84.2299 19.3184C90.7399 14.2084 97.8799 10.9084 106.42 14.6884C112.67 17.4484 114.47 21.7484 110.69 27.4484C103.26 38.6384 91.8999 43.4484 79.1199 45.3084C74.8999 45.9084 70.5199 45.3984 66.5099 45.3984C64.5099 51.2884 62.7299 56.7783 60.6999 62.1783C59.9893 63.8761 58.9724 65.4287 57.6999 66.7584C47.3499 78.2384 21.0999 81.1784 8.50988 72.3884C1.92988 67.7984 -1.01015 61.5284 1.03985 53.8084C2.47985 48.3384 5.1599 43.1983 7.2799 37.9083L9.0899 38.5483C8.6599 39.9783 8.26985 41.4184 7.78985 42.8184C3.34985 55.5884 9.39987 66.0984 22.6899 68.1984C34.0199 69.9884 44.6099 67.3084 54.2499 61.3884C61.7799 56.7684 63.0199 50.1084 58.3599 42.5884C57.5699 41.3184 56.7099 40.0884 55.8099 38.8884C51.3599 32.9684 51.3499 32.8384 55.8099 25.2584ZM70.9299 36.3384C79.6799 38.4684 101.28 31.6684 105.74 25.3384C95.4899 16.4284 84.3399 21.3384 70.9299 36.3384Z" fill="#8B5E3C"/>
<path d="M70.4099 12.8685L61.6299 6.86848C64.3299 4.21848 66.3399 1.03841 69.1199 0.0484079C70.5199 -0.451592 75.1199 3.04844 75.1199 4.70844C75.0699 7.33844 72.3099 9.84848 70.4099 12.8685Z" fill="#8B5E3C"/>
</svg>
