<svg width="32" height="66" viewBox="0 0 32 66" fill="none" xmlns="http://www.w3.org/2000/svg">
<path d="M1.40782 54.5999C9.01782 58.7899 16.5179 57.89 23.9879 55.7C29.0779 54.21 29.6878 52.6999 27.0478 48.2399C22.7478 41.0799 17.1578 35.3799 8.29784 33.1099C8.74784 30.9699 9.07785 29.11 9.55785 27.19C10.2378 24.57 11.8179 23.93 14.4579 24.71C27.5979 28.6 35.6379 46.82 29.3179 58.83C28.5179 60.34 27.0978 62.21 25.6378 62.56C19.7278 63.99 13.6379 65.8199 7.71788 65.7699C-0.222117 65.7099 -1.46218 62.8899 1.40782 54.5999Z" fill="#8B5E3C"/>
<path d="M13.0679 0C15.7079 2.86 18.6779 4.77005 19.3579 7.30005C19.7479 8.77005 16.4879 12.86 14.8379 12.88C12.0379 12.88 9.21789 10.66 5.83789 9.10999L13.0679 0Z" fill="#8B5E3C"/>
</svg>
