<svg width="99" height="80" viewBox="0 0 99 80" fill="none" xmlns="http://www.w3.org/2000/svg">
<path d="M11.88 42.5484C10.98 44.3884 10.11 46.2484 9.17999 48.0784C5.57999 55.1284 6.86 60.4884 13.94 63.9684C18.2813 66.1491 22.9731 67.5472 27.8 68.0984C47.8 70.0984 67.08 66.4784 85.9 59.8884C86.5836 59.616 87.2513 59.3055 87.9 58.9584C94.19 55.9084 94.73 53.1084 89.35 46.4684C88.8219 47.6249 88.1499 48.7101 87.35 49.6984C83.63 53.1384 77.72 54.0784 73.78 52.0084C71.476 50.8512 69.5931 49.0005 68.3965 46.7167C67.1999 44.433 66.7499 41.8314 67.11 39.2784C68.3297 32.4588 71.6761 26.2 76.67 21.3984C78.94 19.1184 81.41 19.1384 83.67 21.2784C91.08 28.4784 96.33 37.0584 97.88 47.4084C98.99 54.9084 93.56 65.4084 87.05 68.0884C66.05 76.8984 44.23 81.7584 21.36 77.8684C16.26 76.9984 11.16 74.5384 6.72003 71.7584C0.89003 68.0984 -0.279968 62.3784 2.16003 55.9784C4.46003 49.9884 8.21 44.2784 11.88 42.5484ZM81.28 42.6484C82.28 42.0984 84.37 41.4884 85.43 40.0884C85.9 39.4584 84.43 37.0884 83.54 35.7684C82.6126 34.1493 81.3678 32.7344 79.88 31.6084C78.73 30.8484 76.41 30.3484 75.54 30.9884C73.54 32.4984 70.54 34.3784 72.13 37.5484C73.72 40.7184 76.69 42.3984 81.3 42.6484H81.28Z" fill="#8B5E3C"/>
<path d="M52.1494 9.15854C53.2194 7.68854 54.0194 6.44854 54.9594 5.32854C60.3594 -1.05146 58.2894 -1.21146 65.7294 3.77854C68.5794 5.67854 68.7294 7.46854 66.6194 10.0985C61.9494 15.9985 61.9994 16.0985 55.8594 11.8085C54.7494 11.0385 53.6494 10.2785 52.1494 9.15854Z" fill="#8B5E3C"/>
</svg>
