<svg width="62" height="93" viewBox="0 0 62 93" fill="none" xmlns="http://www.w3.org/2000/svg">
<path d="M11.8996 41.6857C9.38506 39.8336 7.00603 38.2225 4.7851 36.4157C2.69969 34.7217 2.23293 32.5309 3.33963 30.0013C4.79264 26.6737 6.03487 23.2256 7.63845 19.9808C9.96478 15.2679 13.7065 12.2113 19.1496 12.2264C21.5243 12.1592 23.8736 12.7291 25.9535 13.8769C28.0334 15.0248 29.768 16.7087 30.977 18.7536C22.2665 15.426 15.5284 19.1451 9.09146 24.2344C6.50916 26.2822 6.44891 28.5106 8.78277 30.5057C10.9416 32.3918 13.351 33.9703 15.9424 35.196C17.0793 35.708 19.0743 35.1208 20.3391 34.4432C25.9178 31.3941 31.3685 28.1192 37.8204 24.37C37.0676 28.5408 36.1265 31.0102 33.3033 32.7417C27.3482 36.4307 21.1296 39.8486 15.7467 44.2604C8.82794 49.9219 4.5442 57.4203 4.65713 66.7482C4.77005 76.46 9.45282 83.0551 18.9614 84.749C27.4084 86.2547 36.119 86.4956 44.7242 86.729C50.1673 86.8796 55.6331 85.9762 61.287 86.1945C60.6389 86.6287 59.9476 86.9945 59.2241 87.2861C45.8007 91.216 32.3095 94.5211 18.1558 91.8033C6.11013 89.5447 0.185148 82.2646 0.411005 69.9704C0.591691 60.4543 4.1 52.1504 9.67867 44.6068C10.4391 43.628 11.1769 42.6418 11.8996 41.6857Z" fill="#8B5E3C"/>
<path d="M0.644531 6.77571C2.57184 4.216 3.89689 2.46937 5.74138 0C7.66117 1.56594 9.95738 2.74784 11.0114 4.62246C11.4254 5.37531 9.16687 8.87613 7.93971 8.98153C5.73384 9.17727 3.42257 7.72431 0.644531 6.77571Z" fill="#8B5E3C"/>
</svg>
