<svg width="35" height="59" viewBox="0 0 35 59" fill="none" xmlns="http://www.w3.org/2000/svg">
<path d="M10.0914 22.6783C8.35135 21.2483 6.77135 19.8383 5.09135 18.5883C0.951355 15.5183 0.421379 11.0883 0.741379 6.52834C0.991379 3.02834 2.50144 2.46833 5.43144 4.41833C9.78144 7.30834 14.1114 10.2383 18.4314 13.1183C24.0214 9.06833 27.3414 2.73834 33.5414 0.0483398L34.7714 1.04834C32.8614 4.11834 31.0314 7.23833 29.0314 10.2583C24.7714 16.6983 24.7414 16.6783 28.9314 22.9783C32.8042 28.5605 34.896 35.1844 34.9314 41.9783C34.9314 48.2683 32.1513 53.0883 26.2013 54.9783C21.1179 56.6059 15.8565 57.6132 10.5314 57.9783C5.53142 58.3483 2.71134 55.5383 1.70134 50.6183C0.42134 44.3483 2.03134 38.4583 4.57134 32.8283C6.00134 29.5183 8.04135 26.3583 10.0914 22.6783ZM15.3313 25.3683C12.8413 29.7383 10.2614 33.8483 8.11137 38.1683C6.64137 41.1083 7.75145 43.4883 10.9415 43.5283C16.1366 43.5605 21.3242 43.1255 26.4415 42.2283C29.1515 41.7783 29.8515 39.5183 28.1915 37.0383C24.9049 32.1714 20.4935 28.1684 15.3313 25.3683Z" fill="#8B5E3C"/>
</svg>
