<svg width="82" height="90" viewBox="0 0 82 90" fill="none" xmlns="http://www.w3.org/2000/svg">
<path d="M2.18827 15.79C3.18827 6.09998 9.83824 0.02 18.7882 0C31.3882 0 43.9883 0 56.9683 0C55.9683 4.18 54.9683 7.16995 49.8983 8.19995C42.1183 9.76995 34.5583 12.47 26.9683 14.91C20.0783 17.12 15.5083 22.07 12.1483 28.29C7.03829 37.76 4.48825 47.78 5.91825 58.58C7.37825 69.66 14.0283 76.11 24.5783 78.8C38.3683 82.3 52.3483 81.58 66.3283 80.47C71.3283 80.07 76.4183 79.61 81.7483 80.32C80.947 80.9609 80.0705 81.5015 79.1383 81.93C61.0283 87.67 42.6483 91.24 23.5783 88.02C8.06828 85.4 0.408293 76.3599 0.0282927 60.6199C-0.501707 38.8799 6.36825 24.35 24.5483 9.04999C15.5483 6.31999 8.04827 7.84998 2.18827 15.79Z" fill="#8B5E3C"/>
</svg>
