<svg width="47" height="44" viewBox="0 0 47 44" fill="none" xmlns="http://www.w3.org/2000/svg">
<path d="M14.0906 33.7383C10.1906 31.8283 6.67056 30.2583 3.28056 28.4183C0.540563 26.9283 -0.129432 24.8283 1.66057 21.8983C6.08723 14.4834 11.8196 7.93107 18.5806 2.55832C19.8491 1.56365 21.3422 0.895177 22.929 0.611447C24.5158 0.327717 26.1481 0.437393 27.6827 0.930844C29.2174 1.42429 30.6076 2.28647 31.7317 3.44189C32.8558 4.59731 33.6794 6.01071 34.1305 7.55832C34.4592 8.7379 34.3082 9.99958 33.7106 11.0683C32.1327 13.1991 30.4437 15.2453 28.6506 17.1983C26.0106 15.0483 23.7905 13.0583 21.3805 11.3183C18.6805 9.38832 10.3805 13.2583 10.3805 16.5183C10.4776 17.1134 10.7079 17.6788 11.0542 18.1723C11.4005 18.6659 11.8539 19.0747 12.3805 19.3683C18.8105 22.8883 25.3805 25.6583 33.0405 23.5583C37.3305 22.3783 41.7006 21.5583 46.9606 20.2883C44.7506 24.7383 43.2006 27.9883 38.5206 28.8983C27.7106 30.9783 17.5205 34.6183 10.3705 43.8983L9.44054 43.2883C9.89979 41.6646 10.4609 40.0714 11.1205 38.5183C12.0241 36.8728 13.0155 35.2772 14.0906 33.7383Z" fill="#8B5E3C"/>
</svg>
