<svg width="82" height="90" viewBox="0 0 82 90" fill="none" xmlns="http://www.w3.org/2000/svg">
<path d="M81.8827 80.59C81.0424 81.2343 80.1294 81.7781 79.1626 82.2101C61.3726 87.7601 43.3126 91.37 24.5826 88.39C7.81261 85.73 -0.167341 76.39 0.0026588 59.3C0.202659 38.8801 7.10256 21.57 24.9026 9.40002C15.4426 6.28002 8.00259 8.58 1.80259 17.06C2.80259 7.56 9.51259 0.420029 17.0526 0.280029C29.8426 0.0300293 42.6326 0.06 55.4126 0C55.9512 0.0939659 56.4734 0.265773 56.9626 0.51001C56.1326 4.98001 54.5426 7.91001 49.2126 8.51001C43.8826 9.11001 38.6126 11.23 33.3126 12.61C15.7826 17.17 8.93265 30.3 6.12265 46.61C5.65147 49.5853 5.49719 52.6022 5.66257 55.61C6.20257 68.3 12.9426 76.32 25.3326 79.27C39.1526 82.55 53.1126 81.7801 67.0826 80.6801C71.9426 80.2901 76.7827 79.87 81.6327 79.47L81.8827 80.59Z" fill="#8B5E3C"/>
<path d="M40.0825 54.6101L31.7725 48.9001L38.2025 40.6001C40.7425 42.8201 44.5425 44.6002 44.8025 46.8102C45.0625 49.0202 41.8925 51.8001 40.0825 54.6101Z" fill="#8B5E3C"/>
</svg>
