<svg width="65" height="85" viewBox="0 0 65 85" fill="none" xmlns="http://www.w3.org/2000/svg">
<path d="M57.4627 0.321916C57.7103 3.07881 57.2729 6.15763 58.4037 8.48531C59.5345 10.813 62.1593 12.1089 64.5778 14.2632C64.2281 15.2315 63.7297 16.1394 63.1003 16.9541C60.2526 19.9999 60.3847 23.5574 60.7231 27.3461C61.8869 40.2804 62.8444 53.2395 63.8597 66.1903C63.9257 67.221 63.9257 68.2549 63.8597 69.2856C63.4222 77.9443 61.3834 80.7012 52.8404 81.5431C38.6927 82.9463 24.4955 83.8543 10.2983 84.721C7.60739 84.8943 4.8175 84.0359 2.11838 83.4663C0.550082 83.1444 -0.0689715 82.0219 0.632634 80.4205C0.715176 80.2389 0.78943 80.0408 0.855463 79.851C2.81171 74.1969 2.77047 74.5271 8.63094 75.336C13.5249 76.0165 18.4752 76.1991 23.4059 75.8807C33.7897 75.2039 44.1405 74.1309 54.4995 73.0743C60.038 72.513 60.3929 72.0921 59.7739 66.471C58.3954 53.8503 56.7446 41.2957 55.2918 28.7081C54.714 23.8381 54.9287 18.803 51.7508 14.5521C51.5761 14.2999 51.4564 14.0138 51.3996 13.7123C51.3427 13.4108 51.3499 13.1008 51.4206 12.8022C53.0137 8.51007 54.7223 4.25916 56.3731 0L57.4627 0.321916Z" fill="#8B5E3C"/>
<path d="M17.3974 56.9869C19.4775 56.5825 21.574 56.2358 23.6376 55.7653C25.3631 55.4432 27.0524 54.951 28.6809 54.2961C29.5641 53.8999 30.1419 52.8351 30.86 52.0757C30.032 51.5777 29.1652 51.1471 28.2682 50.788C27.2709 50.5368 26.2552 50.3656 25.2306 50.2763C19.981 49.5086 18.6273 47.4946 20.2286 42.4843C21.8794 37.3502 24.5373 32.8847 29.0771 29.8472C30.1006 29.1621 31.7019 29.3354 33.0309 29.1125C32.9648 30.458 33.2207 31.9355 32.7502 33.1323C32.0568 34.907 31.4625 36.8302 28.4002 36.1369C27.2199 35.8727 24.7849 37.9775 24.1081 39.5211C23.1754 41.6507 25.3792 42.3935 27.1539 42.7567C29.2669 43.2024 31.413 43.4748 33.5261 43.9206C36.0023 44.4653 37.0837 45.9593 36.6875 48.6337C36.5012 50.194 36.0042 51.7012 35.2258 53.0662C34.4474 54.4313 33.4034 55.6265 32.1554 56.5814C30.9074 57.5362 29.4808 58.2313 27.9596 58.6256C26.4385 59.0199 24.8538 59.1055 23.2991 58.8771C21.3181 58.613 19.3537 58.126 17.3892 57.7463L17.3974 56.9869Z" fill="#8B5E3C"/>
</svg>
