<svg width="82" height="111" viewBox="0 0 82 111" fill="none" xmlns="http://www.w3.org/2000/svg">
<path d="M81.8272 102.37C75.7072 104.02 69.6372 105.94 63.4372 107.28C49.0272 110.4 34.4972 112.06 19.9272 108.28C7.70721 105.15 0.687206 97.07 0.107206 84.49C-0.892794 63.04 4.9672 44.35 23.4172 31.29C23.6301 31.057 23.8025 30.7899 23.9272 30.5C16.4372 27.26 12.0772 28.5 2.07724 36.63C1.82724 30.63 8.74719 21.95 14.6572 21.3C17.8091 21.0848 20.9701 21.0347 24.1272 21.15C33.2472 21.09 42.3706 21.04 51.4972 21H57.1172C55.9472 25.77 54.2472 28.57 49.1172 29.53C41.6472 30.92 34.3972 33.53 27.1172 35.83C21.1927 37.7996 16.229 41.9312 13.2172 47.4C7.13719 57.72 4.00724 68.7401 6.01724 80.8201C7.60724 90.3201 13.2572 96.38 22.2972 99.14C36.6072 103.51 51.2972 102.57 65.8972 101.5C71.0972 101.12 76.2872 100.77 81.4872 100.4L81.8272 102.37Z" fill="#8B5E3C"/>
<path d="M32.1572 7.2204C36.1572 -0.269596 37.5672 -1.2696 41.1572 1.2204C43.3472 2.7604 47.0672 3.81043 43.8372 7.93043C39.8772 13.0304 39.3672 13.1104 32.1572 7.2204Z" fill="#8B5E3C"/>
</svg>
