<svg width="54" height="99" viewBox="0 0 54 99" fill="none" xmlns="http://www.w3.org/2000/svg">
<path d="M7.85796 64.4839C7.53685 65.3744 7.26677 66.2792 6.89457 67.1482C1.50137 79.773 7.36894 89.3601 21.3081 90.4517C30.1386 91.1698 38.2759 88.7784 45.8731 84.4409C48.7266 82.8107 50.1571 80.5917 49.763 77.1446C48.3034 64.2182 46.997 51.2917 45.552 38.3653C44.8733 32.3042 44.0924 26.2575 43.1583 20.2324C42.8445 18.2575 41.6986 16.4191 41.2097 14.4442C40.8156 12.7997 40.3705 10.9038 40.823 9.37416C41.7571 6.23591 43.2823 3.27001 44.5667 0.2323L45.4425 0.325655C45.6563 1.62975 45.7734 2.94741 45.7928 4.26822C45.5958 7.8589 46.9021 10.3149 50.6387 11.3347C51.1715 11.4855 51.9085 13.0869 51.6969 13.367C46.1139 20.5484 49.3761 28.3832 50.0475 35.9308C51.1714 48.7064 52.8719 61.4318 53.9155 74.2146C54.6453 83.3278 50.4344 89.8915 41.903 93.7048C33.3717 97.5181 24.5557 99.4858 15.3311 97.3601C7.73388 95.6151 1.61087 91.7156 0.173166 83.3996C-0.188376 81.1917 0.00712714 78.9303 0.74243 76.8143C2.1976 73.1403 3.84928 69.5446 5.69048 66.0422C6.13758 65.338 6.66924 64.6894 7.27408 64.1105L7.85796 64.4839Z" fill="#8B5E3C"/>
</svg>
