<svg width="68" height="51" viewBox="0 0 68 51" fill="none" xmlns="http://www.w3.org/2000/svg">
<path d="M44.4198 32.2786C34.2798 46.6386 19.4198 51.9686 0.589844 50.0786C14.4598 42.8286 29.7498 39.7886 40.8298 28.6486C37.7498 24.9086 38.4698 21.1886 40.8298 18.0886C44.7615 12.6679 49.1257 7.57455 53.8798 2.85858C58.1198 -1.14142 61.0698 -0.261413 63.4698 4.98859C67.3198 13.4086 70.4698 21.9886 65.1298 31.0686C63.7898 33.3786 62.3798 34.8486 59.5798 34.4486C54.7298 33.7486 49.8798 33.0686 44.4198 32.2786ZM61.5398 23.5186C60.7202 21.0657 59.7689 18.6589 58.6898 16.3086C55.8098 10.8386 51.1299 10.6986 47.4099 15.7186C45.7799 17.9086 46.0098 19.6486 48.2298 21.0286C50.154 22.345 52.3302 23.2486 54.621 23.6823C56.9118 24.116 59.2675 24.0705 61.5398 23.5486V23.5186Z" fill="#8B5E3C"/>
</svg>
