<svg width="69" height="65" viewBox="0 0 69 65" fill="none" xmlns="http://www.w3.org/2000/svg">
<path d="M10.8812 18.3781C9.94123 20.7881 9.10122 23.2281 8.06123 25.5881C0.271225 43.2781 10.2512 52.6381 25.5212 53.5881C36.962 54.2375 48.3266 51.3615 58.0812 45.3481C63.2412 42.2881 64.9912 38.8481 63.2012 33.0281C61.0282 26.0307 58.2442 19.2379 54.8812 12.7281C53.3412 9.72813 52.8812 7.72814 54.8312 5.09814C55.9312 3.61814 56.8312 2.00814 58.0412 0.0981445C63.1912 5.72814 65.7212 12.1481 67.3612 18.9781C69.8912 29.4281 68.0713 39.4481 63.2712 48.7681C61.3937 52.1218 58.6249 54.8906 55.2712 56.7681C44.2428 63.159 31.3499 65.5568 18.7612 63.5581C5.16124 61.4381 -1.2388 52.6981 0.851204 39.1281C1.94844 31.3732 5.06224 24.0422 9.88123 17.8681L10.8812 18.3781Z" fill="#8B5E3C"/>
<path d="M22.4307 9.97826C23.6807 8.29826 24.7507 6.80828 25.8807 5.34828C29.8807 0.168275 29.9907 0.0782623 35.0707 4.03826C36.4607 5.11826 38.4907 7.74827 38.0707 8.32827C36.1744 11.0322 33.9991 13.5292 31.5807 15.7783C31.3807 15.9783 30.2307 15.4083 29.6407 15.0183C27.3207 13.4283 25.0007 11.7783 22.4307 9.97826Z" fill="#8B5E3C"/>
</svg>
