<svg width="82" height="93" viewBox="0 0 82 93" fill="none" xmlns="http://www.w3.org/2000/svg">
<path d="M11.0598 45.7981C10.4998 47.2481 10.0598 48.7381 9.36981 50.1481C0.57981 69.0881 13.1598 80.5681 29.0398 81.6481C45.4498 82.7681 60.2798 77.2981 74.0898 68.9181C78.6598 66.1381 79.2098 63.9181 77.7098 58.7081C76.9198 55.9581 75.7798 53.2981 74.7098 50.6281C74.3505 49.9071 73.936 49.2151 73.4698 48.5581C72.8498 49.3081 72.3698 49.8581 71.9198 50.4281C68.4298 54.8881 63.5698 56.5381 59.0798 54.7881C54.1498 52.8681 50.5098 47.1781 51.3398 41.8881C52.4664 34.9126 55.8701 28.5062 61.0198 23.6681C63.1598 21.5781 65.3198 21.6681 67.6898 23.4481C80.4398 33.1681 85.9198 56.6281 78.6298 70.8581C77.7315 72.7854 76.4643 74.518 74.8998 75.9581C59.2098 88.9381 41.3398 95.2781 20.9998 91.2781C10.9998 89.2781 2.88982 83.6581 0.819822 72.6281C0.273329 69.3196 0.527062 65.9284 1.55981 62.7381C3.09981 57.8881 5.47984 53.3081 7.64984 48.7381C8.36936 47.4915 9.2282 46.3307 10.2098 45.2781L11.0598 45.7981ZM64.0598 45.8581C66.5698 44.5781 68.6898 44.0381 69.7998 42.6681C70.2998 42.0581 68.9498 39.6681 68.0698 38.3081C66.9095 36.6762 65.6186 35.1411 64.2098 33.7181C62.8798 32.2781 61.2798 31.5381 59.7398 33.2781C58.0598 35.2081 54.4998 36.8981 56.6498 39.9381C58.3698 42.3881 61.4298 43.8681 64.0298 45.8581H64.0598Z" fill="#8B5E3C"/>
<path d="M36.2002 10.6885C38.3802 7.94849 40.2702 5.32849 42.4502 2.98849C42.8888 2.66923 43.3997 2.46375 43.9373 2.39046C44.4748 2.31716 45.0221 2.37833 45.5302 2.56849C48.0002 3.98849 50.2602 5.77849 52.9602 7.67849C54.5302 5.74849 56.2102 3.80849 57.7402 1.74849C58.9302 0.158489 60.1302 -0.161511 61.8402 0.988489C70.2402 6.60849 70.4702 6.17849 63.0502 13.7885C62.3902 14.4685 60.2902 14.4885 59.2902 13.9785C56.9937 12.6237 54.7859 11.124 52.6802 9.48849C51.0164 11.5443 49.2121 13.4823 47.2802 15.2885C46.7317 15.6475 46.106 15.8717 45.4543 15.943C44.8027 16.0142 44.1434 15.9305 43.5302 15.6985C40.9885 14.1771 38.5408 12.5041 36.2002 10.6885Z" fill="#8B5E3C"/>
</svg>
