<svg width="71" height="47" viewBox="0 0 71 47" fill="none" xmlns="http://www.w3.org/2000/svg">
<path d="M68.5195 13.8214C59.6795 7.02145 51.7095 10.0814 44.8095 16.1614C37.9095 22.2414 31.8695 29.5014 25.1895 35.9414C21.6738 39.423 17.7757 42.4959 13.5695 45.1015C9.56951 47.4915 5.51948 46.0315 3.34948 42.0015C1.56098 38.8468 0.441091 35.3578 0.0594983 31.7515C-0.720502 20.7515 6.24952 7.66148 16.2095 2.10148C14.5795 4.40148 12.9895 6.74151 11.2895 9.01151C7.39948 14.2015 4.76951 19.8715 5.06951 26.4915C5.25951 30.6215 6.34948 35.2415 10.7895 35.9515C13.5695 36.3915 17.5795 34.5314 19.7895 32.3914C26.1495 26.0914 31.4195 18.6715 37.9595 12.5915C42.8495 8.03147 48.9595 4.72142 54.6995 1.17142C56.2795 0.171425 58.5295 0.0615125 60.4795 0.0115125C70.6195 -0.248487 73.2495 3.88145 68.5195 13.8214Z" fill="#8B5E3C"/>
</svg>
