<svg width="82" height="56" viewBox="0 0 82 56" fill="none" xmlns="http://www.w3.org/2000/svg">
<path d="M9.14225 25.6087C8.26225 27.4687 7.32223 29.3087 6.49223 31.1887C3.92223 37.0187 5.49224 41.9587 11.6922 44.0087C17.5209 45.922 23.5696 47.0846 29.6922 47.4687C42.8622 48.2587 55.9822 47.3187 68.6922 43.2687C77.4122 40.4887 78.5923 36.8687 71.9123 30.9187C67.2323 26.7487 68.1322 23.6287 71.4822 19.4487C77.4822 22.4487 80.3722 27.6687 81.1322 33.9987C81.8522 39.9987 79.2023 45.1087 73.8923 47.6887C67.9823 50.5687 61.6823 53.5387 55.2923 54.2987C43.4152 55.5442 31.4719 56.0452 19.5323 55.7987C15.4423 55.7987 11.0323 53.9987 7.33226 51.9987C-0.247744 47.8987 -1.75773 42.6287 1.91227 34.9087C3.57227 31.4187 5.85227 28.2187 7.91227 24.9087L9.14225 25.6087Z" fill="#8B5E3C"/>
<path d="M40.8223 17.4885C34.4423 24.2685 34.4423 24.2685 27.8223 18.5685C30.7423 10.3385 32.4423 9.89853 41.1223 15.4885L46.8523 9.01855C49.2823 11.5086 54.8523 11.1386 53.3923 16.4586C52.8123 18.5286 49.8722 21.1485 47.8622 21.2885C45.6822 21.4385 43.3323 18.9985 40.8223 17.4885Z" fill="#8B5E3C"/>
<path d="M33.2021 5.73845C35.5021 3.73845 37.5521 0.818437 40.2021 0.0384372C41.6121 -0.371563 45.1121 2.58846 45.7421 4.62846C46.1921 6.04846 43.4822 10.0285 41.9722 10.1385C39.2222 10.3485 36.3122 8.54848 33.4722 7.57848L33.2021 5.73845Z" fill="#8B5E3C"/>
</svg>
