<svg width="113" height="65" viewBox="0 0 113 65" fill="none" xmlns="http://www.w3.org/2000/svg">
<path d="M65.6401 33.5582C64.3101 37.8482 62.9801 42.6282 61.3401 47.2982C59.4101 52.7782 55.4601 56.4183 50.2701 58.8983C39.2701 64.1583 27.83 66.5382 15.88 63.2082C2.23004 59.3982 -2.97996 48.2983 2.44004 35.2583C3.94004 31.6583 5.87001 28.2582 7.60001 24.7182L8.86002 25.2282C8.21002 27.3082 7.54003 29.3782 6.93003 31.4682C3.68003 42.5482 8.05005 51.2982 19.26 54.3082C32.62 57.8882 45.07 54.7082 56.11 46.7182C61.59 42.7182 62.26 37.0882 58.98 31.1682C57.9993 29.428 56.9001 27.7574 55.69 26.1682C51.28 20.3282 51.2601 20.3482 55.2801 12.1682C57.2801 14.9582 59.19 17.3482 60.87 19.8682C62.87 22.8682 64.76 23.4283 67.62 20.6483C72.14 16.2383 76.86 11.9982 81.74 7.98823C89.06 1.98823 96.84 -2.69178 106.74 2.10822C112.16 4.72822 113.68 8.69816 110.68 13.9182C105.35 23.1682 96.47 27.9182 86.68 30.5982C80.12 32.4282 73.0001 32.5882 65.6401 33.5582ZM69.5201 24.4982C83.3801 23.2982 95.34 20.8082 106.18 13.1182C95.27 3.33823 83.9101 8.53824 69.5201 24.4982Z" fill="#8B5E3C"/>
</svg>
