<svg width="109" height="63" viewBox="0 0 109 63" fill="none" xmlns="http://www.w3.org/2000/svg">
<path d="M8.63864 22.96C8.14864 24.49 7.63867 26.0299 7.16867 27.5499C2.83867 40.3299 8.4186 50.3599 21.7286 52.6899C33.5486 54.7699 44.5286 51.69 54.7286 45.61C58.2186 43.5 60.0386 40.2699 58.8486 36.2999C57.1586 30.6199 55.6787 24.6399 52.6687 19.6499C49.6587 14.6599 50.9687 11.5199 54.6687 7.2699C58.7787 14.9399 62.7986 21.6299 73.0186 20.8999C83.0186 20.1799 86.7386 13.5499 90.4886 5.8999C91.2586 9.4299 90.9586 13.98 93.0886 16.2C95.2186 18.42 99.8786 18.5899 103.869 19.7799C105.089 12.7099 99.6486 6.28 105.869 0C106.699 2.25 108.069 4.26 108.049 6.25C108.138 11.2097 107.695 16.1645 106.729 21.0299C105.199 27.6399 103.299 29.03 96.7286 26.88C89.9186 24.62 84.3487 24.8 77.9187 28.33C74.1987 30.33 68.9186 29.5999 63.8486 30.1399C63.4286 32.9799 63.0187 36.3999 62.4187 39.7799C60.852 48.5332 55.9119 54.5332 47.5986 57.7799C36.6686 62.0199 25.5287 64.6599 14.0687 60.3099C1.06869 55.3099 -3.05138 45.53 2.24862 32.7C3.69862 29.17 5.65864 25.8399 7.38864 22.4199L8.63864 22.96Z" fill="#8B5E3C"/>
</svg>
