<svg width="109" height="90" viewBox="0 0 109 90" fill="none" xmlns="http://www.w3.org/2000/svg">
<path d="M54.8586 34.8832C58.7886 42.8832 63.1786 49.0933 73.3886 48.3733C83.3886 47.6533 86.7887 40.6632 89.8287 32.6332L91.1586 33.3832C91.3049 34.7115 91.3783 36.0468 91.3786 37.3832C91.0686 43.1132 97.0287 48.2333 102.479 46.4633C103.389 46.1633 104.069 43.2232 103.829 41.6632C102.479 33.1432 102.389 32.9232 105.549 27.2832C106.399 29.1232 107.449 30.4732 107.629 31.9332C108.049 35.3732 108.709 38.9933 108.119 42.3333C105.749 55.6033 105.219 57.7233 90.4186 52.7233C87.5886 51.7233 85.9487 52.2433 83.3387 53.2533C77.3387 55.5733 70.8886 56.8332 63.6886 58.7832C63.4586 60.3432 63.0786 63.4532 62.5586 66.5332C61.1786 74.7932 57.1386 81.0532 49.1586 84.4432C37.3586 89.4432 25.3586 92.4433 12.8786 87.2133C1.08858 82.2833 -2.68142 73.2132 1.87858 61.2932C3.32858 57.4832 5.30862 53.8832 7.04862 50.1832L8.45866 50.7032C8.06866 52.1232 7.74858 53.5733 7.25858 54.9633C2.89858 67.2633 7.98865 77.1633 20.6986 79.9633C33.2586 82.7233 44.8986 79.5133 55.2686 72.3633C57.3586 70.9333 59.1787 66.8232 58.7087 64.4332C57.5287 58.5032 55.7087 52.4333 52.7087 47.2133C49.8187 42.2933 50.6086 39.0632 54.8586 34.8832Z" fill="#8B5E3C"/>
<path d="M81.8483 15.7633L87.5182 9.17334C89.9382 11.9633 95.9982 11.4933 93.9382 17.0333C91.8782 22.5733 89.2582 22.4933 81.8082 18.0333C74.0982 24.0333 74.0982 24.0333 68.1382 18.6733C72.2982 10.2633 72.6883 10.1933 81.8483 15.7633Z" fill="#8B5E3C"/>
<path d="M74.3086 6.7831C78.8486 -0.886896 79.3885 -1.13688 83.4885 1.55312C86.1785 3.32312 87.8186 5.02314 85.2086 8.19314C81.7186 12.4431 80.8286 12.4031 74.3086 6.7831Z" fill="#8B5E3C"/>
</svg>
