<svg width="82" height="47" viewBox="0 0 82 47" fill="none" xmlns="http://www.w3.org/2000/svg">
<path d="M9.15426 15.777C8.23426 17.657 7.27428 19.517 6.42428 21.437C4.12428 26.667 5.42427 31.117 10.5443 33.577C13.8247 35.1867 17.3431 36.2571 20.9643 36.7469C36.6143 38.6669 52.1643 38.037 67.4643 33.827L67.9442 33.687C77.3942 30.9069 78.3342 27.3869 71.5042 20.3569C67.3242 16.0469 67.3442 14.717 71.9442 9.62695C77.6342 13.217 80.9443 18.237 81.1843 25.067C81.4243 31.897 77.5543 36.2469 71.8743 39.1769C59.6843 45.4469 46.3643 46.687 33.0643 46.587C25.1316 46.6086 17.2415 45.4251 9.66427 43.077C-0.245733 39.847 -2.33573 32.977 2.48427 23.757C4.05427 20.757 6.04426 17.9169 7.84426 14.9969L9.15426 15.777Z" fill="#8B5E3C"/>
<path d="M41.6544 7.68733C34.6544 14.0673 34.6544 14.0673 28.2344 8.44734C32.3644 -0.092659 32.8344 -0.202642 41.2344 5.27736C43.6044 3.43736 45.7344 1.12733 48.3744 0.0573261C49.4444 -0.382674 51.6843 1.81733 53.2643 2.99733C55.9543 4.99733 54.1244 6.72735 52.7844 8.39735C49.4744 12.5774 49.4544 12.5673 41.6544 7.68733Z" fill="#8B5E3C"/>
</svg>
