<svg width="81" height="87" viewBox="0 0 81 87" fill="none" xmlns="http://www.w3.org/2000/svg">
<path d="M0.769897 75.8883C9.5499 76.5583 18.3299 77.3483 27.1099 77.8883C34.3199 78.3183 42.5699 70.4582 41.9899 63.3182C40.8699 49.7282 39.2899 36.1683 37.8599 22.5983C37.8376 21.4268 37.5249 20.2792 36.9498 19.2583C31.4998 11.8983 36.9498 6.3383 40.4498 0.258301C40.7498 2.9583 40.3699 6.0183 41.5499 8.2583C42.7299 10.4983 45.4399 11.9383 47.8799 14.0883C47.8199 13.7383 48.0399 14.1783 47.8799 14.3583C43.3599 20.3583 44.5498 27.0783 45.0798 33.8783C45.8498 43.6383 46.0798 53.4483 46.5698 64.1083L56.9899 55.6283C62.6199 51.0683 68.8798 50.4283 75.0898 53.6283C79.1798 55.7683 80.7699 58.9483 79.7699 63.5183C77.7699 72.5183 71.9599 77.7082 63.5299 80.8082C43.7699 88.0482 24.2699 89.2082 5.02991 79.1982C3.46991 78.3882 1.9399 77.5282 0.399902 76.6882C0.539902 76.4682 0.649897 76.1783 0.769897 75.8883ZM37.8398 75.7183L38.6799 77.4182C40.1602 77.4186 41.6381 77.3016 43.0999 77.0682C51.8199 74.9382 60.5298 72.7882 69.1898 70.4482C71.1237 69.946 72.899 68.9621 74.3499 67.5883C74.7317 66.9997 74.957 66.3233 75.0043 65.6233C75.0515 64.9233 74.9192 64.2228 74.6199 63.5883C72.0099 60.3683 63.4199 58.3982 59.8099 60.6582C52.2899 65.3382 45.1398 70.6583 37.8398 75.7183Z" fill="#8B5E3C"/>
</svg>
