<svg width="58" height="65" viewBox="0 0 58 65" fill="none" xmlns="http://www.w3.org/2000/svg">
<path d="M0.20105 58.9781C1.63105 59.0781 3.07104 59.1481 4.50104 59.2781C24.301 61.0781 39.861 53.9381 50.951 37.2781C53.121 34.0181 53.481 30.9081 50.631 27.3881C47.961 31.2181 44.6311 33.8181 39.7811 33.5581C34.9311 33.2981 31.5911 30.5581 31.0911 25.5581C30.0911 15.9481 34.761 8.49808 40.681 1.64808C42.601 -0.571918 44.5411 0.648086 46.1411 2.30809C55.6111 11.8781 60.241 23.1481 55.731 36.3081C53.471 42.8981 49.5311 49.0281 45.6511 54.9081C40.9211 62.0781 33.911 65.2681 25.131 64.9081C16.5594 64.6194 8.08912 62.9618 0.0410156 59.9981L0.20105 58.9781ZM41.881 23.8581L46.741 19.5981L39.6511 11.7981C38.1911 14.1181 36.2811 16.2881 35.4011 18.7981C34.7011 20.8881 38.011 23.0881 41.881 23.8581Z" fill="#8B5E3C"/>
</svg>
