<svg width="83" height="73" viewBox="0 0 83 73" fill="none" xmlns="http://www.w3.org/2000/svg">
<path d="M12.5201 22.7681C11.1301 26.0181 9.61006 29.2281 8.35006 32.5381C3.81006 44.4181 9.35007 56.5381 21.4801 60.4281C25.6549 61.6948 30.0098 62.2658 34.3701 62.1181C45.5701 61.8681 55.8901 58.1181 65.7701 53.0581C67.0795 52.2213 68.3051 51.2602 69.4301 50.1881L69.3101 48.9081L62.7701 47.7881C58.5101 47.0481 54.0601 46.7881 50.0401 45.4081C45.4201 43.7881 43.6001 40.3481 44.4001 35.5981C46.5701 22.7281 51.9001 11.5381 62.8401 3.72812C64.7723 2.35662 66.9226 1.32201 69.2001 0.668119C71.3683 0.00637111 73.6906 0.0496976 75.8327 0.791867C77.9747 1.53404 79.826 2.93674 81.1201 4.79809C83.1201 7.79809 82.5301 12.4181 79.2501 17.0481C78.1501 15.8481 77.0701 14.7481 76.0901 13.5681C73.5801 10.5681 70.4901 9.87812 67.0201 11.4781C60.0813 14.5168 54.4713 19.9563 51.2201 26.7981C49.7401 29.9081 50.4101 32.7281 53.4701 34.0981C56.8959 35.5196 60.453 36.6014 64.0901 37.3281C66.8701 37.9481 69.8401 37.7381 72.6001 38.4181C76.9301 39.4681 78.3701 42.0981 77.8501 46.5181C77.6264 48.8328 76.9414 51.0792 75.8353 53.1248C74.7292 55.1704 73.2246 56.9736 71.4101 58.4281C56.5701 70.1781 39.5201 75.0781 20.9101 72.0381C6.71012 69.7281 -1.08993 56.9281 1.36007 42.3081C2.71014 34.8318 6.16141 27.8946 11.3101 22.3081L12.5201 22.7681Z" fill="#8B5E3C"/>
</svg>
