<svg width="81" height="87" viewBox="0 0 81 87" fill="none" xmlns="http://www.w3.org/2000/svg">
<path d="M0.77002 76.0183C8.33002 76.6883 15.99 76.7982 23.42 78.1882C31.9 79.7682 36.34 74.5283 41.02 69.3883C41.863 68.1609 42.2194 66.6638 42.02 65.1882C40.7 50.7682 39.26 36.3683 37.8 21.9583C37.7234 20.9551 37.4079 19.9848 36.88 19.1283C31.76 11.7383 37.09 6.27824 40.15 0.198242C41.08 5.77824 39.99 12.1983 48.01 13.1183C47.87 14.3383 48.0099 15.1183 47.6899 15.5883C43.2499 20.9283 44.56 27.0183 45.04 33.1483C45.82 43.2283 46.18 53.3483 46.77 64.2283C49.67 61.8783 52.28 59.7483 54.91 57.6383C56.6284 56.0746 58.4712 54.6532 60.42 53.3883C65.42 50.5783 73.57 51.7582 77.72 55.7782C82.18 60.1082 80.22 65.0282 77.8 69.0582C75.59 72.7382 72.48 76.7683 68.8 78.5183C45.91 89.2683 23 90.6883 0.77002 76.0183ZM37.98 75.7982L38.8199 77.6882C50.7599 76.2782 62.47 73.8883 73.47 68.5983C73.91 68.3883 74.61 68.0483 74.63 67.7383C74.69 66.3583 75.08 64.1883 74.39 63.7383C69.93 60.6483 64.85 57.9082 59.62 61.0582C52.16 65.5282 45.17 70.8382 38 75.7982H37.98Z" fill="#8B5E3C"/>
<path d="M63.0698 29.4585L70.1799 20.6885C72.6799 23.0885 75.9298 24.8685 76.5898 27.3385C77.0198 28.9185 73.7899 33.0785 71.8899 33.3385C69.3799 33.5585 66.5598 31.1185 63.0698 29.4585Z" fill="#8B5E3C"/>
</svg>
