<svg width="49" height="70" viewBox="0 0 49 70" fill="none" xmlns="http://www.w3.org/2000/svg">
<path d="M39.41 22.0947C47.41 26.8447 50.94 36.9047 46.65 46.6947C43.6025 53.3017 39.5175 59.3785 34.55 64.6947C31.96 67.5347 27.13 69.0947 23.09 69.6947C15.1124 70.7048 7.02099 69.1349 0 65.2147C3.46 65.2147 6.33997 65.2147 9.21997 65.2147C22.79 65.5347 33.22 59.7247 41.14 48.9647C45.52 43.0247 45.33 40.0648 40.33 34.5048C35.33 28.9448 35.28 28.8347 39.41 22.0947Z" fill="#8B5E3C"/>
<path d="M38.6002 12.9246L29.6602 6.77472C32.4002 4.15472 34.4002 1.11463 37.1702 0.0546317C38.5102 -0.465368 43.1201 2.86465 43.0101 4.19465C42.7901 6.98465 40.4302 9.60463 38.6002 12.9246Z" fill="#8B5E3C"/>
</svg>
