<svg width="284" height="284" viewBox="0 0 284 284" fill="none" xmlns="http://www.w3.org/2000/svg">
<path d="M79.5905 59.1869C102.737 24.4376 141.309 44.708 157.704 59.1869C111.413 45.2878 95.977 55.319 94.0482 62.0756C91.158 67.8719 90.5953 82.3526 111.418 93.931C132.25 105.51 160.615 91.0364 172.188 82.3496L174.628 86.3151L177.96 91.0159C146.134 114.182 74.3898 139.677 76.7042 183.693C78.5086 218.006 163.908 219.263 223.406 215.864C229.701 215.504 231.237 223.245 225.138 224.845C175.461 237.875 111.758 248.247 94.0482 241.6C24.6293 206.852 66.0812 144.123 94.0482 117.094C66.2854 100.881 72.8416 71.7395 79.5905 59.1869Z" fill="#38383A"/>
</svg>
