<svg width="284" height="284" viewBox="0 0 284 284" fill="none" xmlns="http://www.w3.org/2000/svg">
<path d="M152.989 77.4675C177.135 48.8491 214.268 69.2043 229.821 82.9679C232.564 86.6384 230.921 91.7768 202.383 82.9679C166.709 71.9563 147.503 96.7442 174.945 118.768C196.897 136.378 240.789 124.276 260 116.018C250.85 132.536 222.132 163.921 180.427 157.318C128.29 149.059 128.29 182.088 78.8997 212.369C29.5052 242.651 24 193.084 24 179.319C24.0057 171.051 30.1526 148.888 34.9894 140.793C40.517 131.541 45.2359 126.334 53.3523 122.205C57.5839 123.224 40.4723 155.5 40.4723 165.568C43.1027 181.402 45.8824 207.802 81.6411 187.593C115.015 157.312 138.351 142.628 155.731 140.793C144.754 131.616 128.841 106.098 152.989 77.4675ZM92.1342 117.345C93.3568 114.669 96.4562 113.419 99.1768 114.524L117.185 121.85C119.641 122.847 121.028 125.459 120.494 128.061L118.06 140.011C117.431 143.06 114.389 144.989 111.372 144.254L89.4637 138.896C86.1175 138.075 84.3435 134.405 85.7769 131.262L92.1342 117.345Z" fill="#38383A"/>
</svg>
