<svg width="10" height="6" viewBox="0 0 10 6" fill="none" xmlns="http://www.w3.org/2000/svg">
<path d="M5.98242 4.3877C6.3219 4.47949 7.00392 4.2612 7.0293 4.88477C7.04501 5.31829 6.84192 5.78051 6.29004 5.69824C5.84933 5.69824 5.45935 5.69764 5.53516 5.17285C5.57957 4.85637 5.59234 4.28661 5.98242 4.3877ZM7.74316 0.0849609C8.36937 0.395798 8.87445 0.906371 9.17773 1.53516C9.60284 2.33597 9.24726 3.41839 8.42871 3.66211C6.52519 4.22865 4.59002 4.5073 2.64844 3.90918C1.17957 3.45657 0.722556 2.6843 0.865234 1.12402C1.22049 1.01964 1.04938 1.40818 1.20801 1.4873C1.69654 2.37664 2.51781 2.67797 3.45996 2.8584C5.22082 3.19075 6.89976 2.89973 8.59082 2.38379C8.47977 1.85518 7.99382 1.68038 7.78125 1.30371C7.67277 1.12031 7.61212 0.912078 7.60547 0.699219C7.59889 0.486338 7.64625 0.274738 7.74316 0.0849609Z" fill="#38383A"/>
</svg>
