<svg width="6" height="11" viewBox="0 0 6 11" fill="none" xmlns="http://www.w3.org/2000/svg">
<path d="M3.54785 9.99609C3.61129 9.6543 3.58278 9.16413 4.15039 9.28418C4.46436 9.35062 4.91161 9.34412 4.97852 9.75195C4.83895 10.2836 4.71233 10.7023 4.11621 10.6455C3.68789 10.6139 3.48122 10.4234 3.54785 9.99609ZM0.631836 0.911133C0.590658 0.015635 0.82548 -0.0822425 1.9707 0.538086C1.15214 0.493772 1.08595 0.854474 1.11133 1.30078C1.19065 2.78213 1.22538 4.26373 1.33008 5.73242C1.38086 6.43497 1.55207 7.11183 2.35449 7.39355C3.26385 7.69159 4.25032 7.65358 5.13379 7.28613C5.49231 7.15319 5.24455 6.86243 5.02246 6.72949C4.52134 6.41297 4.49615 5.98177 4.62305 5.49121C4.65167 5.37104 4.72825 5.24187 4.88672 5.28613C5.11225 5.36228 5.3142 5.49566 5.47168 5.67383C5.6292 5.85208 5.73673 6.06889 5.78418 6.30176C6.21567 7.65018 5.68579 8.4891 4.29297 8.70117C3.95439 8.77755 3.60875 8.82033 3.26172 8.82812C1.80879 8.76475 1.09515 8.09615 0.949219 6.48828C0.777918 4.63355 0.701631 2.77219 0.631836 0.911133Z" fill="#38383A"/>
</svg>
