<svg width="6" height="12" viewBox="0 0 6 12" fill="none" xmlns="http://www.w3.org/2000/svg">
<path d="M3.87891 9.71387C4.15508 9.95404 4.80806 9.7139 4.80176 10.3467C4.80176 10.7202 4.69366 11.1225 4.16699 11.1162C3.72928 11.1162 3.30787 11.0018 3.33008 10.4639C3.34911 10.1695 3.33321 9.74235 3.87891 9.71387ZM0.855469 0.645508C1.36938 0.405069 1.79442 0.667641 2.31152 0.987305C0.753771 1.19621 0.588977 1.33829 0.804688 2.79102C0.991878 4.04131 0.773071 5.32386 1.12207 6.54883C1.48716 7.89679 3.1647 8.70396 4.4209 8.10938C4.81432 7.92262 4.85245 7.68153 4.59863 7.36816C4.24663 6.92507 4.28204 6.43727 4.39941 5.92773C4.77844 6.2167 5.06187 6.61302 5.21289 7.06445C5.36382 7.51577 5.37511 8.00193 5.24609 8.45996C4.99231 9.36511 4.25013 9.40971 3.50781 9.42871C1.72476 9.46036 0.943515 8.85601 0.673828 7.07715C0.441086 5.32713 0.33592 3.5621 0.357422 1.79688C0.357444 1.36334 0.38924 0.876495 0.855469 0.645508Z" fill="#38383A"/>
</svg>
