<svg width="284" height="284" viewBox="0 0 284 284" fill="none" xmlns="http://www.w3.org/2000/svg">
<path d="M257.279 173.406L280.36 181.088C282.999 181.966 284.515 184.725 283.84 187.42L280.955 198.988C280.266 201.737 277.533 203.449 274.75 202.897L246.952 197.364C243.416 196.658 241.585 192.717 243.334 189.569L250.959 175.875C252.201 173.642 254.851 172.604 257.279 173.406ZM77.4169 84.3178C77.7917 78.4161 82.3427 81.6603 82.7521 84.3178C86.3021 107.35 97.117 153.943 122.663 156.078C154.586 158.734 167.915 150.762 167.932 148.099C167.932 145.442 157.279 137.466 135.989 140.121C120.931 142 132.497 129.272 143.385 121.65C150.261 116.837 158.77 115.468 167.13 114.677C178.861 113.568 192.647 113.188 197.195 116.209C205.181 121.524 213.178 129.502 213.178 134.817C213.16 140.133 199.855 148.099 197.195 148.099C194.631 148.14 229.171 164.041 242.464 156.078C255.772 148.106 262.71 134.812 231.816 126.839C231.816 117.098 232.874 97.6157 237.129 97.6C242.452 97.6 271.726 126.833 271.727 140.121C271.727 153.409 250.442 198.591 181.235 158.73C165.262 175.561 122.662 195.397 80.073 140.121C79.1856 153.409 65.1667 176.79 37.4832 174.664C2.88893 171.997 -7.76148 110.895 5.54085 97.6C5.54064 110.888 8.21953 148.088 40.1623 153.403C63.1296 157.215 75.477 114.858 77.4169 84.3178Z" fill="#38383A"/>
</svg>
