<svg width="284" height="284" viewBox="0 0 284 284" fill="none" xmlns="http://www.w3.org/2000/svg">
<path d="M60.8587 50.0061C69.5245 50.3388 80.0499 52.3702 84.2249 53.3414C85.0551 54.3147 85.54 56.2481 80.8837 56.2486C75.0256 56.237 47.539 46.2838 54.1988 82.4584V133.661C54.9027 146.991 62.7403 173.633 88.4015 173.64H118.405V139.903C119.517 125.196 128.003 100.529 153.014 119.508C178.024 138.493 163.436 168.212 153.014 180.694L140.913 188.604C136.809 190.305 130.625 195.224 138.611 201.36C143.539 206.627 155.218 216.289 162.474 212.876C166.013 189.19 185.644 144.054 235.868 152.952V173.64C213.862 169.924 169.277 176.731 166.921 233.654C155.055 235.556 129.848 230.525 123.846 195.253H88.4015C75.4734 195.108 49.1122 184.509 47.1099 143.239C45.1094 101.968 44.8966 75.5505 45.0329 67.4942C46.6986 61.5327 52.1993 49.6934 60.8587 50.0061ZM234.469 186.193C237.767 186.265 239.935 189.671 238.6 192.683L230.969 209.901C230.074 211.917 227.863 213.024 225.709 212.538L204.623 207.76C201.943 207.152 200.389 204.361 201.282 201.766L205.752 188.785C206.405 186.885 208.211 185.631 210.222 185.675L234.469 186.193ZM128.587 169.877C178.983 167.955 137.827 123.017 128.587 134.54C121.213 143.763 125.509 161.943 128.587 169.877Z" fill="#38383A"/>
</svg>
