<svg width="284" height="284" viewBox="0 0 284 284" fill="none" xmlns="http://www.w3.org/2000/svg">
<path d="M123.574 56C158.827 56 161.997 106.869 159.034 134.574C158.867 136.165 159.312 137.79 160.486 138.876C165.093 143.13 172.45 145.272 174.886 128.249C178.358 104.045 218.486 60.7735 252.551 65.1736C261.695 65.1913 260.221 84.5632 249.932 87.8511C223.376 94.79 172.533 121.407 178.017 172.806C178.191 174.448 177.782 176.206 176.423 177.137C171.333 180.594 161.392 179.946 150.753 156.596C148.169 149.096 142.809 128.824 141.93 107.708C140.826 81.3092 110.775 67.7493 88.7975 94.5176C87.6967 97.8216 87.9245 104.355 97.5914 104.062C109.674 103.711 110.403 148.43 85.4963 146.596C65.5684 145.129 63.762 130.085 65.3473 122.751C55.0925 118.839 33.3328 117.117 28.3506 141.468C33.7207 158.829 43.514 199.625 39.7058 223.973C38.2467 228.251 33.9244 232.776 28.3506 216.652C21.3814 196.482 -1.70179 115.067 41.8971 98.5631C45.3173 96.7295 54.7985 94.1624 65.3473 98.5631C69.62 84.3848 87.243 56.007 123.574 56ZM261.316 117.395C265.465 117.494 268.174 121.769 266.496 125.571L256.876 147.337C255.75 149.885 252.989 151.282 250.274 150.67L223.693 144.659C220.313 143.894 218.332 140.363 219.453 137.081L225.088 120.671C225.911 118.272 228.19 116.658 230.723 116.711L261.316 117.395Z" fill="#38383A"/>
</svg>
