<svg width="9" height="12" viewBox="0 0 9 12" fill="none" xmlns="http://www.w3.org/2000/svg">
<path d="M5.42449 0.918901C5.52768 0.935987 5.62575 0.976464 5.7116 1.03609C6.11432 1.27982 5.8761 1.64686 5.78093 1.96968C5.68579 2.29225 5.5276 2.33356 5.23601 2.13765C4.94416 1.94143 4.62951 2.10555 4.43914 2.39351C3.96987 3.15657 3.31081 3.78556 2.52605 4.21968C3.75707 4.38111 4.7471 4.0997 5.73699 4.15035C6.01619 4.1503 6.46675 3.93236 6.52703 4.38179C6.55735 4.58539 6.51396 4.79358 6.40398 4.96773C6.294 5.14183 6.12455 5.27041 5.92742 5.33101C5.09934 5.62855 4.27089 5.93935 3.45867 6.28121C2.07242 6.86045 1.36813 7.71811 1.46648 8.64546C1.58078 9.69937 2.31724 10.2812 3.90984 10.6484C4.80492 10.8501 5.73131 10.8709 6.63445 10.7089C7.08305 10.6054 7.55137 10.6194 7.99285 10.75C6.37173 11.6995 4.8202 12.1748 3.1198 11.8964C1.72698 11.6717 0.96185 10.6294 0.984059 9.20503C1.00628 7.895 1.11141 7.62274 2.47234 5.53707C2.09796 5.53707 1.76739 5.53716 1.44695 5.48335C1.12659 5.42982 0.729855 5.69195 0.618825 5.28707C0.570644 5.08455 0.589716 4.87166 0.672535 4.68062C0.755445 4.48952 0.89871 4.33013 1.07976 4.22652C1.57779 3.89105 2.07295 3.54862 2.58367 3.23531C3.39885 2.73846 4.17012 2.21028 4.66179 1.33687C4.70284 1.24099 4.76416 1.15494 4.84246 1.08589C4.92089 1.0168 5.01435 0.966254 5.11492 0.937456C5.21548 0.908671 5.32128 0.901827 5.42449 0.918901ZM4.5407 7.373C4.75028 7.6164 5.35265 7.4648 5.2575 8.03121C5.19404 8.3952 5.05416 8.7879 4.53386 8.73726C4.11518 8.69292 3.76609 8.55317 3.84539 8.04683C3.88666 7.69553 4.0585 7.3825 4.5407 7.373ZM7.26922 4.90035C7.31995 4.65339 7.37436 4.22638 7.82781 4.33394C8.14511 4.40673 8.65855 4.50564 8.56023 5.00875C8.49039 5.35049 8.31586 5.75849 7.81804 5.70796C7.3929 5.65732 7.23749 5.38147 7.26922 4.90035Z" fill="#38383A"/>
</svg>
