<svg width="284" height="284" viewBox="0 0 284 284" fill="none" xmlns="http://www.w3.org/2000/svg">
<path d="M279.581 176.19C282.798 176.26 284.91 179.565 283.612 182.505L276.167 199.316C275.296 201.283 273.157 202.361 271.057 201.89L250.486 197.248C247.869 196.656 246.335 193.93 247.204 191.395L251.565 178.72C252.203 176.866 253.964 175.619 255.926 175.662L279.581 176.19ZM243.394 96.4918C253.056 91.7081 270.529 89.9284 263.173 121.004C260.883 112.448 247.745 102.844 213.528 132.886L274.912 148.311C276.588 153.128 277.726 162.743 268.877 162.746C260.02 162.746 231.635 164.665 218.55 165.628C199.091 175.259 175.687 188.743 159.985 165.628L151.44 156.98H148.136C141.916 163.866 103.481 177.334 77.1713 176.19C44.2796 174.759 10.7357 174.119 0.7665 149.323C-1.23068 140.685 -0.552255 121.274 18.1883 112.753C10.5438 123.245 1.43978 145.695 26.1613 151.546C53.6981 158.964 132.194 166.016 148.136 134.867H151.44C154.107 142.184 164.441 157.247 184.499 159.027C200.947 159.577 209.445 159.242 207.427 146.771C206.906 143.884 175.195 148.146 173.355 145.208C171.11 144.829 170.328 136.806 173.355 132.886C176.381 128.967 179.381 128.929 188.882 126.461C198.387 123.991 243.394 96.4918 243.394 96.4918ZM93.2716 93.8733L116.552 98.0761C119.714 98.6496 121.286 102.242 119.547 104.941L109.57 120.388C108.403 122.193 106.108 122.939 104.108 122.148L84.5056 114.337C84.0392 114.15 83.6332 113.873 83.2722 113.567L78.4047 122.786C77.4846 124.512 75.5519 125.441 73.6252 125.097L50.3228 120.916C47.1609 120.341 45.6059 116.728 47.3494 114.029L57.3267 98.5822C58.4961 96.7732 60.7865 96.0469 62.7889 96.8438L82.3692 104.633C82.8271 104.816 83.246 105.083 83.6026 105.381L88.4921 96.2057C89.4114 94.4733 91.34 93.5253 93.2716 93.8733ZM209.233 81.5291C212.45 81.599 214.562 84.9047 213.264 87.8443L205.819 104.655C204.948 106.622 202.809 107.7 200.71 107.23L180.138 102.587C177.521 101.996 175.987 99.2691 176.856 96.7338L181.217 84.0596C181.855 82.2053 183.616 80.9587 185.578 81.001L209.233 81.5291Z" fill="#38383A"/>
</svg>
