<svg width="14" height="12" viewBox="0 0 14 12" fill="none" xmlns="http://www.w3.org/2000/svg">
<path d="M12.3107 9.89746C12.5994 9.92908 13.0467 9.94193 13.2052 10.2646C13.0974 10.7743 12.9541 11.1356 12.4972 11.1641C12.1198 11.1861 11.8127 11.0623 11.8634 10.5781C11.892 10.2616 11.9554 9.85948 12.3107 9.89746ZM12.4015 0.706055C12.5663 1.42112 12.2018 1.76963 11.7482 2.05762C10.8377 2.62734 9.92045 3.18442 9.00993 3.75098C8.55018 4.03891 8.35638 4.34581 8.72087 4.89941C9.2761 5.74138 9.56238 6.73222 10.1525 7.56152C10.695 8.32431 11.3707 8.73547 12.3732 8.51074C12.3728 8.0014 11.7388 7.69708 11.8879 7.14648C11.9258 6.99159 11.9198 6.83075 12.0812 6.74219C12.243 6.65356 12.3449 6.83695 12.4465 6.94141C12.6998 7.20433 12.8845 7.52588 12.9836 7.87695C13.0825 8.22798 13.0926 8.598 13.0138 8.9541C12.8457 9.85935 11.4498 10.0687 10.59 9.31543C10.3026 9.02207 10.0335 8.71109 9.78435 8.38477C9.54959 8.91966 9.37171 9.45485 8.70232 9.5498C8.42343 9.61163 8.13191 9.58553 7.86833 9.47559C7.60493 9.36568 7.38238 9.17683 7.23064 8.93555C7.08792 8.72356 6.91309 8.61894 6.72282 8.91602C6.42372 9.36556 4.95199 9.54899 3.85564 9.62305C3.03149 9.6787 2.12266 9.75861 1.46208 9.2627C1.01456 8.9267 0.796384 8.40807 0.829269 7.75684L0.828292 7.75781C0.74899 7.12478 0.853122 6.21053 1.72868 5.7832C1.41782 6.43496 1.00812 6.84625 1.03337 7.41895L1.08025 7.54199C1.2011 7.82059 1.41509 8.05062 1.68767 8.19141C3.04883 8.97945 5.93908 8.5965 7.08122 7.45703C7.47144 7.79889 7.69351 8.34379 8.29314 8.44824C8.47757 8.49186 8.6705 8.48902 8.85368 8.44043C9.03677 8.3918 9.20464 8.29816 9.34294 8.16895C9.59982 7.91257 9.31775 7.6341 9.21306 7.39355C8.9561 6.81756 8.68312 6.25111 8.38493 5.69727C8.10797 5.21696 8.02176 4.65019 8.14275 4.10938C8.26378 3.56874 8.58302 3.09256 9.03825 2.77539C10.1074 2.0601 11.2309 1.42133 12.4015 0.706055ZM4.26384 5.32031C4.53022 4.75767 4.86948 4.92802 5.2531 5.14941C5.63682 5.37088 5.59616 5.66868 5.46306 6.0293C5.24103 6.64635 4.8823 6.28357 4.55876 6.18848C4.47003 6.15888 4.38257 6.12396 4.29802 6.08398C4.01284 6.08423 3.98075 6.35563 3.82536 6.48535C3.70334 6.58881 3.54687 6.64274 3.38689 6.63574C3.22682 6.6287 3.07552 6.56112 2.96306 6.44727C2.64579 6.20354 2.7756 5.90274 2.88982 5.5957C3.02941 5.2163 3.23893 5.23517 3.54021 5.40918C3.78768 5.55162 4.09886 5.6685 4.26384 5.32031Z" fill="#38383A"/>
</svg>
