<svg width="15" height="10" viewBox="0 0 15 10" fill="none" xmlns="http://www.w3.org/2000/svg">
<path d="M5.04785 8.03418C5.4286 8.29335 6.02826 8.13525 5.95215 8.77441C5.90457 9.17316 5.77422 9.52395 5.27637 9.50195C4.9115 9.50195 4.55617 9.41984 4.60059 8.93555C4.59799 8.76062 4.63708 8.58747 4.71484 8.43066C4.79263 8.27389 4.9069 8.13822 5.04785 8.03418ZM13.2969 7.7959C13.592 8.0712 14.1753 7.9895 14.1055 8.60352C14.061 9.0051 13.8773 9.29615 13.4717 9.23633C13.1545 9.20152 12.7167 9.08749 12.8369 8.60352C12.8655 8.32813 12.8908 7.92884 13.2969 7.7959ZM10.4639 0.857422C10.8573 1.99693 10.8668 2.99771 11.0381 3.95996C11.1186 4.5207 11.2688 5.06912 11.4854 5.59277C11.5982 5.87433 11.7947 6.11483 12.0488 6.28125C12.303 6.44766 12.6024 6.53214 12.9062 6.52344C13.3345 6.52344 13.6866 6.4353 13.417 5.84668C13.3371 5.67507 13.3038 5.48547 13.3193 5.29688C13.3349 5.10831 13.3989 4.92676 13.5059 4.77051C14.2355 5.43523 14.3433 6.7039 13.7373 7.34961C13.1314 7.99526 12.3514 7.89433 11.1396 6.85645C10.8573 7.55905 10.4095 8.03656 9.58789 7.78027C8.86769 7.55554 8.588 6.87218 8.2168 6.28027C6.76358 7.88488 3.53051 8.39488 1.69043 7.36621C0.224792 6.53694 0.0316741 4.95408 1.24023 3.44434C0.517043 5.38125 1.01233 6.19454 3.09668 6.5332C4.22446 6.71097 5.37786 6.64048 6.47559 6.32715C7.17657 6.13091 7.82367 5.83363 8.18848 5.06152C8.56285 5.50782 8.8805 5.929 9.24219 6.30566C9.38474 6.45799 9.5747 6.55781 9.78125 6.58887C9.988 6.61989 10.1996 6.58045 10.3809 6.47656C10.7838 6.27715 10.8249 5.90027 10.7646 5.49512C10.606 4.40309 10.4475 3.31101 10.3047 2.21582C10.2199 1.75756 10.2757 1.28394 10.4639 0.857422Z" fill="#38383A"/>
</svg>
