<svg width="7" height="9" viewBox="0 0 7 9" fill="none" xmlns="http://www.w3.org/2000/svg">
<path d="M4.69374 0.216233C5.08705 0.156108 5.58193 0.134368 5.59803 0.741623C5.59803 1.2544 5.42033 1.57183 4.7953 1.43889C4.26551 1.32814 3.8088 1.58724 3.40272 1.90373C2.99671 2.22019 2.72376 2.43861 3.30702 2.89104C3.82417 3.28987 3.66879 3.93594 3.54823 4.47405C3.4689 4.82853 3.29116 5.24347 2.80897 5.20549C2.60079 5.19715 2.40311 5.1117 2.25428 4.96623C2.10546 4.82068 2.01582 4.62495 2.00331 4.4174C1.95572 4.04393 2.02882 3.58468 1.41346 3.73967C0.934472 3.86309 0.461607 4.05611 0.588269 4.68889C0.734383 5.46034 0.81351 6.2437 0.82362 7.02873V8.56389L0.455456 8.54729C0.591654 6.93964 -0.32839 5.43001 0.220105 3.80022C0.439023 3.1355 0.85537 2.62541 1.58827 2.53362C1.83456 2.50686 2.06953 2.41567 2.26893 2.26897C2.46845 2.12217 2.62562 1.92469 2.72401 1.69768C2.90822 1.31064 3.18377 0.9741 3.52675 0.716233C3.8698 0.458319 4.26995 0.286206 4.69374 0.216233ZM5.16053 4.2553C5.47779 4.52749 6.14727 4.38867 6.1537 4.99944C6.1537 5.36028 6.01702 5.86958 5.44276 5.79045C5.05572 5.73348 4.56997 5.65781 4.59218 5.11662C4.60486 4.78111 4.60533 4.34076 5.16053 4.2553Z" fill="#38383A"/>
</svg>
