<svg width="284" height="284" viewBox="0 0 284 284" fill="none" xmlns="http://www.w3.org/2000/svg">
<path d="M274.719 194.955C278.012 195.028 280.181 198.38 278.847 201.344L271.2 218.293C270.305 220.275 268.118 221.366 265.966 220.888L244.897 216.207C242.215 215.611 240.643 212.841 241.536 210.284L246.002 197.506C246.654 195.64 248.463 194.406 250.469 194.445L274.719 194.955ZM177.606 103.777C179.705 101.944 184.319 100.143 185.998 107.571C188.094 116.866 183.569 161.212 238.468 161.212C282.38 161.211 274.464 150.665 265.019 145.395V127.182C266.414 125.577 271.653 125.733 281.441 139.206C291.231 152.684 270.466 179.28 260.575 182.709C248.665 186.828 192.352 190.795 181.441 134.392H175.147C175.147 134.392 167.454 147.319 139.483 148.146C133.654 177.034 105.481 228.766 39.4597 204.561C25.0052 200.204 -3.08117 182.263 0.276135 145.395C1.2175 137.599 6.74171 120.971 21.2778 116.844C4.60795 138.052 -9.14399 181.922 69.1913 187.701C96.7021 187.242 143.46 175.466 110.45 131.996C107.187 128.328 102.204 118.299 108.352 107.571C125.255 123.046 162.778 143.948 177.606 103.777ZM77.989 130.243C81.2827 130.316 83.4507 133.669 82.1172 136.632L74.4699 153.581C73.5755 155.564 71.388 156.655 69.2365 156.177L48.1671 151.496C45.4856 150.899 43.9131 148.13 44.806 145.573L49.2725 132.794C49.9242 130.928 51.7336 129.695 53.739 129.733L77.989 130.243ZM175.485 64.5111C178.779 64.5844 180.947 67.9366 179.614 70.9002L171.966 87.849C171.072 89.8315 168.884 90.9226 166.733 90.4446L145.664 85.7637C142.982 85.1672 141.409 82.3976 142.302 79.8405L146.769 67.0623C147.421 65.196 149.23 63.9626 151.235 64.0009L175.485 64.5111Z" fill="#38383A"/>
</svg>
