<svg width="12" height="9" viewBox="0 0 12 9" fill="none" xmlns="http://www.w3.org/2000/svg">
<path d="M10.2256 0.72168C11.0884 1.71855 11.7861 2.77595 11.3613 4.20312C11.079 5.15264 10.409 5.4698 9.54297 5.00781C9.22573 4.84324 9.01328 4.72939 8.72461 5.00781C8.52162 5.20705 8.27055 5.14034 8.01367 5.05176C7.06209 4.73535 6.68406 4.97896 6.53809 6.00098C6.29062 7.74815 5.34847 8.76112 3.81934 8.92578C2.35051 9.08398 1.08777 8.22668 0.580078 6.72656C0.58051 6.72303 0.579713 6.71937 0.580078 6.71582C0.236077 5.53468 0.344733 4.44469 1.2207 3.51074C1.11351 4.15166 0.792409 4.75092 0.799805 5.41797L0.805664 5.55176L0.894531 5.75684C1.85074 7.82878 3.97542 8.40508 5.56445 6.98535C6.11306 6.49801 6.30042 5.99125 5.80566 5.3457C5.5954 5.07095 5.43669 4.76033 5.33887 4.42871C5.25321 4.13754 5.23431 3.7412 5.47852 3.54492C5.72276 3.34888 5.92295 3.69423 6.11328 3.82715C6.78885 4.28567 7.44247 3.34302 7.77246 3.58301C8.48929 4.11139 8.8164 3.80156 9.2002 3.40918C9.20707 3.41552 9.5449 3.7272 9.74902 3.85254C9.91678 3.97709 10.1232 4.03963 10.332 4.0293C10.5409 4.01886 10.74 3.93558 10.8945 3.79492C11.294 3.44685 10.8689 3.16231 10.7324 2.89648C10.4469 2.3204 9.81572 1.89881 9.95215 1.13281C9.95553 1.04605 9.98325 0.962086 10.0312 0.889648C10.0794 0.817123 10.1467 0.758725 10.2256 0.72168ZM10.3076 5.67578C10.6249 5.84663 11.1262 5.86573 11.0596 6.37207C11.0119 6.73589 10.8405 7.10598 10.3428 7.07129C10.2563 7.07869 10.1693 7.0649 10.0889 7.03223C10.0085 6.99949 9.93654 6.94845 9.87988 6.88281C9.8233 6.81711 9.78312 6.73849 9.7627 6.6543C9.74235 6.57001 9.74234 6.48174 9.7627 6.39746C9.80393 6.07472 9.8512 5.70449 10.3076 5.67578Z" fill="#38383A"/>
</svg>
