<svg width="284" height="284" viewBox="0 0 284 284" fill="none" xmlns="http://www.w3.org/2000/svg">
<path d="M236.959 209.772C240.832 209.865 243.36 213.882 241.791 217.433L232.818 237.755C231.767 240.133 229.191 241.437 226.659 240.867L201.864 235.254C198.713 234.54 196.868 231.241 197.909 228.179L203.165 212.831C203.934 210.595 206.061 209.112 208.421 209.161L236.959 209.772ZM85.7999 88.0541C88.2823 88.1564 93.2759 91.8331 93.4985 105.716C93.774 123.106 99.8452 163.678 134.832 169.474C162.804 174.854 228.604 181.06 268.099 162.851C269.84 161.194 269.501 154.322 254.215 140.082C252.917 127.092 253.887 106.13 268.099 126.038C285.887 150.971 292.46 157.098 268.099 185.594C248.594 208.381 165.856 198.476 126.921 190.674C122.512 189.82 110.769 183.746 98.9938 166.256C96.9474 164.441 92.0105 162.548 88.6404 169.474C87.6028 173.061 81.6089 180.198 65.9691 179.981C46.4091 179.705 23.2542 176.374 25.4582 161.468C27.66 146.567 27.9595 131.372 78.6321 113.988C77.5323 105.61 77.4305 88.7161 85.7999 88.0541ZM81.1276 123.165C72.5398 123.854 56.9932 136.172 48.5808 140.508C43.6067 143.075 42.4883 146.938 42.7935 150.163C43.0678 153.037 45.9392 154.603 48.8197 154.632C57.6068 154.71 70.5294 154.763 75.3137 154.579C81.0361 154.358 83.7474 148.803 84.3929 146.04V127.022C84.3884 124.964 83.1739 123.003 81.1276 123.165ZM56.2263 44.0855L84.2867 49.1659C88.0984 49.8547 89.9843 54.2009 87.8971 57.4649L75.8712 76.1376C74.4629 78.323 71.6999 79.2257 69.2875 78.2655L45.6606 68.8228C45.0973 68.5962 44.6096 68.2636 44.1739 67.8918L38.307 79.0369C37.1973 81.1262 34.8715 82.25 32.5463 81.8298L4.45938 76.776C0.648921 76.0792 -1.22699 71.713 0.875519 68.4504L12.9014 49.7777C14.3119 47.5988 17.0758 46.7167 19.4851 47.6764L43.0855 57.0925C43.6379 57.313 44.1418 57.6364 44.5721 57.9969L50.4656 46.905C51.5755 44.8176 53.9025 43.6663 56.2263 44.0855Z" fill="#38383A"/>
</svg>
