<svg width="9" height="9" viewBox="0 0 9 9" fill="none" xmlns="http://www.w3.org/2000/svg">
<path d="M4.60316 0.617292C4.87277 0.563497 5.01926 0.857844 5.15883 1.06358C5.62117 1.71288 5.82495 2.51103 5.73012 3.30186C5.68255 3.7164 5.70461 4.03599 6.2184 4.13096C6.73238 4.22592 6.69764 4.65687 6.68812 5.03038C6.64657 6.97039 4.62278 8.55558 2.74476 8.13487C1.64068 7.88798 0.957881 7.07476 0.840468 5.7169C0.786533 4.98574 0.780388 4.21323 1.2975 3.58018C1.30883 3.57798 1.32008 3.57693 1.3307 3.5753L1.3268 3.57042C1.48335 3.25413 1.74887 3.00489 2.07484 2.86827C2.18885 3.36501 1.82739 3.57408 1.5768 3.82725L1.47426 4.06651C1.01571 5.24152 1.3337 6.10619 2.44008 6.67589C3.62025 7.28343 5.37719 6.82128 5.92934 5.84971C6.08163 5.58066 6.03739 5.41891 5.76137 5.36827C5.48549 5.31772 5.12724 5.33707 4.81019 5.296C4.5596 5.26436 4.137 5.46034 4.11781 5.046C4.11781 4.7295 4.04852 4.29587 4.49574 4.06163C5.44752 3.56786 5.4696 3.34293 4.90492 2.39659C4.686 2.03574 4.22016 1.78504 4.36293 1.2501C4.42283 1.02229 4.28033 0.671293 4.60316 0.617292ZM7.54457 5.89659C7.83646 5.93774 8.24575 5.97333 8.25844 6.35948C8.12527 6.84992 8.0647 7.27968 7.48109 7.21007C7.13209 7.16892 6.81462 7.06468 6.9098 6.65635C6.98592 6.33981 6.99259 5.82063 7.54457 5.89659Z" fill="#38383A"/>
</svg>
