<svg width="13" height="9" viewBox="0 0 13 9" fill="none" xmlns="http://www.w3.org/2000/svg">
<path d="M9.10099 6.79639C9.33234 6.46173 9.58614 6.853 9.80802 6.96729C9.88182 6.99689 9.94872 7.04344 10.0024 7.10205C10.0558 7.16058 10.0957 7.23029 10.1186 7.30615C10.1414 7.38205 10.1466 7.46226 10.1342 7.54053C10.1218 7.61891 10.0916 7.69403 10.0463 7.75928C9.92259 8.00934 9.7795 8.39211 9.46232 8.23389C8.96119 7.99343 8.5966 7.88908 8.19376 8.41748C8.04149 8.62003 7.70543 8.46775 7.51505 8.29053C7.41822 8.18542 7.35949 8.05107 7.34904 7.90869C7.33868 7.76631 7.37691 7.62435 7.45743 7.50635C7.56847 7.2943 7.67324 7.03097 8.04435 7.08154C8.51708 7.54051 8.78372 7.26169 9.10099 6.79639ZM5.2338 0.158691C5.66839 0.604918 5.55059 1.16563 5.66154 1.63721C5.79255 2.22233 5.86069 2.81991 5.86466 3.41943C5.86466 4.20751 6.19782 4.7873 6.91154 5.05322C7.25447 5.19217 7.63313 5.21941 7.99259 5.13135C8.35201 5.04327 8.6741 4.84361 8.91349 4.56201C9.31325 4.10304 9.48195 4.10342 9.76114 4.60986C9.8631 4.80852 10.0199 4.97424 10.2133 5.08643C10.4068 5.19866 10.6293 5.25263 10.8529 5.24268C11.2207 5.22679 11.5916 5.12528 11.2748 4.60986C11.2332 4.56233 11.2028 4.50564 11.1859 4.44482C11.1257 4.0745 11.0618 3.55533 11.3949 3.43506C11.8264 3.27996 11.9919 3.80899 12.1283 4.13818C12.3083 4.52992 12.33 4.97603 12.1889 5.3833C12.0476 5.79068 11.7538 6.12761 11.3695 6.32471C10.5923 6.76148 10.0466 6.55318 9.22501 5.44873C8.30813 6.39824 7.3559 6.80655 6.18204 5.97412C5.73469 5.65759 5.78211 6.10684 5.68693 6.34424C4.83028 8.52174 2.6641 9.12927 1.07462 7.64502C-0.0770769 6.56565 0.0148041 4.36268 1.40763 3.14404C1.15569 3.58667 0.943128 4.05092 0.772864 4.53076C0.576244 5.34415 0.703134 6.11354 1.44864 6.64209C2.28606 7.24959 3.19333 7.40758 4.11954 6.92041C4.93801 6.48998 5.56953 5.85689 5.48087 4.83154C5.38886 3.73319 5.24279 2.63766 5.11271 1.54248C5.03494 1.07865 5.07695 0.602167 5.2338 0.158691ZM12.0395 6.354C12.3567 6.35405 12.8858 6.42959 12.8734 6.90381C12.8734 7.26782 12.7656 7.75288 12.185 7.73389C11.817 7.73386 11.4455 7.63856 11.4867 7.18604C11.5153 6.84418 11.5667 6.35084 12.0395 6.354Z" fill="#38383A"/>
</svg>
