<svg width="284" height="284" viewBox="0 0 284 284" fill="none" xmlns="http://www.w3.org/2000/svg">
<path d="M168.784 136.762C177.532 118.53 205.165 83.1883 245.714 87.6685C286.249 92.1528 286.747 117.656 281.921 129.849C276.207 142.924 247.532 168.523 178.569 166.416H155.858C145.085 194.902 111.042 239.178 52.6093 225.412C27.289 219.444 3.62989 201.073 0.439841 175.226C-1.68988 157.898 3.48047 137.503 25.5383 118.648C27.1841 118.762 29.4853 121.157 25.5383 129.849C21.2797 139.208 -5.03331 171.429 34.8042 192.639C50.6188 201.052 69.1688 202.021 87.0775 202.021C116.915 199.165 165.402 183.157 120.663 142.038V118.648C120.337 113.265 123.293 105.729 137.768 118.648C152.235 131.56 159.168 137.876 160.816 139.413L168.784 136.762ZM254.617 118.31C206.224 94.5872 186.826 129.844 184.512 140.063C224.009 140.719 293.307 137.283 254.617 118.31ZM198.035 57.5989C201.827 57.6815 204.32 61.6104 202.785 65.0839L194.012 84.9397C192.985 87.2617 190.464 88.5359 187.99 87.9804L163.748 82.4967C160.663 81.7979 158.854 78.5532 159.881 75.5575L165.02 60.5877C165.772 58.3997 167.849 56.9525 170.159 57.0012L198.035 57.5989Z" fill="#38383A"/>
</svg>
