<svg width="284" height="284" viewBox="0 0 284 284" fill="none" xmlns="http://www.w3.org/2000/svg">
<path d="M172.479 120.863C187.554 100.526 208.784 82.2164 231.249 88.9627C265.207 99.1655 245.402 127.228 231.249 139.984C216.706 143.513 182.78 146.296 163.304 144.231L156.932 152.744H154.82C156.026 150.104 157.448 146.991 159.081 143.654C151.248 142.264 150.195 139.704 146.318 133.604C132.871 144.232 100.038 158.265 76.261 129.357C50.7849 147.071 17.6751 187.174 89.0056 205.879C95.385 207.296 120.44 209.279 169.676 205.879C160.476 215.799 128.063 233.087 72.0192 222.886C6.98487 211.046 40.7342 140.59 61.194 127.147C63.6087 125.56 65.6462 123.044 65.6469 120.152C65.6431 116.946 63.1768 114.268 59.9848 114.002L40.177 112.35L48.3343 101.454C51.2441 97.5717 55.6722 95.1132 60.5031 94.7086L78.3915 93.2289H98.1417C101.914 93.229 105.656 93.9415 109.159 95.3427C112.364 96.6264 114.475 99.7462 114.475 103.203V111.639C114.475 113.392 113.53 115.015 111.999 115.867L95.3586 125.11L101.98 126.59C110.207 128.42 118.744 128.42 126.971 126.59C131.291 125.628 135.28 123.472 138.276 120.21C141.294 116.922 144.206 113.44 144.206 112.35C144.229 110.258 159.049 129.342 161.174 127.224C162.873 125.523 169.423 122.28 172.479 120.863ZM231.249 114.483C209.175 97.4837 188.078 115.887 180.29 127.224C234.622 132.324 236.904 120.861 231.249 114.483ZM168.429 69.9955C169.373 67.9281 171.775 66.9723 173.88 67.8239L187.814 73.4545C189.713 74.2241 190.798 76.2497 190.386 78.2588L188.486 87.483C188.001 89.84 185.659 91.3178 183.323 90.7499L166.375 86.6374C163.786 86.0054 162.408 83.1651 163.515 80.7378L168.429 69.9955ZM62.2881 61.4823C63.2348 59.4176 65.6351 58.4582 67.739 59.3108L81.6736 64.9606C83.572 65.7311 84.6585 67.7559 84.2455 69.7649L82.3454 78.989C81.8583 81.3417 79.5151 82.8216 77.1823 82.2559L60.2343 78.1243C57.6416 77.4939 56.2644 74.6539 57.3745 72.2246L62.2881 61.4823Z" fill="#38383A"/>
</svg>
