<svg width="284" height="284" viewBox="0 0 284 284" fill="none" xmlns="http://www.w3.org/2000/svg">
<path d="M67.5643 70.5175C68.6324 71.0985 69.6677 71.7474 70.4327 72.3723C70.8085 72.6805 71.1323 72.9992 71.3607 73.2997C71.5867 73.601 71.7244 73.9131 71.7403 74.206C71.7538 74.5086 71.6342 74.7924 71.3607 75.028L70.0952 75.6182C67.7935 76.2256 63.4974 76.339 59.1068 76.2505C56.9061 76.2057 54.6508 76.1164 52.6107 75.9975L47.2958 75.6182C46.0128 75.5065 44.0924 75.7791 42.5503 76.9882C41.0121 78.2027 39.7963 80.3729 39.935 84.0279L40.0827 95.9574C40.1505 113.251 40.024 143.697 39.935 160.495C41.8381 171.947 55.2986 195.337 93.907 197.338C99.996 196.687 108.925 194.548 117.318 190.888C125.717 187.222 133.593 182.051 137.587 175.375V175.354L138.388 174.511C139.293 173.72 140.542 173.128 141.889 173.31C143.701 173.568 145.685 175.248 147.394 179.654C149.514 185.12 154.023 188.864 158.15 190.74C160.204 191.672 162.176 192.143 163.697 192.132C165.226 192.114 166.281 191.615 166.587 190.677L167.515 187.642C173.008 171.733 191.1 145.451 227.708 147.575L231.231 147.891C239.085 148.807 244.637 151.158 248.378 154.425C252.651 158.165 254.578 163.105 254.937 168.483C255.653 179.242 250.138 191.769 244.855 200.014V200.035C242.517 202.425 236.678 205.929 226.802 208.677C216.908 211.426 202.919 213.44 184.282 212.871C174.969 212.587 167.907 212.174 162.453 211.48C157.007 210.786 153.11 209.809 150.136 208.403C145.678 206.29 143.226 203.193 140.497 198.665L137.587 193.628L137.565 193.607C137.547 193.583 137.509 193.534 137.481 193.502C137.417 193.427 137.314 193.317 137.207 193.206C136.974 192.969 136.647 192.668 136.279 192.448C135.904 192.227 135.471 192.074 135.056 192.11C134.853 192.131 134.629 192.197 134.423 192.321L133.79 192.911C132.732 194.332 130.131 199.876 123.519 205.031C116.883 210.196 106.189 214.999 88.9295 215C64.7407 214.993 46.7646 202.637 38.4376 194.134L35.4637 190.762C34.377 189.359 33.4393 187.307 32.6375 184.755C31.8321 182.189 31.1438 179.088 30.6128 175.586C29.5511 168.579 29.031 159.911 29.031 150.526V84.0489C28.8522 81.544 29.4132 77.7823 31.6041 74.6486C33.803 71.5105 37.667 69.0056 44.09 69H64.4217L67.5643 70.5175ZM231.652 173.436C217.607 165.932 205.327 167.226 195.587 172.108C185.208 177.318 177.68 186.594 173.947 193.544L174.053 193.586L174.264 193.691C191.871 194.793 205.052 194.707 214.737 193.818C224.445 192.924 230.689 191.229 234.415 189.139C236.27 188.095 237.519 186.945 238.254 185.745C238.989 184.538 239.218 183.265 239.055 182.015C238.81 180.15 237.694 178.311 236.166 176.661L234.5 175.059L231.652 173.436ZM196.367 110.501C199.447 110.567 201.469 113.734 200.227 116.55L193.098 132.652C192.263 134.539 190.197 135.573 188.184 135.118L168.485 130.671C165.981 130.103 164.531 127.492 165.363 125.065L169.539 112.924C170.15 111.148 171.836 109.954 173.715 109.995L196.367 110.501Z" fill="#38383A"/>
</svg>
