<svg width="284" height="284" viewBox="0 0 284 284" fill="none" xmlns="http://www.w3.org/2000/svg">
<path d="M206.744 120.767C214.405 117.738 234.346 120.214 252.916 154.322C256.743 166.028 252.545 193.78 205.158 211.055C155.4 218.252 51.8832 223.056 35.8105 184.764C19.7414 146.474 40.7824 131.696 53.3079 129.094C55.5654 129.877 58.7196 133.051 53.3079 139.497C46.5329 147.562 39.2312 150.961 48.1033 167.863C56.9762 184.765 91.4286 191.782 154.302 191.782C204.588 191.781 228.998 183.121 234.923 178.785C238.055 175.145 242.13 167.863 233.362 167.863H217.178C206.479 167.864 186.488 163.443 192.122 145.748C197.755 128.057 204.219 121.721 206.744 120.767ZM217.153 69.5695C220.775 69.648 223.155 73.3834 221.689 76.6858L213.312 95.5637C212.33 97.7751 209.903 98.9882 207.537 98.4547L184.389 93.241C181.448 92.5731 179.741 89.4893 180.721 86.6436L185.628 72.4111C186.347 70.3307 188.329 68.9534 190.536 69.0012L217.153 69.5695Z" fill="#38383A"/>
</svg>
