<svg width="284" height="284" viewBox="0 0 284 284" fill="none" xmlns="http://www.w3.org/2000/svg">
<path d="M107.734 77.3671C108.15 77.3456 108.564 77.5301 108.949 77.8473C109.34 78.1726 109.737 78.6518 110.102 79.2254C111.568 81.5368 112.835 85.5826 113.559 88.5795L113.58 88.6004H113.559C112.669 99.4692 112.876 115.862 116.367 129.692C118.114 136.606 120.692 142.881 124.351 147.502C128.007 152.117 132.764 155.083 138.873 155.416H168.628C168.149 148.043 168.471 137.071 170.975 127.98C172.233 123.416 174.044 119.307 176.591 116.37C179.143 113.433 182.449 111.649 186.649 111.756C203.378 112.194 209.392 123.915 210.307 129.733L210.663 134.244C210.719 136.025 210.688 138.04 210.537 140.111C210.236 144.24 209.409 148.634 207.604 151.97V155.416C215.758 155.571 228.603 155.579 240.733 155.102C246.816 154.863 252.735 154.501 257.79 153.975C262.829 153.449 267.031 152.758 269.692 151.866C270.108 151.509 270.582 151.061 270.97 150.592C271.362 150.119 271.688 149.614 271.829 149.173C271.966 148.737 271.92 148.357 271.641 148.087C271.495 147.949 271.272 147.819 270.97 147.732L269.755 147.586C267.204 147.523 259.588 147.479 253.096 144.976C249.85 143.722 246.872 141.841 244.945 139.025C243.015 136.203 242.144 132.445 243.101 127.458L244.358 122.05C245.714 117.172 247.339 113.838 248.926 111.631C251.022 108.72 253.072 107.741 254.353 107.768L256.47 107.559C258.897 107.629 262.247 108.574 266.046 111.13C270.491 114.122 275.579 119.342 280.63 127.959L282.789 131.863L282.81 131.884L283.669 136.394C284.307 141.361 284.141 147.538 282.118 153.39C279.753 160.226 274.832 166.623 265.69 170.157L261.52 171.493C252.008 174.012 228.837 177.469 208.19 172.579L204.104 171.493C200.88 171.041 195.64 170.697 190.421 171.117C185.191 171.541 179.971 172.739 176.8 175.356C175.782 176.195 174.151 176.835 172.107 177.277C170.058 177.718 167.56 177.983 164.793 178.07C159.244 178.243 152.544 177.715 145.997 176.65C139.448 175.584 133.007 173.958 127.997 171.89C125.497 170.857 123.334 169.708 121.69 168.465C120.065 167.236 118.936 165.9 118.463 164.477L116.996 163.413C116.459 163.169 115.892 163.082 115.403 163.266C114.916 163.455 114.461 163.937 114.125 164.853C113.789 165.776 113.56 167.143 113.559 169.092C113.559 171.077 112.67 173.606 111.233 176.379C109.793 179.157 107.788 182.209 105.576 185.232C101.15 191.279 95.8325 197.271 92.2905 200.933V200.954L92.2695 200.933C80.3505 210.18 49.1586 221.881 17.1473 197.446L14.046 194.962C9.75646 190.472 4.21466 182.251 1.55705 172.161C-1.10065 162.066 -0.869775 150.093 6.3347 138.127V138.106L9.58267 133.951C10.8807 132.356 12.3712 130.6 13.9203 128.898C17.0139 125.501 20.4004 122.238 23.1822 120.609L24.4395 119.983C25.6214 119.486 26.6353 119.346 27.4569 119.502C28.5528 119.715 29.3153 120.43 29.741 121.34C30.1643 122.249 30.2532 123.373 30.0344 124.43C29.9239 124.958 29.7361 125.486 29.4686 125.954L28.4209 127.186C21.565 132.25 13.0791 140.963 9.91794 150.613C8.34078 155.434 8.08931 160.501 10.0227 165.459C11.9586 170.418 16.109 175.289 23.3079 179.74L26.6816 181.703C43.5482 190.836 60.2459 190.427 74.0809 186.067C88.8365 181.413 100.344 172.263 105.345 165.459L105.366 165.438L106.1 164.436C107.635 161.979 109.334 156.868 108.174 149.465L107.336 145.56C105.497 138.719 104.086 124.814 103.585 111.422C103.335 104.724 103.314 98.1355 103.585 92.6302C103.857 87.1298 104.42 82.6589 105.345 80.2276L105.911 78.9748C106.1 78.6266 106.303 78.3278 106.498 78.0979C106.888 77.6411 107.312 77.3963 107.734 77.3671ZM187.969 131.112C186.501 130.858 184.957 131.139 183.38 132.114L181.767 133.346C179.638 135.297 178.678 137.26 178.54 139.15C178.406 141.042 179.087 142.874 180.237 144.516C182.54 147.799 186.704 150.459 189.813 151.908L189.834 151.929C194.015 152.897 196.677 152.367 198.279 151.302C199.472 150.505 200.082 149.406 200.311 148.421L200.416 147.481V147.44C199.108 143.476 196.609 138.005 193.375 134.494C191.757 132.742 189.923 131.453 187.969 131.112ZM194.486 74.0055L216.635 77.9935C219.646 78.5345 221.138 81.9452 219.485 84.508L209.992 99.1656C208.881 100.881 206.7 101.59 204.796 100.836L186.146 93.4236C185.703 93.2457 185.316 92.9838 184.973 92.6928L180.342 101.441C179.466 103.081 177.63 103.964 175.795 103.634L153.625 99.6667C150.62 99.1168 149.137 95.6909 150.796 93.1313L160.288 78.4737C161.4 76.7605 163.582 76.0725 165.485 76.8242L184.114 84.2157C184.549 84.3885 184.948 84.6431 185.287 84.9256L189.939 76.2187C190.813 74.5782 192.651 73.6786 194.486 74.0055ZM265.564 72.5021C268.621 72.5708 270.63 75.7073 269.399 78.4946L262.295 94.4467C261.465 96.3154 259.434 97.3405 257.434 96.8897L237.862 92.484C235.374 91.9229 233.915 89.3347 234.74 86.93L238.889 74.9033C239.495 73.1435 241.192 71.9606 243.059 72.001L265.564 72.5021Z" fill="#38383A"/>
</svg>
