<svg width="284" height="284" viewBox="0 0 284 284" fill="none" xmlns="http://www.w3.org/2000/svg">
<path d="M104.279 82.2257C104.682 82.2026 105.083 82.3862 105.456 82.6922C105.833 83.0066 106.219 83.4762 106.571 84.0307C107.989 86.2745 109.216 90.2062 109.918 93.1167L109.938 93.137H109.918C109.056 103.693 109.257 119.618 112.636 133.051C114.325 139.763 116.826 145.863 120.364 150.351C123.901 154.832 128.511 157.712 134.42 158.037H163.221C162.758 150.875 163.07 140.218 165.493 131.388C166.71 126.954 168.464 122.964 170.929 120.111C173.398 117.257 176.6 115.527 180.665 115.629C196.858 116.052 202.676 127.437 203.564 133.091L203.909 137.472C203.963 139.202 203.933 141.16 203.787 143.171C203.495 147.183 202.696 151.449 200.947 154.691V158.037C208.838 158.189 221.272 158.196 233.015 157.733C238.903 157.5 244.632 157.149 249.525 156.638C254.402 156.127 258.468 155.455 261.046 154.589C261.45 154.241 261.905 153.809 262.283 153.352C262.664 152.89 262.977 152.404 263.114 151.973C263.248 151.548 263.204 151.181 262.932 150.918C262.79 150.786 262.572 150.657 262.283 150.574L261.106 150.432C258.628 150.37 251.259 150.327 244.982 147.896C241.843 146.678 238.955 144.849 237.091 142.116C235.227 139.376 234.382 135.72 235.307 130.88L236.524 125.628C237.836 120.889 239.409 117.652 240.945 115.507C242.971 112.682 244.957 111.733 246.198 111.755L248.247 111.552C250.595 111.618 253.839 112.54 257.516 115.021C261.818 117.926 266.745 123.001 271.633 131.367L273.722 135.16L273.743 135.18L274.574 139.561C275.192 144.386 275.032 150.384 273.073 156.07C270.783 162.712 266.026 168.924 257.172 172.356L253.135 173.654C243.924 176.101 221.497 179.459 201.515 174.708L197.56 173.654C194.438 173.215 189.365 172.88 184.315 173.289C179.252 173.701 174.198 174.862 171.132 177.406C170.145 178.221 168.569 178.843 166.588 179.272C164.605 179.699 162.187 179.958 159.51 180.042C154.138 180.209 147.651 179.698 141.316 178.663C134.978 177.627 128.741 176.048 123.893 174.039C121.476 173.036 119.377 171.919 117.788 170.713C116.22 169.521 115.121 168.218 114.664 166.839L113.244 165.805C112.725 165.57 112.175 165.482 111.703 165.663C111.233 165.848 110.79 166.315 110.466 167.204C110.14 168.101 109.919 169.429 109.918 171.321C109.918 173.251 109.058 175.704 107.667 178.4C106.271 181.1 104.333 184.061 102.19 186.999C97.904 192.875 92.7593 198.693 89.3309 202.25V202.271L89.3106 202.25C77.7718 211.232 47.5806 222.598 16.5966 198.863L13.5947 196.45C9.44365 192.088 4.0771 184.098 1.50613 174.303C-1.06483 164.498 -0.841607 152.865 6.13062 141.244V141.224L9.27446 137.188C10.5318 135.637 11.972 133.935 13.473 132.28C16.4676 128.979 19.7446 125.813 22.438 124.228L23.655 123.62C24.7978 123.136 25.7804 123.004 26.5757 123.153C27.6365 123.358 28.3732 124.057 28.7866 124.938C29.1965 125.822 29.2827 126.913 29.0705 127.94C28.9632 128.454 28.7834 128.964 28.5229 129.42L27.5087 130.617C20.8723 135.536 12.6577 143.999 9.59899 153.372C8.07296 158.053 7.83178 162.979 9.7004 167.792C11.5735 172.607 15.5969 177.342 22.5597 181.665L25.8253 183.571C42.15 192.443 58.3137 192.044 71.7051 187.81C85.991 183.29 97.1256 174.402 101.967 167.792L101.987 167.772L102.697 166.799C104.184 164.414 105.829 159.453 104.705 152.257L103.894 148.464C102.114 141.817 100.748 128.309 100.263 115.304C100.021 108.799 100.001 102.398 100.263 97.0513C100.526 91.7089 101.072 87.3655 101.967 85.0042L102.515 83.7874C102.698 83.4473 102.894 83.1598 103.083 82.9355C103.46 82.491 103.872 82.2565 104.279 82.2257ZM181.942 134.43C180.522 134.186 179.025 134.457 177.5 135.403L175.939 136.6C173.884 138.492 172.95 140.405 172.815 142.238C172.687 144.073 173.347 145.856 174.458 147.45C176.685 150.639 180.717 153.221 183.727 154.63L183.748 154.65C187.793 155.592 190.369 155.073 191.922 154.042C193.076 153.268 193.666 152.199 193.889 151.243L193.99 150.33V150.29C192.724 146.438 190.307 141.124 187.175 137.715C185.608 136.012 183.836 134.76 181.942 134.43ZM177.825 77.5002C180.787 77.5663 182.736 80.6314 181.537 83.3412L174.681 98.8361C173.877 100.65 171.89 101.646 169.955 101.209L151.011 96.9093C148.601 96.363 147.207 93.8515 148.009 91.5145L152.005 79.8325C152.592 78.1232 154.234 76.9944 156.041 77.0337L177.825 77.5002ZM259.139 72.0648L280.578 75.9385C283.493 76.4641 284.938 79.7767 283.336 82.2663L274.148 96.5037C273.072 98.1679 270.96 98.8579 269.118 98.1262L251.066 90.9264C250.637 90.7536 250.263 90.4995 249.931 90.2165L245.448 98.7144C244.6 100.306 242.822 101.164 241.047 100.844L219.587 96.9905C216.68 96.4567 215.247 93.1284 216.849 90.6424L226.037 76.405C227.113 74.7392 229.225 74.0715 231.067 74.8027L249.099 81.9823C249.521 82.1506 249.906 82.3967 250.235 82.6719L254.738 74.2146C255.583 72.6196 257.362 71.747 259.139 72.0648Z" fill="#38383A"/>
</svg>
