<svg width="284" height="284" viewBox="0 0 284 284" fill="none" xmlns="http://www.w3.org/2000/svg">
<path d="M189.826 109.369C199.244 81.1327 213.61 89.2816 219.617 96.8933C235.094 103.12 260.91 125.125 240.399 163.324C231.62 173.244 196.049 191.842 123.97 186.86C123.741 198.624 114.685 224.089 80.3152 231.843C45.9382 239.594 36.5695 239.532 36.1875 238.528C35.4723 237.491 36.4181 234.696 45.919 231.843C55.4233 228.989 90.798 209.283 107.295 199.783C111.476 197.219 116.634 191.04 103.835 186.86C89.2729 186.126 61.3659 179.915 66.2033 160.914C71.0483 141.907 77.6298 135.13 80.3152 134.122C87.2949 130.094 104.783 129.822 118.967 160.914C128.628 164.945 163.525 169.107 225.815 153.557C231.006 151.875 238.785 146.78 228.403 139.814H219.617C205.762 141.433 180.41 137.607 189.826 109.369ZM224.023 45.5977C227.657 45.6765 230.042 49.4107 228.577 52.7303L220.165 71.7177C219.179 73.9419 216.742 75.162 214.366 74.6254L191.12 69.3816C188.167 68.71 186.454 65.6324 187.436 62.7708L192.364 48.4557C193.084 46.3611 195.075 44.9531 197.292 45.0012L224.023 45.5977Z" fill="#38383A"/>
</svg>
