<svg width="284" height="284" viewBox="0 0 284 284" fill="none" xmlns="http://www.w3.org/2000/svg">
<path d="M79.5905 79.517C102.737 44.7678 141.309 65.0382 157.704 79.517C111.413 65.618 95.977 75.6492 94.0482 82.4058C91.158 88.2021 90.5953 102.683 111.418 114.261C132.25 125.84 160.615 111.367 172.188 102.68L174.628 106.645L177.96 111.346C146.134 134.512 74.3898 160.008 76.7042 204.023C78.5086 238.336 163.908 239.593 223.406 236.194C229.701 235.834 231.237 243.575 225.138 245.175C175.46 258.205 111.758 268.577 94.0482 261.93C24.6293 227.182 66.0812 164.453 94.0482 137.424C66.2854 121.211 72.8416 92.0697 79.5905 79.517ZM89.4826 21.295L114.567 29.6725C117.434 30.6289 119.075 33.6189 118.345 36.553L115.197 49.1586C114.447 52.1578 111.482 54.0456 108.453 53.4392L78.2523 47.3991C74.4081 46.6295 72.4126 42.3202 74.3165 38.8903L82.608 23.9737C83.9597 21.5433 86.845 20.4201 89.4826 21.295Z" fill="#38383A"/>
</svg>
