<svg width="284" height="284" viewBox="0 0 284 284" fill="none" xmlns="http://www.w3.org/2000/svg">
<path d="M150.941 105.062C170.585 81.7056 200.795 98.3185 213.447 109.55C215.679 112.545 214.342 116.738 191.125 109.55C162.102 100.564 146.477 120.791 168.802 138.762C186.662 153.131 218.371 145.501 234 138.762C246 137 210 170.2 173.263 170.2C130.846 163.461 130.847 190.431 90.6641 215.141C50.4788 239.851 46 199.404 46 188.172C46.0033 181.429 51.0051 163.343 54.9405 156.735C59.4375 149.186 63.2769 144.936 69.8798 141.568C73.3225 142.399 59.4012 168.736 59.4012 176.952C61.5411 189.872 63.8046 211.413 92.8945 194.924C120.046 170.214 139.031 158.232 153.171 156.735C144.241 149.247 131.294 128.424 150.941 105.062ZM165.957 64.6281C166.95 62.4446 169.474 61.4287 171.686 62.3259L186.357 68.3039C188.348 69.1203 189.482 71.2521 189.048 73.3725L187.049 83.1036C186.539 85.5949 184.083 87.1668 181.627 86.5666L163.803 82.2137C161.078 81.5479 159.622 78.5504 160.785 75.9843L165.957 64.6281Z" fill="#38383A"/>
</svg>
