<svg width="284" height="284" viewBox="0 0 284 284" fill="none" xmlns="http://www.w3.org/2000/svg">
<path d="M57.0271 94.8717C61.1734 85.4611 90.0735 83.8888 108.02 84.332C110.743 84.3993 112.643 87.0029 111.95 89.636C111.604 90.9517 110.658 92.0102 109.426 92.5874C97.1827 98.3221 73.5488 116.348 62.9886 150.094C51.8279 185.759 75.9424 207.189 89.3947 213.446C177.415 236.91 217.807 211.687 227 196.142C130.53 204.12 95.0672 191.449 89.3947 184.117C30.245 132.496 131.253 98.278 189.151 87.6215C203.704 79.6438 203.837 70.7683 202.085 67.3277C167.386 63.8829 93.7792 58.6 76.9395 65.0275C60.0998 71.4549 56.648 87.6017 57.0271 94.8717Z" fill="#38383A"/>
</svg>
