<svg width="284" height="284" viewBox="0 0 284 284" fill="none" xmlns="http://www.w3.org/2000/svg">
<path d="M205.229 68.924C211.965 67.2007 224.07 66.6891 218.635 78.4927C200.185 89.9376 166.464 115.275 179.048 125.145C188.296 131.15 206.866 147.412 207.123 164.35C207.438 185.526 201.43 209.558 164.862 215.247C128.309 220.926 109.749 193.444 114.468 167.85C119.196 142.251 136.225 138.414 114.468 125.145C99.3817 115.945 79.7274 106.406 68.5306 101.279C65.789 100.023 64.0033 97.3005 64 94.2792V78.4182C64.0053 74.2115 67.4158 70.7856 71.6129 70.7856H81.8997C83.1853 70.7871 84.4514 71.1293 85.5761 71.7537L141.243 102.731C145.349 105.784 156.89 108.91 170.247 97.0344C183.606 85.1576 199.13 73.3526 205.229 68.924ZM164.862 148.862C156.977 142.332 139.037 135.103 130.214 158.356C121.397 181.611 151.541 183.826 167.721 182.036C178.333 179.61 192.596 169.591 164.862 148.862Z" fill="#38383A"/>
</svg>
