<svg width="284" height="284" viewBox="0 0 284 284" fill="none" xmlns="http://www.w3.org/2000/svg">
<path d="M85.8829 52C174.999 75.5762 223.004 113.083 235.88 128.903C264.143 188.047 236.421 204.846 219.024 205.847C194.939 206.982 142.435 208.567 124.916 205.847C107.412 203.123 94.8384 206.167 90.7569 208.037C58.6419 229.993 44.9888 233.755 42.1793 232.887C35.1549 229.941 28.281 220.848 56.8419 208.037C85.3939 195.226 83.1489 185.306 78.45 181.929C65.5706 159.819 63.4964 134.086 81.5369 114.025C92.7602 101.552 90.1738 94.6837 85.6392 91.6071C83.3272 90.0378 80.9542 88.2553 80.0747 85.6072C71.2925 59.1672 80.0662 52.1388 85.8829 52ZM211.957 157.849C188.297 131.455 178.091 128.659 169.716 134.214C159.32 154.216 162.54 167.825 165.451 172.119C167.405 177.521 191.723 176.59 203.631 175.443C220.329 169.516 216.132 161.242 211.957 157.849ZM123.088 135.714C109.608 128.667 83.5885 122.091 87.2638 152.051C94.5328 162.639 115.357 178.986 140.35 159.754C143.756 157.06 145.035 148.498 123.088 135.714Z" fill="#38383A"/>
</svg>
