<svg width="284" height="284" viewBox="0 0 284 284" fill="none" xmlns="http://www.w3.org/2000/svg">
<path d="M23.2786 121.377C-14.7481 169.29 48.5255 165.126 97.6565 166.24C136.949 167.131 146.791 151.2 146.798 143.119H154.005C152.905 144.245 153.705 148.76 165.672 157.882C180.659 169.3 223.367 162.607 227.284 161.489C230.393 160.597 230.06 158.717 229.503 157.882C208.632 140.057 185.472 145.066 176.494 149.801C166.484 103.564 254.788 149.804 275.052 157.882C291.257 164.345 281.806 171.721 275.052 174.598C159.643 189.632 154.019 171.265 151.807 166.24C150.042 162.236 147.732 162.883 146.798 163.716C138.886 174.853 118.515 182.103 109.324 184.334C73.9743 188.048 2.68698 187.961 0.240281 157.882C-2.20215 127.802 14.5775 121.01 23.2786 121.377ZM94.7186 123.519L117.059 127.571C120.097 128.12 121.603 131.585 119.934 134.189L110.359 149.08C109.237 150.818 107.036 151.541 105.118 150.776L86.3064 143.246C85.8587 143.065 85.4692 142.8 85.1228 142.504L80.4517 151.392C79.5668 153.054 77.714 153.953 75.8652 153.619L53.5032 149.589C50.4754 149.03 48.9835 145.549 50.6498 142.949L60.2245 128.058C61.3457 126.316 63.5458 125.617 65.4662 126.383L84.2562 133.892C84.697 134.068 85.0966 134.325 85.4398 134.613L90.132 125.768C91.0132 124.099 92.8671 123.187 94.7186 123.519ZM90.1743 98.5101C93.2587 98.5786 95.2847 101.766 94.0422 104.598L86.8982 120.804C86.061 122.702 83.9911 123.744 81.9735 123.286L62.2324 118.81C59.7216 118.239 58.2684 115.612 59.1043 113.168L63.2681 100.949C63.8798 99.1617 65.5911 97.9599 67.4741 98.001L90.1743 98.5101Z" fill="#38383A"/>
</svg>
