<svg width="284" height="284" viewBox="0 0 284 284" fill="none" xmlns="http://www.w3.org/2000/svg">
<path d="M157.494 110.595C153.578 89.4886 185.912 67.3535 212.43 81.4282C242.439 97.3575 264.799 99.9732 278.562 103.205C289.571 105.791 281.35 119.686 275.867 126.314C247.407 122.72 221.715 128.401 212.43 131.693C177.524 154.494 90.0896 148.367 80.4798 140.571C72.8206 134.342 67.9453 135.148 66.4582 136.341C66.6358 140.166 64.8157 148.546 56.1513 151.382C47.4935 154.204 44.0361 139.429 43.3853 131.693C41.1955 130.807 33.1785 129.388 18.6905 130.806C4.2101 132.226 7.43813 154.861 10.8687 166.004C14.7526 175.13 15.2503 192.048 15.7083 199.819C16.1598 207.582 7.00196 211.235 6.99708 204.388C6.99708 198.904 5.16884 185.947 4.2503 180.157C-0.87851 168.09 -0.31757 145.915 0.614096 136.341C1.19683 111.653 30.9295 108.891 45.7135 110.595C48.3988 90.7511 54.8536 95.2415 57.747 99.9676C77.2378 138.859 172.409 126.828 217.557 115.948C225.325 115.677 223.235 112.268 221.219 110.595C183.377 92.6548 162.968 103.12 157.494 110.595ZM61.0955 135.923C68.5987 139.492 51.7127 111.25 51.5471 121.98C51.4181 130.56 57.8583 134.848 61.0955 135.923Z" fill="#38383A"/>
</svg>
