<svg width="284" height="284" viewBox="0 0 284 284" fill="none" xmlns="http://www.w3.org/2000/svg">
<path d="M142.695 90.0469C152.881 83.5907 178.432 83.1302 199.15 132.936C202.605 140.946 208.901 160.476 206.446 174.508C206.111 193.349 192.892 234.136 142.695 246.549C92.4996 258.962 78.8339 258.85 78.2754 257.242C77.2291 255.582 78.6059 251.119 92.4834 246.549C106.361 241.978 158.007 210.408 182.096 195.193C188.202 191.088 195.74 181.203 177.043 174.508C155.777 173.332 115.013 163.372 122.088 132.936C129.162 102.499 138.774 91.661 142.695 90.0469ZM149.066 26.3477C154.175 24.6631 163.59 29.4388 169.207 33.3779C170.004 33.9371 169.593 35.129 168.616 35.166C163.417 35.3618 155.381 36.1348 150.737 38.5986C144.052 42.146 148.346 47.9026 151.522 50.6416C153.978 52.7591 164.915 50.3998 176.081 48.3701C180.007 47.6565 186.267 45.6122 192.55 43.4375C194.905 42.6223 196.008 45.1059 193.816 46.2861L171.499 58.3027C163.113 62.6946 155.175 67.8775 147.796 73.7793L123.694 91.6504C122.106 92.8278 120.136 90.7748 121.407 89.2676L141.699 65.2178C139.243 65.2179 133.349 66.6759 129.42 62.7891C124.508 57.9303 131.829 30.5072 149.066 26.3477Z" fill="#38383A"/>
</svg>
