<svg width="284" height="284" viewBox="0 0 284 284" fill="none" xmlns="http://www.w3.org/2000/svg">
<path d="M124.857 78.6744C134.66 75.4074 152.727 84.6694 163.505 92.3089C165.035 93.3934 164.245 95.7055 162.37 95.7768C152.395 96.1565 136.975 97.6554 128.064 102.434C115.234 109.313 123.474 120.478 129.57 125.79C134.282 129.896 155.268 125.32 176.695 121.384C184.228 120 196.241 116.037 208.297 111.819C212.818 110.238 214.935 115.053 210.729 117.343L167.903 140.648C151.81 149.165 136.578 159.217 122.419 170.663L76.1695 205.322C73.122 207.606 69.3412 203.623 71.7817 200.7L110.719 154.059C106.007 154.059 94.6968 156.886 87.1567 149.348C77.7316 139.924 91.7794 86.7409 124.857 78.6744Z" fill="#38383A"/>
</svg>
