<svg width="284" height="284" viewBox="0 0 284 284" fill="none" xmlns="http://www.w3.org/2000/svg">
<path d="M111.602 124.029C120.419 115.171 129.252 79.7674 133.661 88.6252C137.197 95.7175 152.753 115.169 160.102 124.029L146.881 132.908L142.462 274.637L134.677 284C134.677 198.965 118.949 138.791 111.602 124.029ZM130.385 0.403296C138.323 -2.11146 160.157 7.74796 166.769 12.9955C160.72 12.9955 137.973 8.73676 130.385 12.6127C121.386 17.2116 129.422 28.3528 133.699 31.9029C137.013 34.647 149.533 38.0538 164.559 35.4241C175.72 33.4718 181.14 33.705 191 31.0226L176.56 36.9168C154.693 45.8599 134.112 57.6999 115.374 72.129L94 88.5869L120.479 50.8103C117.172 50.8104 109.234 52.672 103.944 47.6336C97.3362 41.3309 120.466 3.55209 130.385 0.403296Z" fill="#38383A"/>
</svg>
