<svg width="284" height="284" viewBox="0 0 284 284" fill="none" xmlns="http://www.w3.org/2000/svg">
<path d="M199.636 71.5674C248.045 63.0168 242.361 98.8928 231.683 117.91C233.51 113.852 229.66 100.359 213.869 92.9609C198.066 85.5585 172.862 126.722 160.456 146.445C167.574 150.009 176.25 149.46 185.372 150.001C195.295 150.59 206.747 150.001 213.869 150.001C229.762 150.001 230.208 156.905 231.683 167.839C231.682 185.663 224.293 205.708 188.953 224.878C120.587 261.959 71.4438 239.129 50.0795 207.04C42.9641 192.779 44.9096 173.515 46.5287 160.697C49.8131 134.717 67.0279 117.981 82.1272 103.658L85.6781 110.799C64.3642 130.723 58.711 150.588 60.3107 167.115C62.9715 194.576 91.3071 210.563 118.478 215.146C174.737 224.629 198.282 194.593 203.186 174.95C183.58 181.879 159.152 177.731 149.774 174.95C136 170.862 138.758 164.451 139.091 157.142C139.519 147.717 141.551 136.535 146.223 125.051C149.615 116.711 158.143 108.206 164.007 100.102C172.46 88.4156 181.351 74.7984 199.636 71.5674ZM137.135 40.3206C142.896 38.4243 158.87 45.4004 163.736 49.1493C159.323 49.2022 142.756 46.3062 137.255 49.1794C130.741 52.601 136.696 60.6222 139.843 63.1606C142.283 65.1222 151.431 67.4982 162.352 65.4506C170.464 63.9302 174.421 64.0248 181.581 61.9854L173.696 65.3301C156.131 72.752 139.631 82.4824 124.647 94.2868L111.437 104.682L130.364 77.0212C127.953 77.054 122.194 78.4841 118.298 74.8819C113.423 70.37 129.938 42.6985 137.135 40.3206Z" fill="#38383A"/>
</svg>
