<svg width="284" height="284" viewBox="0 0 284 284" fill="none" xmlns="http://www.w3.org/2000/svg">
<path d="M66.2239 52.5206C85.8355 45.0549 171.578 51.1759 211.988 55.1773C214.028 59.1747 213.864 69.498 196.925 78.7616C129.497 91.1395 11.8568 130.869 80.7432 190.828C87.3494 199.345 128.65 214.082 241 204.816C230.287 222.872 183.236 252.151 80.7432 224.903C65.0765 217.636 36.9937 192.73 49.9916 151.304C62.2923 112.116 89.8151 91.1688 104.072 84.5086C105.501 83.8369 106.607 82.6169 107.009 81.093C107.814 78.035 105.584 75.0174 102.414 74.9393C81.5151 74.4256 47.8666 76.2408 43.031 87.1653C42.5931 78.7175 46.6268 59.9857 66.2239 52.5206ZM168.403 134.144C172.368 134.236 174.978 138.306 173.379 141.924L164.162 162.635C163.085 165.061 160.448 166.391 157.854 165.807L132.458 160.087C129.23 159.359 127.339 155.998 128.407 152.876L133.791 137.235C134.579 134.958 136.759 133.446 139.174 133.494L168.403 134.144Z" fill="#38383A"/>
</svg>
