<svg width="284" height="284" viewBox="0 0 284 284" fill="none" xmlns="http://www.w3.org/2000/svg">
<path d="M125.152 79.361C149.621 53.5347 199.937 71.0122 222.029 82.986C236.272 84.6845 267.428 88.4873 278.108 90.0407C288.776 91.6003 282.558 107.026 278.108 114.551L220.077 122.331C139.682 138.361 108.568 161.204 103.066 170.626C91.7324 190.289 60.8694 226.896 28.0518 216.022C-12.9713 202.428 -0.23113 141.971 11.7383 125.761C21.3111 112.798 24.4966 116.827 24.9006 120.463L16.3395 164.882C14.9732 170.756 17.2921 184.107 37.4495 190.675C57.632 197.246 83.0247 167.62 93.1942 151.972C127.922 118.185 177.013 103.667 194 103.5C148.83 86.3715 124.76 94.4551 121.61 102.282C113.156 111.085 120.445 90.6747 125.152 79.361ZM219.686 147.231C223.761 147.32 226.439 151.535 224.79 155.262L215.364 176.566C214.26 179.056 211.552 180.424 208.894 179.828L182.849 173.945C179.534 173.195 177.59 169.714 178.694 166.5L184.215 150.438C185.022 148.09 187.254 146.538 189.737 146.59L219.686 147.231Z" fill="#38383A"/>
</svg>
