<svg width="284" height="284" viewBox="0 0 284 284" fill="none" xmlns="http://www.w3.org/2000/svg">
<path d="M242.202 165.125C245.282 165.193 247.306 168.395 246.059 171.227L238.936 187.414C238.1 189.308 236.036 190.35 234.025 189.893L214.341 185.401C211.839 184.83 210.388 182.206 211.222 179.765L215.395 167.562C216.005 165.776 217.69 164.597 219.568 164.638L242.202 165.125ZM21.2944 102.707C-13.4707 150.565 44.3655 146.406 89.2823 147.518C125.21 148.409 134.211 132.495 134.214 124.424H140.811C139.795 125.537 140.495 130.043 151.453 139.17C165.152 150.579 213.538 140.29 217.123 139.17C219.962 138.281 219.654 136.404 219.146 135.569C200.063 117.761 183.284 129.652 175.079 134.382C165.928 88.2026 257.281 124.931 275.817 133.005C290.637 139.46 281.992 146.828 275.817 149.701C170.263 164.724 148.481 167.413 138.787 147.518C136.897 143.636 135.066 144.185 134.214 145.018C126.979 156.141 108.349 163.363 99.9462 165.591C67.6277 169.301 2.45246 169.217 0.219445 139.17C-2.01319 109.123 13.3406 102.339 21.2944 102.707ZM97.3119 93.0668L119.588 97.1136C122.616 97.6625 124.116 101.124 122.454 103.724L112.907 118.598C111.789 120.338 109.596 121.057 107.681 120.293L88.924 112.771C88.4802 112.591 88.0877 112.324 87.7438 112.029L83.0863 120.907C82.2053 122.571 80.3589 123.466 78.513 123.132L56.2157 119.106C53.1966 118.546 51.703 115.071 53.3705 112.474L62.9175 97.6009C64.0349 95.8646 66.2318 95.1671 68.1441 95.9271L86.8798 103.427C87.316 103.602 87.7195 103.862 88.06 104.148L92.7386 95.3127C93.6175 93.6502 95.4686 92.7371 97.3119 93.0668Z" fill="#38383A"/>
</svg>
