<svg width="284" height="284" viewBox="0 0 284 284" fill="none" xmlns="http://www.w3.org/2000/svg">
<path d="M223.833 178.025C227.43 178.106 229.793 181.816 228.344 185.114L219.988 203.985C219.012 206.196 216.622 207.408 214.269 206.875L191.246 201.663C188.317 200.999 186.623 197.939 187.598 195.093L192.454 180.865C193.167 178.784 195.163 177.384 197.359 177.432L223.833 178.025ZM101.988 125.067C124.838 165.253 202.216 149.842 211.977 148.063C219.748 146.647 216.891 142.339 214.491 140.357C183.319 118.726 156.701 128.369 147.27 135.911C127.188 113.047 190.976 94.215 203.078 107.752C212.763 118.581 249.912 129.552 267.267 133.688C293.37 137.299 283.207 151.92 274.859 158.783L210.399 164.143C197.114 174.068 170.159 177.683 158.338 178.247C116.402 174.299 99.5207 158.782 97.5506 150.039C95.9739 143.049 90.8738 149.761 88.5286 153.991C58.1339 198.207 23.1483 183.138 9.45091 170.071C5.04339 162.175 -2.80567 140.853 1.02056 118.744C4.84777 96.636 8.2325 99.7482 9.45091 104.072C4.72366 150.313 30.1698 159.812 43.4928 158.783C90.9986 155.399 85.0683 120.9 76.1542 104.072C76.3419 97.4903 76.6045 83.5884 76.1542 80.6557C75.7127 77.7292 79.8932 76.9997 82.0456 77L101.988 125.067Z" fill="#38383A"/>
</svg>
