<svg width="11" height="11" viewBox="0 0 11 11" fill="none" xmlns="http://www.w3.org/2000/svg">
<path d="M5.2041 9.65674C5.56252 9.69471 6.04135 9.72366 6.13672 10.2202C6.06057 10.6032 6.02596 10.9992 5.54688 10.9644C5.16299 10.9359 4.63356 10.9893 4.66211 10.3911C4.678 10.0905 4.73504 9.60322 5.2041 9.65674ZM8.27051 0.942871C8.44349 0.923892 8.61832 0.954967 8.77441 1.03174C8.8005 1.04741 8.8233 1.06842 8.84082 1.09326C8.85828 1.11806 8.87002 1.14655 8.87598 1.17627C8.8819 1.20599 8.88158 1.23653 8.875 1.26611C8.8684 1.29574 8.85592 1.32369 8.83789 1.34814C8.77445 1.43991 8.65719 1.56292 8.56836 1.56299C8.30191 1.56299 8.02252 1.41771 7.72754 1.68018C8.15585 2.12331 8.63175 1.84163 9.05371 1.86377C9.47568 1.88593 10.1326 1.74088 10.2373 2.34229C10.3418 2.94348 9.79296 3.13932 9.30762 3.20264C8.62233 3.29443 8.73351 3.59222 9.0127 4.01318C9.45051 4.66837 9.89102 5.32389 10.2812 6.00439C10.5789 6.53097 10.7166 7.13255 10.6777 7.73584C10.6397 8.44157 10.4528 9.0806 9.70117 9.30225C9.36686 9.41987 9.00149 9.41792 8.66895 9.29541C8.33637 9.17287 8.05732 8.93756 7.87988 8.63135C7.52461 8.05859 7.38499 8.17916 6.87109 8.5083C6.16195 8.98814 5.34649 9.28871 4.49512 9.38525C3.64356 9.48173 2.78053 9.37105 1.98145 9.06201C0.734822 8.59984 0.566532 7.47935 0.794922 6.29248C1.28012 6.36525 0.881224 6.84577 1.15332 7.03271C1.66095 7.82403 2.4227 8.11558 3.33008 8.15674C5.14805 8.24537 6.64286 7.77669 7.45508 6.80811C7.81039 7.23541 8.05441 7.75825 8.59375 8.0083C9.13303 8.25828 9.59295 8.26393 9.98633 7.8335C10.3795 7.40309 9.98649 7.08664 9.80566 6.729C9.28851 5.67194 8.21979 4.90599 8.13086 3.61475C8.10865 3.32354 7.81291 3.40869 7.59082 3.40869C6.8707 3.4087 6.141 3.45279 5.37012 3.16162C6.08395 2.73121 6.81741 2.92492 7.50586 2.87744C8.27489 2.85054 9.03893 2.74354 9.78613 2.56006C9.03466 2.34827 8.4986 2.50939 7.97852 2.49365C7.66124 2.49365 7.31858 2.46838 7.25195 2.06006C7.18552 1.65198 7.47342 1.36382 7.79688 1.13916C7.93254 1.03017 8.09738 0.961938 8.27051 0.942871Z" fill="#38383A"/>
</svg>
