<svg width="11" height="11" viewBox="0 0 11 11" fill="none" xmlns="http://www.w3.org/2000/svg">
<path d="M0.427173 6.83078C0.265364 8.20452 0.585809 8.71097 1.83586 8.91039C3.64693 9.21512 5.5042 9.09593 7.26121 8.5622C8.17495 8.28049 8.23523 8.0969 7.61655 7.33723C6.99787 6.57756 6.30623 5.8812 5.66216 5.14368C5.0181 4.40617 4.9705 3.33946 5.69388 2.68108C6.96297 1.53208 8.57154 0.955989 10.1357 0.0253906C10.0722 1.20605 9.14898 1.63969 8.83171 2.45001C8.62548 2.30757 8.78728 1.77896 8.30503 2.07967C7.58482 2.53547 6.83606 2.94379 6.08412 3.37427C5.69705 3.60217 5.76686 3.85541 6.03972 4.13395C6.62667 4.76701 7.21045 5.37475 7.77836 6.01097C8.18388 6.45999 8.42246 7.03437 8.45416 7.63793C8.54617 8.98002 8.21938 9.50546 6.92808 9.85364C5.17039 10.3094 3.3778 10.5373 1.58838 10.0531C0.071819 9.63207 -0.419944 8.38811 0.427173 6.83078Z" fill="#38383A"/>
</svg>
