<svg width="8" height="10" viewBox="0 0 8 10" fill="none" xmlns="http://www.w3.org/2000/svg">
<path d="M0.719808 1.94035C0.608764 0.528647 1.1671 0.193011 2.50594 0.892495C1.28465 0.845108 1.14173 1.50654 1.25594 2.40226C1.36379 3.23776 1.40492 4.0796 1.48739 5.04484C3.46082 3.44003 5.33632 1.87975 7.61434 0.594644C7.47157 1.54423 7.04293 2.17724 6.70028 2.83878C6.51029 2.73394 6.70038 2.08265 6.1866 2.46867L2.59188 5.14933C3.41027 5.43415 3.99402 5.58612 4.53328 5.83292C5.53897 6.29186 5.80294 6.87142 5.64754 7.96964C5.51112 8.91923 4.75885 9.10314 4.00692 9.26457C3.69366 9.33114 3.37485 9.3704 3.05477 9.38175C1.82396 9.4323 1.17998 8.92205 1.11336 7.69718C1.00762 5.77507 0.876302 3.85613 0.719808 1.94035ZM1.95125 6.44132C1.62785 6.37817 1.50789 6.54578 1.50789 6.86222C1.48893 7.69142 2.0627 8.14748 3.35067 8.10636C3.56633 8.06206 4.00403 8.01115 4.42586 7.93839C4.61623 7.90674 4.81065 7.86871 4.8741 7.65031C4.9375 7.43198 4.71534 7.32388 4.55672 7.23527C3.75085 6.77947 2.84596 6.62175 1.95125 6.44132Z" fill="#38383A"/>
</svg>
