<svg width="13" height="10" viewBox="0 0 13 10" fill="none" xmlns="http://www.w3.org/2000/svg">
<path d="M2.4104 0.737615C1.2587 0.696466 1.09688 1.18393 1.18254 1.9436C1.34435 3.41547 1.44589 4.89366 1.5728 6.37502C1.65212 7.32461 2.20734 7.85321 3.0957 8.06845C3.21711 8.10334 3.3413 8.1277 3.46691 8.14125C6.08757 8.347 8.68922 8.12226 11.4527 7.97982C11.263 7.75661 11.0209 7.58373 10.748 7.47658C10.475 7.36943 10.1798 7.33135 9.88849 7.36575C8.6194 7.36575 7.35032 7.45438 6.08123 7.42589C4.81214 7.39741 4.56467 6.91945 5.03423 5.77677C5.23854 5.24356 5.55118 4.75826 5.95249 4.35136C6.3538 3.94445 6.83511 3.62474 7.36619 3.4123C7.68347 3.28885 8.06418 3.18756 8.34656 3.48826C8.50519 3.65919 8.39415 3.90925 8.34656 4.12132C8.26089 4.55813 7.93727 4.4885 7.61048 4.49483C6.77288 4.51382 6.24938 5.09623 5.70685 5.62484C5.38958 5.94137 5.68464 6.04582 5.92894 6.1123C6.67177 6.27833 7.44113 6.28803 8.18792 6.14078C8.97276 6.03019 9.76675 5.99839 10.558 6.04583C11.5986 6.09964 12.1094 6.5586 12.0777 7.34676C12.0301 8.52742 11.4431 9.21429 10.4279 9.24594L4.64399 9.45169C4.07495 9.45454 3.50714 9.39831 2.94975 9.28392C2.48695 9.23553 2.05627 9.02528 1.73397 8.69042C1.41168 8.35555 1.21858 7.91768 1.18889 7.45438C0.96363 5.51089 0.703468 3.56423 0.773268 1.60175C0.836722 0.579354 0.897015 0.148869 2.4104 0.737615Z" fill="#38383A"/>
</svg>
