<svg width="9" height="10" viewBox="0 0 9 10" fill="none" xmlns="http://www.w3.org/2000/svg">
<path d="M8.05371 0.867188C8.47882 1.63311 9.05263 2.22805 8.64355 3.25977C8.32633 4.03199 8.67891 4.94063 8.75195 5.79199C8.97087 8.32423 8.58018 8.86889 6.06738 9.41016C4.35364 9.77655 2.5753 9.71262 0.892578 9.22363L0.864258 8.96387C1.39078 8.89742 1.91417 8.82501 2.4502 8.76172C2.98637 8.69842 3.57688 8.62193 4.1416 8.57129C5.33313 8.43547 6.5096 8.18792 7.6543 7.83105C8.19023 7.67594 8.38006 7.40032 8.28809 6.7959C8.0533 5.1816 7.90155 3.55446 7.7207 1.93066C7.69404 1.73986 7.70998 1.54521 7.76758 1.36133C7.82519 1.17757 7.92296 1.00882 8.05371 0.867188ZM4.98535 3.61719C5.39433 3.66147 5.39413 3.98151 5.33398 4.33887C5.27371 4.69648 5.62015 4.55756 5.79785 4.59863C6.11496 4.67773 6.41603 4.77375 6.41309 5.18164C6.41573 5.34187 6.36409 5.49863 6.2666 5.62598C6.16876 5.75345 6.03005 5.84448 5.87402 5.88379C4.74136 6.21931 3.60214 6.0927 2.45996 5.88379C3.4593 5.42497 4.55714 5.61763 5.71191 5.42773C5.3156 5.0675 5.00439 5.21267 4.71582 5.22852C4.42711 5.24434 4.01413 5.41251 3.88086 5.03906C3.8264 4.87309 3.83955 4.69178 3.91699 4.53516C3.99439 4.37909 4.18054 4.09303 4.18262 4.08984L4.2998 3.94531C4.33781 3.86723 4.43499 3.82322 4.50098 3.7666C4.56698 3.71 4.64439 3.66726 4.72754 3.6416C4.81074 3.61597 4.89881 3.60759 4.98535 3.61719ZM4.91602 4.36426C4.81286 3.88855 4.36524 4.23461 4.35059 4.24609C4.26497 4.60052 4.33537 4.72814 4.7002 4.68066C4.7369 4.67805 4.77278 4.66769 4.80469 4.64941C4.83649 4.63112 4.86407 4.60544 4.88477 4.5752C4.90542 4.5448 4.91946 4.50899 4.9248 4.47266C4.92999 4.43649 4.92704 4.3991 4.91602 4.36426Z" fill="#38383A"/>
</svg>
