<svg width="13" height="12" viewBox="0 0 13 12" fill="none" xmlns="http://www.w3.org/2000/svg">
<path d="M5.11816 9.87207C5.50206 9.93209 6.10129 9.85361 6.12988 10.4199C6.15526 10.8598 5.90144 11.2779 5.3623 11.2148C4.8864 11.237 4.51149 11.1383 4.55273 10.6318C4.57808 10.3153 4.53452 9.77713 5.11816 9.87207ZM12.916 0.607422C12.9313 0.860028 12.8705 1.11141 12.7412 1.3291C12.6117 1.54691 12.4191 1.7213 12.1895 1.8291C11.4883 2.1931 10.8413 2.65867 10.1338 3.00684C9.42636 3.35498 9.45188 3.77882 9.78809 4.37695C10.3782 5.41834 11.0225 6.44451 11.0986 7.68848C11.1683 8.86262 10.7806 9.58697 9.9209 9.7832C8.90892 10.011 8.42953 9.34354 8.04883 8.55859C8.00504 8.48204 7.95577 8.40851 7.90039 8.33984C7.16749 8.89116 6.32242 9.27639 5.4248 9.46777C4.5271 9.65914 3.59795 9.6526 2.70312 9.44824C2.30984 9.3949 1.93912 9.23325 1.63281 8.98145C1.3264 8.72944 1.0963 8.39667 0.96875 8.02148C0.84124 7.64642 0.82075 7.24329 0.910156 6.85742C0.999656 6.47149 1.19588 6.11807 1.47559 5.83691C1.58626 5.93497 1.56098 6.04878 1.5166 6.16895C1.11372 7.26724 1.34247 7.81457 2.46875 8.12793C4.11209 8.58365 5.74598 8.49874 7.22754 7.62207C7.78911 7.28971 8.11314 7.1155 8.4209 7.84668C8.56502 8.09956 8.78315 8.30257 9.0459 8.42871C9.2505 8.55164 9.49036 8.60327 9.72754 8.5752C9.96471 8.54707 10.1854 8.44076 10.3555 8.27344C10.7933 7.92525 10.6481 7.56441 10.4482 7.18457C10.0961 6.51673 9.71789 5.85824 9.38477 5.17773C8.6775 3.73773 8.97277 2.73458 10.3369 1.93066C11.1269 1.4654 11.9008 0.882823 12.916 0.607422Z" fill="#38383A"/>
</svg>
