<svg width="284" height="284" viewBox="0 0 284 284" fill="none" xmlns="http://www.w3.org/2000/svg">
<path d="M119.156 102.297C139.94 79.2386 190.831 99.797 209.594 110.487C221.692 112.004 248.122 115.373 257.201 116.76C266.273 118.147 262.911 137.202 259.131 143.92L209.594 150.667C141.304 164.978 113.215 180.294 108.541 188.706C98.9152 206.26 72.7015 238.942 44.8264 229.234C9.98287 217.097 20.8035 163.123 30.97 148.65C39.1005 137.078 41.8109 140.675 42.1541 143.92L34.8794 183.577C33.7179 188.821 35.6877 200.742 52.8185 206.605C69.9607 212.471 91.5151 186.022 100.153 172.051C129.658 141.879 172.261 130.647 186.681 130.502C148.308 115.205 118.813 115.772 116.137 122.76C108.956 130.621 115.159 112.397 119.156 102.297ZM98.0003 89.2768C101.616 89.3559 103.992 93.1193 102.528 96.4464L94.1651 115.466C93.186 117.69 90.7831 118.911 88.4246 118.379L65.3141 113.126C62.3728 112.456 60.6479 109.348 61.6273 106.479L66.5265 92.1397C67.2429 90.0438 69.2234 88.6575 71.4257 88.7042L98.0003 89.2768ZM212.959 54.5737C216.575 54.6528 218.951 58.4162 217.487 61.7434L209.124 80.7628C208.145 82.987 205.742 84.2075 203.383 83.6755L180.273 78.4227C177.332 77.7534 175.607 74.6454 176.586 71.7759L181.485 57.4366C182.202 55.3407 184.182 53.9544 186.384 54.0011L212.959 54.5737Z" fill="#38383A"/>
</svg>
