<svg width="284" height="284" viewBox="0 0 284 284" fill="none" xmlns="http://www.w3.org/2000/svg">
<path d="M76.1747 83.1391C93.211 76.6353 167.694 81.9913 202.798 85.4771C204.566 88.9638 204.412 97.9351 189.713 105.999C131.139 116.783 28.9469 151.417 88.7874 203.652C94.5374 211.072 130.423 223.885 228 215.814C218.7 231.543 177.83 257.076 88.7874 233.337C75.178 227.006 50.7829 205.309 62.0739 169.22C72.7581 135.076 96.6671 116.832 109.053 111.03C110.294 110.446 111.253 109.38 111.604 108.054C112.305 105.39 110.367 102.738 107.612 102.67C89.4552 102.222 60.2213 103.824 56.0274 113.344C55.6439 105.988 59.1407 89.6437 76.1747 83.1391ZM163.283 42.7793L150.741 71.095L119.54 64.0574L127.122 42L163.283 42.7793Z" fill="#38383A"/>
</svg>
