<svg width="284" height="284" viewBox="0 0 284 284" fill="none" xmlns="http://www.w3.org/2000/svg">
<path d="M101.987 155.958C124.827 195.868 202.201 180.585 211.975 178.816C219.74 177.411 216.912 173.11 214.513 171.139C183.333 149.654 148.661 163.649 139.233 171.139C125.481 143.837 185.391 133.334 200.882 142.886C213.218 150.491 249.909 160.411 267.264 164.518C293.374 168.104 283.205 182.647 274.856 189.46L210.397 194.782C197.11 204.634 170.155 208.202 158.336 208.762C116.414 204.843 99.5286 189.46 97.5497 180.778C95.9736 173.833 90.8732 180.502 88.5279 184.702C58.1334 228.597 23.1461 213.617 9.451 200.644C5.04249 192.797 -2.80572 171.627 1.02073 149.679C4.84776 127.735 8.23319 130.843 9.451 135.136C4.7285 181.04 30.1701 190.481 43.4925 189.46C90.9899 186.101 85.065 151.848 76.1536 135.136C76.3412 128.604 76.6033 114.804 76.1536 111.885C75.7033 108.973 79.8906 108.255 82.0449 108.256L101.987 155.958ZM206.256 99.6226C209.852 99.7024 212.215 103.387 210.767 106.661L202.435 125.399C201.459 127.594 199.045 128.798 196.692 128.269L173.669 123.094C170.74 122.433 169.045 119.396 170.02 116.57L174.876 102.443C175.59 100.376 177.586 98.9865 179.782 99.034L206.256 99.6226ZM78.0517 71.5898C81.6483 71.6695 84.0113 75.3541 82.5626 78.6287L74.2309 97.3663C73.2546 99.5612 70.8405 100.765 68.4875 100.236L45.4645 95.0609C42.5358 94.4005 40.8412 91.3632 41.8163 88.537L46.6723 74.4102C47.3857 72.3432 49.3816 70.9537 51.5777 71.0012L78.0517 71.5898Z" fill="#38383A"/>
</svg>
