<svg width="284" height="284" viewBox="0 0 284 284" fill="none" xmlns="http://www.w3.org/2000/svg">
<path d="M113.286 176.071C116.642 176.144 118.846 179.594 117.493 182.66L109.722 200.198C108.812 202.252 106.56 203.379 104.366 202.884L82.8921 198.04C80.1623 197.421 78.5809 194.578 79.4895 191.934L84.0417 178.711C84.7071 176.777 86.5456 175.476 88.5938 175.52L113.286 176.071ZM23.277 100.179C-14.7507 152.033 48.5433 147.525 97.6752 148.731C136.962 149.693 146.8 132.454 146.807 123.709H154.026C152.915 124.915 153.69 129.794 165.682 139.686C180.678 152.044 223.412 144.795 227.297 143.589C230.402 142.624 230.061 140.589 229.504 139.686C208.631 120.394 185.462 125.815 176.488 130.94C166.48 80.9058 254.783 130.942 275.049 139.686C291.26 146.681 281.804 154.663 275.049 157.776C159.607 174.051 154.006 154.161 151.796 148.731C150.033 144.402 147.743 145.099 146.807 145.999C138.894 158.052 118.523 165.898 109.332 168.312C73.9836 172.333 2.6866 172.24 0.240238 139.686C-2.20173 107.14 14.5745 99.7855 23.277 100.179ZM245.414 80.552C248.77 80.6249 250.974 84.0744 249.621 87.1404L241.85 104.679C240.94 106.733 238.688 107.86 236.494 107.364L215.02 102.521C212.29 101.902 210.709 99.0588 211.618 96.4145L216.17 83.192C216.835 81.2572 218.674 79.9566 220.722 80.0011L245.414 80.552Z" fill="#38383A"/>
</svg>
