<svg width="8" height="13" viewBox="0 0 8 13" fill="none" xmlns="http://www.w3.org/2000/svg">
<path d="M3.63768 0.894692C3.83433 0.578169 3.99682 0.123086 4.47264 0.335121C4.66683 0.408778 4.8274 0.550923 4.92381 0.734535C5.02017 0.918203 5.04605 1.13096 4.99607 1.33219C4.95814 1.50611 5.0306 1.71154 4.8535 1.85075C3.851 1.2937 3.73905 1.34444 3.39646 2.52164C3.31832 2.95829 3.18603 3.38407 3.00291 3.78825C2.61288 4.44325 2.85795 4.61731 3.48924 4.60465C3.96184 4.60461 4.44095 4.53875 4.90721 4.54508C5.22449 4.54498 5.71582 4.2917 5.75389 4.81071C5.78875 5.25059 5.6589 5.72497 5.00877 5.82633C4.10236 5.98732 3.24456 6.35375 2.50193 6.89665C1.63906 7.5012 1.12191 8.27375 1.36619 9.38786C1.36519 9.38773 1.36426 9.38701 1.36326 9.38688L1.36424 9.38786C2.17639 10.6854 3.48308 10.9701 4.8535 11.0714C5.55784 11.1221 6.26931 11.0714 7.10057 11.0714C5.86955 12.2394 3.18463 12.4808 1.99803 11.6261C0.951171 10.8792 0.713836 9.84391 1.02146 8.63493L1.02049 8.63395C1.23303 7.45355 1.39479 7.16531 2.5908 5.88981C2.14044 5.63994 1.67422 5.76911 1.22068 5.76286C0.947936 5.76286 0.586266 5.82018 0.46873 5.50407C0.425942 5.34961 0.429955 5.18516 0.481426 5.03336C0.532885 4.88182 0.629059 4.74923 0.756816 4.6525C1.08248 4.35454 1.45601 4.11231 1.86131 3.93668C2.18808 3.817 2.47478 3.6083 2.68846 3.33414C2.90212 3.05996 3.03458 2.73137 3.07029 2.3859C3.16228 1.85732 3.35455 1.3508 3.63768 0.894692Z" fill="#38383A"/>
</svg>
