<svg width="7" height="11" viewBox="0 0 7 11" fill="none" xmlns="http://www.w3.org/2000/svg">
<path d="M5.85938 0.5625C6.19886 1.2557 6.75429 1.80088 6.46875 2.74414C6.20553 3.61454 6.60528 4.54815 6.73535 5.4502C6.87885 6.41389 6.7962 7.39773 6.49414 8.32422C5.9516 10.062 2.98134 11.0428 1.27441 9.27344C1.02245 9.03432 0.839001 8.73223 0.744141 8.39844C0.722156 8.32103 0.705487 8.24211 0.693359 8.16309L0.69043 8.1748C0.618664 7.73793 0.691535 6.48104 0.814453 6.05566C0.937357 5.63038 1.15349 5.23791 1.44727 4.90625C1.35831 5.90307 0.837693 6.5772 0.929688 7.36523L0.928711 7.36621C1.94093 9.13507 4.01272 9.56455 5.62109 8.31445C6.37937 7.73204 6.57343 6.9409 6.40527 6.0293C6.16415 4.63028 5.93628 3.23023 5.72266 1.8291C5.62917 1.4035 5.67734 0.958549 5.85938 0.5625Z" fill="#38383A"/>
</svg>
