<svg width="7" height="9" viewBox="0 0 7 9" fill="none" xmlns="http://www.w3.org/2000/svg">
<path d="M5.66797 0.0380859C5.83649 0.16222 5.96752 0.330604 6.0459 0.524414C6.12431 0.718317 6.1464 0.93058 6.11133 1.13672C5.90206 2.61467 6.34912 4.06729 6.11133 5.56738C5.87337 7.06773 5.02004 7.92896 3.6748 8.38477C2.78981 8.64982 1.86647 8.76454 0.943359 8.72363C1.65393 8.04322 2.59611 7.86923 3.43359 7.49902C5.11514 6.75518 5.99158 5.87473 5.65527 3.96289C5.47763 2.94053 5.6962 1.88341 5.48047 0.851562C5.44087 0.711179 5.43702 0.563038 5.46973 0.420898C5.50244 0.278779 5.57097 0.147167 5.66797 0.0380859ZM1.03223 0.625977C1.17481 0.36721 1.34906 0.445954 1.48535 0.572266C3.00826 2.08528 4.92799 3.32649 4.96289 5.80176C4.39497 4.70975 3.53559 3.87044 2.72656 3C2.49824 2.75318 2.33606 2.4149 1.80664 2.52539C1.37515 2.61718 0.787927 1.07861 1.03223 0.625977Z" fill="#38383A"/>
</svg>
