<svg width="4" height="8" viewBox="0 0 4 8" fill="none" xmlns="http://www.w3.org/2000/svg">
<path d="M3.27051 0.771484C3.19119 2.61364 3.74336 4.45934 3.14062 6.29199C3.06496 6.56276 2.9584 6.82465 2.82324 7.07129C2.14111 8.19455 1.1199 8.26058 0.152344 7.25098C0.145478 7.23842 0.141602 7.22426 0.141602 7.20996C0.14164 7.19565 0.145438 7.18149 0.152344 7.16895C0.152468 7.14369 0.200237 7.1315 0.225586 7.10938C0.230373 7.10689 0.235409 7.10494 0.240234 7.10254H0.208984C0.95766 6.8303 0.986566 6.18139 0.970703 5.55469C0.901825 4.29553 0.959615 3.03262 1.14453 1.78516C1.19528 1.51617 1.14509 1.20638 1.63965 1.04492C1.18499 3.0256 1.7868 5.01809 1.12695 6.91895L1.05957 7.10254L1.31738 7.06836C2.54787 6.8752 2.93968 6.35264 2.9248 5.03223C2.90891 3.62374 2.57889 2.15781 3.27051 0.771484Z" fill="#38383A"/>
</svg>
