<svg width="9" height="10" viewBox="0 0 9 10" fill="none" xmlns="http://www.w3.org/2000/svg">
<path d="M1.11247 0.934082C2.29583 2.25077 3.43493 3.46687 4.51677 4.73291C4.90067 5.18238 5.04717 5.1285 5.41521 4.70752C6.30037 3.70732 7.19206 2.69774 8.4611 2.06787C7.706 2.96049 6.96987 3.86905 6.19255 4.74268C5.68178 5.31873 5.41533 5.8475 5.71989 6.68311C5.87259 7.03414 5.9234 7.42076 5.86735 7.79932C5.81129 8.178 5.65055 8.53363 5.40251 8.82568C5.26413 8.97758 5.08582 9.0881 4.88786 9.14404C4.68991 9.19999 4.48007 9.19901 4.28239 9.14209C4.09379 9.10418 3.92332 9.00453 3.79802 8.85889C3.67274 8.71326 3.59997 8.53007 3.59099 8.33838C3.52511 7.99757 3.52764 7.64708 3.59782 7.30713C3.66805 6.96713 3.80458 6.64405 4.00017 6.35693C4.18729 6.08482 4.26315 5.9139 4.00017 5.64502C3.36562 5.01196 2.861 4.24215 2.14079 3.77686C1.69664 3.48887 1.16997 3.39397 0.890792 2.84326C0.611593 2.2925 0.525518 1.80137 1.11247 0.934082ZM4.74333 6.66455C4.45464 6.88792 4.25676 7.20802 4.18767 7.56592C4.10518 7.87295 4.32447 7.99651 4.5529 7.97119C4.91766 7.93633 5.26671 7.74023 5.26677 7.33838C5.26263 7.18509 5.20953 7.03675 5.1154 6.91553C5.02135 6.79446 4.89088 6.70689 4.74333 6.66455Z" fill="#38383A"/>
</svg>
