<svg width="284" height="284" viewBox="0 0 284 284" fill="none" xmlns="http://www.w3.org/2000/svg">
<path d="M230.519 110.122C224.057 78.2557 232.316 54.4038 237.995 65.9613L241.175 82.6335C241.891 83.352 243.393 86.3302 243.677 92.5556C244.032 100.354 257.889 190.744 226.25 200.316C217.601 202.442 195.044 201.732 173.999 181.881C171.567 180.405 166.062 179.345 163.506 186.842C160.288 196.218 128.838 211.842 91.164 186.842C83.6391 196.066 62.7137 215.792 39.2118 221C36.8411 220.111 34.3616 217.164 43.3712 212.433C52.3926 207.699 74.8411 188.755 84.9384 179.875C83.2566 160.736 87.4341 123.693 117.589 128.665C147.742 133.638 167.76 152.444 173.999 161.224L194.742 174.534C206.772 179.566 231.878 185.005 236.01 166.537C236.338 158.344 235.688 135.609 230.519 110.122ZM149.287 165.887C131.85 157.368 97.4965 144.762 99.6188 162.471C101.744 180.177 135.374 181.068 151.924 179.306C164.19 177.405 155.283 169.573 149.287 165.887Z" fill="#38383A"/>
</svg>
