<svg width="6" height="9" viewBox="0 0 6 9" fill="none" xmlns="http://www.w3.org/2000/svg">
<path d="M5.59559 0.26123C5.70652 1.19485 5.45876 2.10043 5.21766 2.98975C4.89816 3.94527 4.91966 4.9817 5.27821 5.92334C5.86512 7.38877 5.51008 7.89258 4.00966 8.25342C3.48707 8.35227 2.95328 8.38313 2.42274 8.34521C2.13086 8.34524 1.71888 8.40785 1.70302 7.9458C1.70299 7.58504 1.65526 7.16429 2.14052 6.99658C2.35093 6.93111 2.55446 6.84392 2.74696 6.73682C4.18056 5.92979 4.33287 5.1004 3.15614 4.01807C2.5914 3.49263 2.21954 2.72934 1.28993 2.58057C1.00452 2.53263 0.741729 1.91891 0.60536 1.51709C0.503887 1.22592 0.443168 0.751497 0.791883 0.567871C1.0806 0.422267 1.25532 0.818383 1.42665 1.0083C2.31178 1.90398 3.3303 2.67932 4.09169 3.68896C4.46604 4.18268 4.66252 3.92587 4.74501 3.51123C4.96707 2.40979 5.15159 1.29528 5.35145 0.193848L5.59559 0.26123ZM4.45399 5.69287C4.18195 6.07481 3.98367 6.50388 3.87001 6.9585C4.27287 7.1072 4.69746 7.10704 4.87196 6.73682C5.04638 6.36665 4.77108 5.9935 4.45399 5.69287Z" fill="#38383A"/>
</svg>
