<svg width="284" height="284" viewBox="0 0 284 284" fill="none" xmlns="http://www.w3.org/2000/svg">
<path d="M162.95 44.0941L171.029 47.3655C186.48 54.354 197.619 63.8284 203.129 69.7668L205.419 72.4151L205.45 72.4462L206.379 75.2192C208.387 82.0398 209.047 91.5123 205.296 100.549C201.533 109.598 193.356 118.222 177.777 123.355L170.627 125.318L113.888 129.213H113.857C109.009 128.292 102.228 128.354 97.6056 131.487C95.3066 133.05 93.544 135.387 92.8077 138.747C92.0742 142.114 92.3693 146.533 94.2316 152.268L95.8412 157.877C99.3436 171.301 100.821 187.257 100.639 201.869C100.534 210.218 99.8746 218.156 98.7819 224.925C97.6898 231.68 96.1316 237.304 94.2006 241.064L94.1697 241.126C93.531 241.651 92.7407 242.029 91.941 241.998C91.1288 241.965 90.315 241.518 89.6813 240.44C89.0513 239.361 88.5676 237.632 88.3503 235.082C88.1335 232.522 88.185 229.072 88.6288 224.551C89.5129 215.537 88.0567 203.53 85.8739 192.179C83.6918 180.837 80.7987 170.139 78.7854 163.765V163.734C76.5215 154.777 74.806 140.757 77.0519 127.842C79.3036 114.924 85.5245 103.058 99.1223 98.4617H135.741V94.131C135.562 84.149 136.701 69.643 140.694 58.6441C142.689 53.1558 145.413 48.5148 149.052 45.7454C152.709 42.967 157.29 42.0828 162.95 44.0941ZM150.104 74.0975C148.686 74.5088 147.821 75.3957 147.38 76.4966C146.952 77.5825 146.915 78.8935 147.101 80.173C147.197 80.8178 147.35 81.4891 147.535 82.1047L148.185 83.8494V93.0716H148.34V93.2274H175.425C176.838 93.2273 177.857 92.9683 178.551 92.5108C179.246 92.0484 179.625 91.3805 179.758 90.6726C180.013 89.272 179.352 87.6169 178.706 86.5288H178.737L178.675 86.4977L175.394 83.8183C171.844 81.2168 166.426 77.9107 160.071 75.6553L156.171 74.4402C153.494 73.7314 151.517 73.6899 150.104 74.0975Z" fill="#38383A"/>
</svg>
