<svg width="284" height="284" viewBox="0 0 284 284" fill="none" xmlns="http://www.w3.org/2000/svg">
<path d="M142.518 127.012C147.384 103.134 167.95 61.3268 211.249 85.0483C222.382 93.7782 237.964 120.719 211.249 158.62C205.107 161.822 186.578 164.103 161.702 147.627C157.075 145.582 147.394 142.722 145.567 147.627C141.722 162.339 119.292 194.604 60.3197 206C57.905 205.096 55.2929 202.039 64.1946 197.11C75.3278 190.948 131.001 160.903 142.518 127.012ZM208.549 118.536C205.596 113.914 194.722 105.78 174.787 110.093C154.837 114.411 179.264 127.547 193.971 133.576C212.996 140.643 211.617 126.49 208.549 118.536Z" fill="#38383A"/>
</svg>
