<svg width="7" height="13" viewBox="0 0 7 13" fill="none" xmlns="http://www.w3.org/2000/svg">
<path d="M4.82893 1.67434C4.92689 1.6736 5.0241 1.69235 5.11409 1.73098C5.555 1.92086 5.32362 2.3232 5.27913 2.64602C5.25692 2.79795 5.13308 3.00674 4.98713 2.96243C4.17518 2.64613 4.03504 3.31694 3.74006 3.76321C3.34347 4.36778 2.60122 4.4189 2.10628 4.84621L3.57405 4.89309C4.06324 4.90931 4.55244 4.92883 5.04085 4.96047C5.33591 4.97946 5.84966 4.82455 5.79573 5.39114C5.75761 5.79621 5.59597 6.20125 5.05354 6.22024C4.76951 6.22923 4.48658 6.25912 4.20686 6.30911C3.55107 6.4244 2.92867 6.68292 2.3846 7.06594C1.84058 7.44896 1.38806 7.9472 1.0594 8.52493C0.517013 9.43326 0.703672 10.212 1.66487 10.8609C2.6832 11.5508 3.86682 11.585 5.03108 11.6577C5.53237 11.6894 6.03427 11.6577 6.77034 11.6577C5.46961 12.7718 4.14967 12.791 2.81721 12.6265C0.856545 12.3828 0.0823565 11.1582 0.497877 9.22121C0.704057 8.06564 1.30592 7.01712 2.201 6.25539C1.9567 5.90088 1.64916 6.10635 1.39534 6.06204C1.04008 5.99884 0.533111 6.19464 0.40608 5.74563C0.350361 5.54572 0.369943 5.3322 0.461744 5.14602C0.553608 4.9598 0.711309 4.81378 0.904127 4.73586C0.906083 4.73489 0.908026 4.7339 0.909986 4.73293C0.908024 4.73268 0.90609 4.73221 0.904127 4.73196C1.15618 4.44842 1.47479 4.23112 1.83088 4.09914C2.78254 3.64975 3.71146 3.22521 4.16194 2.15871C4.19263 2.06581 4.24285 1.98045 4.30842 1.90774C4.3741 1.83499 4.45429 1.77605 4.54378 1.73586C4.6333 1.69567 4.73076 1.67513 4.82893 1.67434ZM1.40803 1.90286C1.70308 1.94083 2.25853 1.88055 2.24592 2.43118C2.25061 2.52343 2.23662 2.61588 2.20491 2.70266C2.17309 2.78949 2.12361 2.86946 2.06038 2.93704C1.99703 3.00467 1.92056 3.0596 1.83577 3.09719C1.75101 3.13475 1.65896 3.15421 1.56624 3.15579C1.2269 3.10204 0.869002 3.08919 0.907057 2.64309C0.935596 2.32656 0.954479 1.84906 1.40803 1.90286ZM3.56819 0.64016C3.92349 0.668644 4.33617 0.747383 4.3426 1.25051C4.26647 1.63664 4.23484 2.04517 3.68928 1.98196C3.33394 1.94081 2.96567 1.87107 2.99104 1.40579C3.01007 1.04185 3.02916 0.592901 3.56819 0.64016Z" fill="#38383A"/>
</svg>
