<svg width="7" height="11" viewBox="0 0 7 11" fill="none" xmlns="http://www.w3.org/2000/svg">
<path d="M3.52539 2.22852C3.79507 2.10507 3.95708 2.42821 4.09668 2.60547C4.57206 3.20624 4.80668 3.96199 4.75391 4.72559C4.72219 5.2161 4.72498 5.55815 5.3623 5.61523C5.93974 5.66904 6.11129 6.06528 5.99707 6.64453C5.7623 7.74901 5.40372 8.75519 4.45215 9.47363C3.62734 10.1066 2.76442 10.3254 1.80957 9.86035C0.854581 9.39505 0.149891 8.61257 0.118164 7.44141C0.11819 7.07069 0.147882 6.69991 0.166992 6.32617L0.163086 6.31836C0.16955 6.01326 0.247844 5.71369 0.391602 5.44434C0.535412 5.17498 0.741044 4.94321 0.991211 4.76758C0.712062 5.58085 0.439244 6.20118 0.505859 6.88477L0.43457 6.76758C0.44139 6.81624 0.460389 6.85788 0.504883 6.88477C0.608907 7.38252 0.865625 7.83577 1.23828 8.18262C1.61091 8.52938 2.08205 8.75325 2.58691 8.82227C3.76372 9.03094 4.56016 8.34409 5.25488 7.52441C5.6134 7.10343 5.41024 6.91005 4.9375 6.87207C4.62024 6.84675 4.30261 6.84372 3.98535 6.83105C3.72526 6.8312 3.35093 6.98267 3.30957 6.55273C3.2715 6.18876 3.21785 5.71022 3.70312 5.60254C4.80708 5.37467 4.35734 4.7862 4.09082 4.20703C3.88459 3.75756 3.35401 3.48163 3.37305 2.91504C3.3729 2.67774 3.25613 2.35195 3.52539 2.22852ZM2.06641 0.623047C2.38368 0.850948 2.99926 0.734633 2.9707 1.37402C2.97061 1.75687 2.79584 2.0544 2.33594 1.96582C1.96799 1.88987 1.43489 1.96558 1.49805 1.33301C1.53612 1.02914 1.57781 0.635708 2.06641 0.623047Z" fill="#38383A"/>
</svg>
