<svg width="7" height="6" viewBox="0 0 7 6" fill="none" xmlns="http://www.w3.org/2000/svg">
<path d="M5.03516 0.0639648C5.41588 -0.20192 5.64069 0.342329 5.83105 0.630371C6.7827 2.07361 6.58936 3.74128 5.33008 5.00732C4.82717 5.49088 4.17469 5.79068 3.47949 5.85791C2.78439 5.92507 2.08655 5.75655 1.5 5.37842C-0.0734557 4.38452 -0.387397 1.82674 0.913086 0.566895C1.08751 0.81052 0.868703 0.977893 0.786133 1.16455C0.151588 2.62692 0.659693 3.84924 2.13184 4.43799C3.53735 4.9982 5.47623 4.251 5.91406 2.99756C5.96932 2.85097 5.98539 2.6923 5.96094 2.5376C5.93646 2.38296 5.87217 2.23721 5.77441 2.11475C5.56184 1.79822 5.32634 1.50674 5.10742 1.19971C4.84426 0.829367 4.79094 0.25069 5.03516 0.0639648ZM2.31836 1.62061C2.35642 1.3642 2.36646 0.864415 2.78516 0.987793C3.20396 1.11124 3.71488 1.0989 3.8291 1.56104C3.70856 2.11782 3.54026 2.46579 3.01074 2.41846C2.4809 2.37098 2.24539 2.10173 2.31836 1.62061Z" fill="#38383A"/>
</svg>
