<svg width="12" height="11" viewBox="0 0 12 11" fill="none" xmlns="http://www.w3.org/2000/svg">
<path d="M10.3696 2.67506C11.4195 3.52973 11.806 5.191 11.2193 6.34303C10.8163 7.13435 10.1916 7.36893 9.43019 6.92897C9.08119 6.72639 8.84609 6.49533 8.51613 6.92897C8.35748 7.14409 8.07508 7.11251 7.81496 7.00807C6.94576 6.66005 6.29871 6.97987 5.98781 7.89772C5.40402 9.62276 4.23953 10.6956 2.92922 10.721C0.905053 10.7589 -0.243474 9.27453 0.0737486 6.97975C0.109741 6.40558 0.332751 5.85851 0.708514 5.42214C0.933778 5.77665 0.648427 6.02734 0.565936 6.29323C0.248812 7.29961 0.429209 8.19187 1.22219 8.87233C1.57316 9.19653 2.01395 9.40808 2.48683 9.47975C2.95958 9.55136 3.443 9.48016 3.87453 9.27467C4.27252 9.08444 4.64412 8.84264 4.97902 8.55592C5.55633 8.10331 5.73075 7.57756 5.22316 6.9319C5.03778 6.67709 4.8905 6.39684 4.78566 6.09987C4.65875 5.76435 4.6361 5.33643 4.90578 5.14967C5.17537 4.9632 5.3473 5.38789 5.56301 5.53346C6.41923 6.10285 6.76198 6.05845 7.44387 5.23268C8.29727 6.10941 8.39578 6.09624 9.07473 5.02956C9.18838 5.24455 9.33036 5.44367 9.4966 5.62135C9.67634 5.78022 9.90366 5.8765 10.1431 5.89479C10.3824 5.91301 10.621 5.85255 10.8228 5.72292C11.3144 5.40651 10.8898 5.05233 10.7437 4.74538C10.2488 3.71987 10.2396 3.72262 10.3696 2.67506ZM9.92824 0.563737C10.2645 0.592224 10.7945 0.734282 10.7945 1.23756C10.7913 1.59207 10.6707 2.00033 10.1568 2.02565C9.83953 1.89596 9.34152 1.91479 9.39211 1.39284C9.427 1.06053 9.45252 0.522748 9.92824 0.563737Z" fill="#38383A"/>
</svg>
