<svg width="12" height="9" viewBox="0 0 12 9" fill="none" xmlns="http://www.w3.org/2000/svg">
<path d="M7.62759 1.9358C8.12888 2.629 8.07494 3.37332 8.31606 4.01588C8.6556 4.90833 9.5342 5.35421 10.359 4.99342C10.6763 4.85414 11.0093 4.67676 10.7174 4.22095C10.4259 3.76531 10.5278 3.31598 10.6579 2.85084C11.0071 3.12877 11.2631 3.50683 11.3913 3.93385C11.5193 4.36086 11.5135 4.81682 11.3747 5.24049C11.2553 5.57266 11.0301 5.85696 10.734 6.05006C10.438 6.2431 10.0869 6.33495 9.73403 6.3108C8.23982 6.31072 7.97613 5.12955 7.73501 3.92994C7.27821 4.24646 7.00209 4.69603 6.42153 4.6897C5.927 4.68991 6.10461 5.1429 6.06021 5.41822C5.71432 7.54493 4.35343 8.58262 2.45962 8.16822C0.701976 7.7789 -0.0794574 6.3801 0.367823 4.49049C0.372333 4.49157 0.377103 4.49327 0.381495 4.49439C0.387226 4.15443 0.480808 3.82146 0.653956 3.52857C0.827422 3.2352 1.07462 2.99202 1.37075 2.82252C0.84718 3.59137 0.620489 4.52383 0.733057 5.44654L0.806299 5.58033C0.985348 5.88692 1.22035 6.15783 1.49868 6.38013C1.81686 6.63425 2.18525 6.81895 2.57974 6.92115C2.97414 7.02328 3.38594 7.04143 3.78774 6.97388C4.1896 6.90631 4.57267 6.75408 4.91177 6.52857C5.59681 6.0507 5.7554 5.50977 5.30825 4.76295C4.99103 4.25659 4.59451 3.78159 4.58169 3.14869C4.58169 2.90813 4.51196 2.58514 4.78481 2.46803C5.05767 2.35091 5.12715 2.67398 5.2731 2.81959C5.53013 3.0926 5.86096 3.28561 6.22524 3.37623C7.35149 3.63573 7.41185 2.77142 7.62759 1.9358ZM7.39907 6.56959C7.72586 6.61074 8.19571 6.61126 8.22427 7.1272C8.10374 7.55439 8.01173 7.97224 7.44106 7.91236C7.10159 7.87754 6.76776 7.77915 6.83755 7.36451C6.89147 7.04805 6.83789 6.50656 7.39907 6.56959ZM2.99282 3.60963C3.1766 3.60936 3.35493 3.67267 3.49673 3.78931C3.63849 3.90599 3.73544 4.06825 3.77017 4.2483C3.61472 4.59643 3.61746 5.03053 3.1354 4.98951C2.78006 4.96102 2.39568 4.84008 2.47817 4.38111C2.53524 4.06459 2.54879 3.59697 2.99282 3.60963ZM10.2995 0.287361C10.4832 0.287096 10.6616 0.350408 10.8034 0.467049C10.9451 0.583725 11.0421 0.745987 11.0768 0.926033C10.9214 1.27417 10.9241 1.70826 10.442 1.66724C10.0867 1.63876 9.70232 1.51781 9.78481 1.05885C9.84188 0.74232 9.85543 0.274704 10.2995 0.287361Z" fill="#38383A"/>
</svg>
