<svg width="6" height="10" viewBox="0 0 6 10" fill="none" xmlns="http://www.w3.org/2000/svg">
<path d="M0.682617 0.268555C1.10454 0.0216887 1.52029 0.29402 2.04688 0.661133C0.460775 0.344742 0.812763 1.32627 0.860352 2.07324C0.949178 3.45947 1.04767 4.84569 1.17773 6.22559C1.22331 6.61888 1.36565 6.99498 1.5918 7.32031C1.81799 7.6456 2.12136 7.91045 2.47461 8.09082C2.82804 8.27119 3.22124 8.36185 3.61816 8.35449C4.01494 8.34709 4.40364 8.24209 4.75 8.04883C5.18133 7.81785 4.96629 7.62176 4.8457 7.375C4.49674 6.67554 4.49626 6.67202 4.75 5.90625C5.11715 6.22506 5.37911 6.64731 5.50195 7.11719C5.6247 7.58697 5.60274 8.08305 5.43848 8.54004C4.98785 9.58408 3.98225 9.41963 3.1416 9.48926C2.67872 9.50677 2.22213 9.37721 1.83789 9.11914C1.45352 8.86084 1.16066 8.4865 1.00293 8.05176C0.714411 7.29855 0.764849 6.49432 0.685547 5.71582C0.536452 4.30106 0.438917 2.88277 0.331055 1.46484C0.299334 1.02497 0.260851 0.515416 0.682617 0.268555ZM3.49609 3.58594C3.94345 3.65241 4.59765 3.69736 4.58496 4.36523C4.57854 4.67856 4.45431 5.1439 3.9248 5.1377C3.52187 4.99209 2.99221 4.94418 3.05566 4.34277C3.08737 4.05793 2.98239 3.51333 3.49609 3.58594Z" fill="#38383A"/>
</svg>
