<svg width="284" height="284" viewBox="0 0 284 284" fill="none" xmlns="http://www.w3.org/2000/svg">
<path d="M60.6788 119.576C71.4401 121.072 77.9985 142.906 79.9317 153.645C83.0363 162.025 96.9501 180.454 127.746 187.104C166.245 195.415 213.041 192.62 261.476 175.873C266.793 174.486 271.364 167.882 247.195 152.513C244.746 151.532 239.953 147.81 240.344 140.76C240.841 131.936 243.291 114.277 255.983 125.293C268.684 136.326 295.313 163.061 278.705 191.747C265.414 214.693 189.137 219.457 152.665 218.967C127.993 218.717 76.2932 206.392 66.7207 159.129C64.7093 150.443 56.7828 137.813 41.2236 156.75C25.6583 175.699 11.416 187.652 6.24458 191.254C2.38326 193.329 -3.6712 193.942 2.94904 179.82C11.2303 162.16 47.2193 117.726 60.6788 119.576ZM267.98 81.9095C272.196 82.0111 274.949 86.393 273.241 90.267L263.47 112.438C262.324 115.025 259.516 116.452 256.764 115.833L229.763 109.681C226.327 108.901 224.312 105.306 225.456 101.962L231.18 85.2467C232.016 82.8027 234.33 81.1882 236.904 81.2421L267.98 81.9095ZM72.1554 66.0941L102.711 71.6368C106.865 72.3898 108.925 77.1292 106.643 80.6907L93.5475 101.062C92.0142 103.446 89.0049 104.43 86.3783 103.384L60.6499 93.0819C60.0353 92.8348 59.5063 92.4723 59.0311 92.0662L52.6423 104.225C51.4342 106.504 48.9007 107.73 46.3692 107.272L15.7843 101.759C11.6338 100.999 9.59186 96.2355 11.8817 92.6756L24.9771 72.3042C26.512 69.9189 29.5184 68.9607 32.1464 70.0117L57.8458 80.2845C58.4494 80.5261 58.995 80.876 59.4647 81.2711L65.8823 69.1701C67.089 66.8856 69.6204 65.6352 72.1554 66.0941Z" fill="#38383A"/>
</svg>
