<svg width="8" height="11" viewBox="0 0 8 11" fill="none" xmlns="http://www.w3.org/2000/svg">
<path d="M7.06704 3.03079C8.18384 4.17979 7.85048 5.86085 6.43227 6.39895C5.57336 6.73042 4.62703 6.76007 3.74868 6.48391C3.31091 6.35416 2.87589 5.85123 2.42544 6.61673C2.24464 6.93317 1.87381 6.51284 1.8102 6.20266C1.70233 5.68355 1.42867 5.36023 0.901998 5.48684C0.293347 5.63254 0.470814 6.17386 0.502584 6.58841C0.553345 7.18661 0.673495 7.77559 0.724264 8.37063C0.7782 8.88974 0.930641 9.43447 0.454733 10.02C0.324659 8.40267 -0.201973 6.96855 0.213522 5.46829C0.391194 4.83523 0.763291 4.55937 1.36294 4.20169C2.2096 3.69889 2.31407 4.20235 2.6979 4.6011C3.57354 5.53166 5.75342 5.73413 6.86391 5.03469C6.93665 5.00764 7.00177 4.96268 7.05337 4.90481C7.10481 4.84704 7.14136 4.77771 7.15981 4.70266C7.17827 4.62744 7.1778 4.54827 7.15883 4.47317C7.13987 4.3984 7.10313 4.32933 7.05141 4.272C6.92882 4.08758 6.86405 3.87022 6.86684 3.64895C6.86967 3.42762 6.93974 3.21208 7.06704 3.03079ZM6.33462 0.91946C6.68996 0.947947 7.10268 1.02751 7.10903 1.53079C7.03294 1.91681 7.00107 2.32441 6.45571 2.26126C6.10036 2.22011 5.73209 2.15038 5.75747 1.68508C5.77649 1.32122 5.79576 0.872177 6.33462 0.91946Z" fill="#38383A"/>
</svg>
