<svg width="14" height="10" viewBox="0 0 14 10" fill="none" xmlns="http://www.w3.org/2000/svg">
<path d="M5.62895 0.975098C5.98105 0.975131 5.9273 1.24152 5.94633 1.44092C6.01295 2.09928 6.05768 2.76107 6.12113 3.41943C6.26396 4.85624 6.90757 5.71052 8.00199 5.93213C9.34088 6.19801 10.1947 5.77431 10.9942 4.37842C11.2098 5.01135 11.2764 5.74876 12.1358 5.72998C12.5102 5.72998 12.8852 5.70434 12.6758 5.15674C12.5676 4.7862 12.6106 4.38807 12.7959 4.04932C13.4589 4.7425 13.4716 6.19163 12.8467 6.74561C12.2788 7.25205 11.5178 7.03033 10.7754 6.14404C9.85852 7.29621 8.46867 7.63818 6.74906 6.73291C6.53333 7.24567 6.52039 7.8284 6.16508 8.29053C5.19425 9.55662 3.87111 9.98759 2.49418 9.47803C1.27906 9.0254 0.834847 8.07538 1.00297 6.26807C1.00823 6.26773 1.01353 6.26829 1.0186 6.26807C1.0462 5.90929 1.14745 5.5601 1.31547 5.2417C1.48353 4.92324 1.7152 4.64228 1.99613 4.4165C1.77088 5.22996 1.21228 5.94529 1.33598 6.83154C1.31352 6.79377 1.29093 6.75606 1.2686 6.71826C1.27555 6.76511 1.29428 6.80526 1.33598 6.83154C1.63741 7.90135 2.44695 8.31229 3.45903 8.41357C3.93356 8.46619 4.41378 8.39045 4.84867 8.19385C5.28349 7.9972 5.65757 7.68702 5.93071 7.29639C6.21904 6.92615 6.09864 6.52074 6.04789 6.11572C5.8734 4.77373 5.69505 3.43159 5.54594 2.08643C5.47662 1.71528 5.50553 1.33199 5.62895 0.975098ZM10.4834 7.38818C10.8228 7.39777 11.1522 7.51559 11.2315 7.89209C11.0413 8.30033 11.0314 8.78768 10.4414 8.73389C10.0958 8.69905 9.80708 8.60698 9.86723 8.18311C9.93386 7.82859 9.96629 7.37552 10.4834 7.38818ZM12.4913 1.93115C12.5703 1.92424 12.6502 1.93399 12.7256 1.9585C12.801 1.98298 12.8709 2.0218 12.9307 2.07373C12.9905 2.12574 13.0396 2.19001 13.0743 2.26123C13.1088 2.33231 13.1279 2.40989 13.1319 2.48877C12.9924 2.80525 12.9255 3.22314 12.4307 3.22314C12.1137 3.22299 11.8186 3.06767 11.8565 2.75146C11.8946 2.43498 12.0282 1.95028 12.4913 1.93115Z" fill="#38383A"/>
</svg>
