<svg width="284" height="284" viewBox="0 0 284 284" fill="none" xmlns="http://www.w3.org/2000/svg">
<path d="M193.027 102.17C203.076 68.8835 218.406 78.4878 224.817 87.4609C241.333 94.802 268.889 120.77 246.998 165.81C237.619 177.507 199.634 199.402 122.735 193.528C122.49 207.399 112.831 237.424 76.1476 246.562C39.4714 255.699 29.4989 255.627 29.0913 254.444C28.3267 253.222 29.3221 249.927 39.4636 246.562C49.6072 243.196 87.3467 219.965 104.95 208.765C109.412 205.742 114.922 198.457 101.258 193.528C85.7179 192.662 55.9259 185.339 61.0872 162.939C66.2522 140.553 73.2767 132.553 76.1476 131.353C83.5911 126.6 102.262 126.273 117.402 162.939C127.712 167.692 164.968 172.599 231.439 154.266C236.979 152.28 245.267 146.272 234.193 138.063H224.817C210.032 139.972 182.975 135.465 193.027 102.17ZM219.192 29.0944L250.162 34.6908C254.368 35.4502 256.449 40.2376 254.147 43.8325L240.874 64.4014C239.32 66.8087 236.27 67.8031 233.607 66.7454L207.53 56.3438C206.907 56.0941 206.371 55.7284 205.889 55.3183L199.414 67.5952C198.189 69.8962 195.622 71.1338 193.056 70.6717L162.056 65.1046C157.849 64.3381 155.78 59.528 158.101 55.9336L171.374 35.3647C172.931 32.9647 175.981 31.9912 178.64 33.05L204.688 43.4223C205.299 43.6655 205.853 44.0208 206.329 44.4185L212.834 32.2002C214.059 29.9012 216.627 28.6318 219.192 29.0944Z" fill="#38383A"/>
</svg>
