<svg width="284" height="284" viewBox="0 0 284 284" fill="none" xmlns="http://www.w3.org/2000/svg">
<path d="M178.453 85.6757C186.198 81.2266 207.508 82.9151 230.745 125.284C236.106 157.774 227.075 227.195 148.082 245C116.21 245 52.367 230.232 52 171.141C52.3013 151.86 59.247 110.522 84.625 99.4735C85.6595 99.9822 86.2836 103.627 80.496 114.137C73.2556 127.283 41.1091 180.071 103.532 208.26C153.468 230.808 201.121 195.792 218.711 175.47C223.099 168.54 228.396 151.03 214.446 136.403C212.844 134.959 208.144 132.938 202.168 136.403C188.011 139.072 160.949 138.344 165.957 114.137C170.961 89.9526 176.369 85.0891 178.453 85.6757ZM190.079 39.0878L218.792 44.2552C222.696 44.9565 224.632 49.3754 222.487 52.6962L210.181 71.6885C208.74 73.9111 205.913 74.8292 203.444 73.8529L179.268 64.2485C178.69 64.018 178.193 63.6804 177.746 63.3016L171.743 74.6374C170.607 76.7623 168.227 77.9054 165.848 77.4782L137.108 72.3378C133.207 71.6301 131.289 67.1886 133.44 63.8697L145.746 44.8774C147.188 42.6533 150.013 41.7602 152.483 42.7401L176.633 52.3174C177.2 52.5427 177.712 52.8687 178.154 53.2373L184.184 41.9555C185.318 39.8255 187.697 38.6599 190.079 39.0878Z" fill="#38383A"/>
</svg>
