<svg width="284" height="284" viewBox="0 0 284 284" fill="none" xmlns="http://www.w3.org/2000/svg">
<path d="M234.933 88.6405C234.933 94.2372 215.563 100.973 215.563 100.973C215.563 100.973 149.92 122.926 144.627 164.996C139.335 207.066 116.777 219.194 106.16 220C52.5519 220 50.0902 175.957 49.0166 156.749L49 156.452V108.39C49 96.855 59.0928 99.2156 62.1229 100.973V150.195C62.1229 150.195 60.5268 172.631 89.5821 181.551C113.183 188.796 127.702 176.032 129.665 164.996C138.748 97.7095 202.327 68.3405 219.423 64.6024C233.101 61.6118 235.462 70.4814 234.933 75.29V88.6405Z" fill="#38383A"/>
</svg>
