<svg width="10" height="7" viewBox="0 0 10 7" fill="none" xmlns="http://www.w3.org/2000/svg">
<path d="M7.66016 2.50635C8.21842 2.73103 8.52602 3.22506 8.79883 3.7124C9.46824 4.90882 9.04355 5.96357 7.70801 6.32764C5.93128 6.81509 4.11606 7.0394 2.29492 6.62158C0.870451 6.30505 -0.322256 5.58343 0.0742188 3.45654C0.578459 3.52941 0.194681 3.99762 0.419922 4.19385C0.569742 4.48348 0.78683 4.73301 1.05273 4.92236C1.31868 5.11172 1.62593 5.23551 1.94922 5.28271C3.89417 5.72736 5.92234 5.6508 7.82812 5.06104C8.46258 4.87431 8.48841 4.61148 8.05078 4.16846C7.66371 3.77279 7.15268 3.41197 7.41602 2.7251C7.46041 2.60801 7.50481 2.44315 7.66016 2.50635ZM4.54004 2.5542C4.85731 2.11106 5.20055 2.61061 5.52734 2.70557C5.90487 2.81952 5.81296 3.12113 5.73047 3.40283C5.61306 3.76657 5.38748 3.89924 4.82617 3.77588C4.50895 3.62714 4.04254 3.39303 3.63965 4.0415C3.56033 4.16812 3.15058 4.04143 2.98242 3.83252C2.75437 3.51616 2.90051 3.24423 3.05273 2.95947C3.06652 2.90475 3.0941 2.85416 3.13379 2.81396C3.17347 2.77382 3.22372 2.74551 3.27832 2.73096C3.33303 2.71642 3.39078 2.71676 3.44531 2.73193C3.49982 2.74711 3.5496 2.77623 3.58887 2.81689C4.01698 3.10156 4.22292 2.99706 4.54004 2.5542ZM3.19922 1.64893C3.24681 1.36405 3.25945 0.851146 3.76074 0.968262C4.07798 1.04416 4.6013 1.07609 4.55078 1.60107C4.51905 1.93343 4.44873 2.39286 3.75391 2.31689C3.66981 2.32054 3.58574 2.30406 3.50879 2.27002C3.43207 2.23601 3.36419 2.18503 3.31055 2.12061C3.25684 2.05601 3.21856 1.97962 3.19922 1.89795C3.1799 1.81615 3.18004 1.73076 3.19922 1.64893Z" fill="#38383A"/>
</svg>
