<svg width="7" height="10" viewBox="0 0 7 10" fill="none" xmlns="http://www.w3.org/2000/svg">
<path d="M0.319336 1.87988C0.240131 0.652136 0.56724 0.348392 1.80762 0.522461C0.747928 0.614255 0.772978 1.29842 0.855469 2.05176C0.991851 3.46017 0.995465 4.90036 1.2207 6.28027C1.4842 7.88487 3.85375 8.6575 5.16406 7.66699C5.50672 7.40744 5.38275 7.18517 5.20508 6.9541C4.78015 6.4098 4.80571 5.85929 5.16406 5.17578C5.79841 6.04921 6.18245 6.93846 5.79883 7.92578C5.45618 8.83103 4.66272 9.21739 3.69824 9.26172C1.75345 9.35351 0.84302 8.56869 0.674805 6.59375C0.54155 5.02376 0.422978 3.45198 0.319336 1.87988ZM4.83789 3.13672C5.15516 2.65562 5.42833 3.1116 5.71387 3.21289C6.12292 3.35853 6.07807 3.66571 5.96387 3.98535C5.84968 4.30479 5.69754 4.49814 5.23145 4.32422C4.94273 4.15329 4.69203 4.29577 4.37793 4.6123C4.0639 4.92841 3.63238 4.70055 3.33105 4.49805C2.93446 4.23216 3.23881 3.86469 3.34668 3.57031C3.52436 3.08295 3.81993 3.33022 4.09277 3.47266C4.48272 3.67483 4.65077 3.42149 4.83789 3.13672ZM4.12988 1.19922C4.44716 1.39547 4.92331 1.4689 4.82812 1.97852C4.76787 2.29502 4.7135 2.73125 4.19336 2.58887C3.87609 2.50024 3.42585 2.44982 3.57812 1.95605C3.66696 1.65535 3.64446 1.21505 4.12988 1.19922Z" fill="#38383A"/>
</svg>
