<svg width="284" height="284" viewBox="0 0 284 284" fill="none" xmlns="http://www.w3.org/2000/svg">
<path d="M90.0849 166.859C93.0906 166.924 95.065 170.015 93.8508 172.765L86.8951 188.488C86.08 190.33 84.0646 191.34 82.1002 190.896L62.8794 186.554C60.4374 185.999 59.0235 183.449 59.8338 181.079L63.9084 169.205C64.5068 167.476 66.1531 166.325 67.983 166.365L90.0849 166.859ZM20.425 94.0268C21.5523 95.3865 22.6582 99.1844 18.0584 103.514C12.298 108.937 0.125996 121.459 18.0584 131.276C36.0136 141.097 106.753 155.646 125.398 122.139H134.227C140.438 140.314 156.163 166.551 169.438 126.193H175.879C177.908 132.631 184.01 144.079 192.136 138.397C199.815 121.91 225.473 91.8662 266.653 103.514C279.747 109.839 298.068 129.312 266.653 156.672C252.535 162.767 214.083 170.629 173.183 153.297H169.438C164.914 165.262 149.775 180.301 125.398 144.818C120.31 152.158 98.4383 165.484 51.5816 160.067C4.72525 154.647 -2.03953 130.714 0.442767 119.422C2.81061 110.619 10.1341 93.2255 20.425 94.0268ZM270.028 134.322C242.393 99.1098 212.912 126.663 201.623 144.838C267.184 144.838 274.543 137.821 270.028 134.322Z" fill="#38383A"/>
</svg>
