<svg width="284" height="284" viewBox="0 0 284 284" fill="none" xmlns="http://www.w3.org/2000/svg">
<path d="M172.755 105.682C187.97 85.1173 209.398 66.6186 232.072 73.4419C266.351 83.7587 246.357 112.13 232.072 125.026C217.396 128.595 183.164 131.413 163.506 129.325L157.078 137.922H154.935C156.151 135.254 157.593 132.118 159.242 128.746C151.334 127.34 150.278 124.746 146.364 118.578C132.794 129.325 99.6538 143.509 75.6556 114.279C49.9435 132.191 16.5175 172.742 88.5118 191.656C94.9433 193.089 120.229 195.095 169.934 191.656C160.649 201.686 127.936 219.167 71.3704 208.851C5.72906 196.879 39.8027 125.636 60.4519 112.046C62.889 110.442 64.942 107.901 64.9424 104.977C64.9421 101.733 62.4609 99.0303 59.2382 98.7597L39.23 97.0847L47.466 86.0693C50.4038 82.1401 54.8779 79.6597 59.7572 79.2519L77.7983 77.7406H97.7399C101.55 77.7407 105.329 78.4702 108.867 79.8899C112.102 81.1884 114.224 84.3336 114.224 87.8282V96.3627C114.224 98.1347 113.265 99.7709 111.722 100.632L94.9398 109.981L101.615 111.471C109.918 113.322 118.527 113.322 126.83 111.471C131.19 110.499 135.219 108.327 138.242 105.027C141.288 101.703 144.221 98.1873 144.222 97.0847C144.231 94.9494 159.222 114.279 161.363 112.13C163.08 110.41 169.672 107.115 172.755 105.682ZM232.068 99.234C209.785 82.0418 188.5 100.667 180.644 112.13C235.497 117.288 237.782 105.682 232.068 99.234Z" fill="#38383A"/>
</svg>
