<svg width="284" height="284" viewBox="0 0 284 284" fill="none" xmlns="http://www.w3.org/2000/svg">
<path d="M168.783 121.229C177.532 103.09 205.165 67.9296 245.714 72.3868C286.253 76.8465 286.746 102.22 281.921 114.351C276.216 127.356 247.551 152.828 178.568 150.73H155.858C145.089 179.071 111.053 223.125 52.6093 209.423C27.2848 203.485 3.6237 185.217 0.440044 159.495C-1.68981 142.254 3.47714 121.966 25.5384 103.207C27.1845 103.316 29.4891 105.695 25.5384 114.351C21.293 123.65 -5.04619 155.71 34.8043 176.819C50.6206 185.192 69.1656 186.153 87.0774 186.153C116.917 183.311 165.417 167.392 120.663 126.477V103.207C120.337 97.852 123.293 90.3549 137.767 103.207C152.24 116.058 159.167 122.336 160.815 123.866L168.783 121.229ZM254.616 102.871C206.223 79.27 186.826 114.346 184.512 124.512C224.01 125.165 293.325 121.751 254.616 102.871Z" fill="#38383A"/>
</svg>
