<svg width="8" height="14" viewBox="0 0 8 14" fill="none" xmlns="http://www.w3.org/2000/svg">
<path d="M4.97473 3.0794C5.07656 3.05359 5.18275 3.0497 5.28625 3.06768C5.34959 3.07916 5.41048 3.10326 5.46399 3.13897C5.51738 3.17464 5.56302 3.22079 5.59778 3.27471C5.63251 3.32861 5.65575 3.38921 5.66614 3.45244C5.67649 3.51583 5.67317 3.58159 5.65735 3.64385C5.60983 4.03941 5.62876 4.50736 4.96594 4.346C4.70911 4.28605 4.60114 4.53316 4.51868 4.74834C4.32002 5.31845 3.96506 5.82143 3.49426 6.20049C4.27148 6.26378 4.88711 6.29566 5.49622 6.36846C5.74372 6.39997 6.1686 6.17899 6.20032 6.58721C6.24429 6.78972 6.21363 7.00142 6.1134 7.18291C6.01308 7.36447 5.84964 7.50348 5.65442 7.57451C5.26422 7.69478 4.86761 7.81496 4.4679 7.89092C3.88171 8.0271 3.32142 8.25709 2.80872 8.57158C1.42549 9.37869 1.3653 10.3851 2.65637 11.3821C3.69702 12.1829 4.95978 12.1422 6.17493 12.2688C6.55867 12.31 7.24983 12.1234 7.25989 12.471C7.25989 13.0249 6.5781 12.9404 6.14661 13.0638C5.50001 13.2122 4.83555 13.2698 4.17297 13.2347C2.96417 13.2347 1.95187 12.7843 1.51086 11.6321C1.07019 10.4803 1.33647 9.28415 2.08801 8.26201C2.2866 8.05824 2.50849 7.87755 2.74817 7.72393C2.25963 7.4739 1.88546 7.59093 1.53333 7.54033C1.25102 7.4992 0.828604 7.69816 0.73645 7.26494C0.693766 7.07635 0.71485 6.87846 0.795044 6.70244C0.875229 6.52657 1.01042 6.38125 1.18079 6.28936C1.62285 6.05234 2.07854 5.84114 2.54504 5.65654C3.43658 5.27987 4.27776 4.90297 4.41418 3.75713C4.42025 3.65248 4.44876 3.55036 4.49719 3.45733C4.54565 3.36428 4.61307 3.28223 4.69543 3.21709C4.77775 3.15202 4.87295 3.10522 4.97473 3.0794ZM4.66809 9.27764C4.89018 9.50237 5.49961 9.278 5.42981 9.86358C5.37905 10.2528 5.27081 10.7023 4.69055 10.6233C4.34484 10.579 3.948 10.5281 4.03333 10.0442C4.09043 9.71505 4.07163 9.24282 4.66809 9.27764ZM5.11926 1.68779C5.31591 1.33972 5.55402 1.42136 5.82043 1.61748C6.08692 1.81372 6.34079 2.0196 6.13782 2.45635C5.99187 2.77921 5.85227 2.90893 5.43665 2.79815C5.30626 2.70888 5.147 2.67102 4.99036 2.69268C4.83376 2.71433 4.6911 2.79411 4.58997 2.91533C4.2728 3.23176 3.86013 2.95049 3.58411 2.70049C3.30814 2.45049 3.47311 2.12134 3.63489 1.846C3.95212 1.33645 4.22143 1.7 4.46887 1.88994C4.81135 2.15253 4.96388 1.96926 5.11926 1.68779ZM4.0343 0.563771C4.11045 0.364356 4.16407 -0.00252732 4.50989 0.127248C4.92227 0.285502 5.34126 0.5005 5.09387 1.07647C4.98919 1.33913 4.9002 1.61095 4.53235 1.51299C3.92001 1.43069 3.85028 1.04173 4.0343 0.563771Z" fill="#38383A"/>
</svg>
