<svg width="12" height="9" viewBox="0 0 12 9" fill="none" xmlns="http://www.w3.org/2000/svg">
<path d="M9.82324 3.74427C10.1754 3.53853 10.3279 4.00711 10.4961 4.24134C11.5237 5.65605 11.0067 6.94098 9.29688 7.28919C8.42125 7.45814 7.51627 7.39482 6.67285 7.1056C6.44315 7.02455 6.19711 7.00096 5.95605 7.03626C5.71501 7.07157 5.48572 7.16524 5.28906 7.30872C4.49929 7.7611 3.63979 8.0009 2.78027 7.48841C2.40603 7.26376 2.24687 7.36506 2.03125 7.68763C1.63783 8.25732 1.05073 8.47026 0.311523 8.5304C0.48757 8.21683 0.753997 7.9627 1.07617 7.80189C1.75182 7.2892 2.19618 6.7448 2.20898 5.7765C2.23119 4.28248 3.52556 3.71268 4.72168 4.67493C5.37028 5.23057 6.13054 5.64192 6.95117 5.88099C7.77177 6.12001 8.63413 6.18081 9.48047 6.06068C9.79771 6.0227 10.1629 6.01652 10.293 5.70325C10.4069 5.43771 10.0714 5.28885 9.93164 5.0929C9.84668 4.99551 9.77164 4.8885 9.70898 4.77552C9.55368 4.41165 9.47144 3.94998 9.82324 3.74427ZM3.49707 5.44739C3.18626 5.43794 2.80229 5.46916 2.73242 5.82337C2.66272 6.1778 3.00597 6.29874 3.25977 6.39368C3.89833 6.6559 4.60897 6.68571 5.26758 6.47864C4.67757 5.94063 4.21718 5.46322 3.49707 5.44739ZM10.3896 1.93763C10.7482 1.37104 11.0936 1.8648 11.4141 2.01673C11.8614 2.22562 11.5637 2.53555 11.4717 2.80775C11.3385 3.19383 11.0496 3.2981 10.7451 3.05775C10.155 2.59562 9.88808 3.32962 9.60254 3.38978C9.12678 3.30117 8.80298 3.20978 8.68555 2.88392C8.56816 2.55789 8.78425 2.27925 8.97461 2.03236C9.2189 1.71586 9.40632 2.01044 9.60938 2.12122C9.66844 2.17203 9.73872 2.20812 9.81445 2.22669C9.89039 2.24528 9.96979 2.24553 10.0459 2.22767C10.122 2.20977 10.1933 2.17461 10.2529 2.12415C10.3125 2.07369 10.3595 2.0096 10.3896 1.93763ZM10.1152 1.7179L10.0928 1.7345C10.0983 1.72843 10.103 1.72116 10.1084 1.71497C10.1106 1.71611 10.1131 1.71675 10.1152 1.7179ZM9.23926 0.407356C9.37878 0.164061 9.57869 0.157895 9.80371 0.271614C9.95219 0.326751 10.0843 0.419607 10.1855 0.541145C10.2869 0.662766 10.3547 0.809177 10.3818 0.964973C10.3877 1.24056 10.2893 1.50743 10.1084 1.71497C9.75677 1.53244 9.26671 1.58924 9.0459 1.19642C8.89361 0.921037 9.09966 0.651084 9.23926 0.407356Z" fill="#38383A"/>
</svg>
