<svg width="12" height="11" viewBox="0 0 12 11" fill="none" xmlns="http://www.w3.org/2000/svg">
<path d="M10.7963 3.66055C11.7481 4.29362 12.2276 5.8481 11.7485 6.85781C11.355 7.66164 10.4791 7.93012 9.77485 7.41738C9.45763 7.19584 9.26687 6.96176 8.96235 7.41738C8.75615 7.73387 8.44241 7.69594 8.11567 7.53457C7.25269 7.11359 6.76036 7.38613 6.52876 8.3832C6.15114 10.0164 4.6915 11.1557 3.17817 10.9848C2.61972 10.9416 2.08689 10.7332 1.6479 10.3861C1.20879 10.0388 0.882929 9.56837 0.713326 9.03555C0.278663 7.76626 0.608918 6.51877 1.55122 5.27481C1.71607 5.90753 1.4338 6.22405 1.29731 6.54043C0.637402 8.17368 1.64933 9.72795 3.41645 9.76602C4.08945 9.77951 4.74553 9.55541 5.26899 9.1332C6.07169 8.50014 6.17409 7.99332 5.67915 7.09121C5.37775 6.54367 4.96792 6.02441 5.4184 5.26797C5.88479 5.54018 5.96767 6.21824 6.5229 6.33535C7.07799 6.45232 7.47441 6.13212 7.67426 5.58145C8.4611 6.70196 8.72111 6.67047 9.33344 5.46133C9.65072 5.80002 9.74966 6.33872 10.3207 6.41152C10.488 6.45106 10.6626 6.44833 10.8286 6.40371C10.9947 6.35896 11.1472 6.273 11.2719 6.15469C11.5542 5.83823 11.2406 5.55978 11.0756 5.32559C10.7076 4.80333 10.2348 4.32523 10.7963 3.66055ZM10.8764 2.03945C11.0731 1.69155 11.3111 1.77391 11.5776 1.97012C11.844 2.1663 12.0979 2.37233 11.895 2.80898C11.7491 3.13171 11.6091 3.26135 11.1938 3.15078C11.0635 3.06152 10.9041 3.02378 10.7475 3.04531C10.5908 3.06698 10.4473 3.1466 10.3461 3.26797C10.0289 3.58422 9.61625 3.30216 9.34028 3.05215C9.06464 2.80212 9.22931 2.47295 9.39106 2.19766C9.70832 1.68812 9.97856 2.05267 10.226 2.24258C10.5684 2.50484 10.721 2.32105 10.8764 2.03945ZM9.49262 0.998438C9.55925 0.681908 9.61339 0.219178 10.0893 0.323633C10.4066 0.390071 10.9201 0.406771 10.8217 0.957422C10.755 1.34656 10.5709 1.67906 10.0571 1.66641C9.73989 1.57147 9.3913 1.43816 9.49262 0.998438Z" fill="#38383A"/>
</svg>
