<svg width="13" height="10" viewBox="0 0 13 10" fill="none" xmlns="http://www.w3.org/2000/svg">
<path d="M4.8784 1.81006C5.30671 2.44312 5.16677 3.06055 5.2905 3.60498C5.33462 3.94944 5.36187 4.29592 5.37058 4.64307C5.45942 5.43426 5.68735 6.11842 6.60398 6.33057C7.52087 6.54264 7.93738 6.01387 8.32761 5.28271C8.77477 5.80817 9.05709 6.63357 9.85007 6.39307C10.6431 6.15247 9.70134 5.22903 10.3452 4.78271C10.634 5.09189 10.8154 5.48568 10.8618 5.90576C10.9081 6.32602 10.8167 6.75024 10.602 7.11475C10.2625 7.80478 9.38086 7.89655 8.74949 7.28564C8.37513 6.92482 8.17804 6.71312 7.75925 7.2417C7.59691 7.44498 7.36726 7.58428 7.11179 7.63525C6.85655 7.68608 6.59179 7.64519 6.36375 7.52002C5.5992 7.04844 5.51327 7.54562 5.28172 8.05518C4.80898 9.09972 4.01226 9.78002 2.82566 9.86865C1.0966 9.99525 -0.096258 8.77382 0.122536 7.05518C0.170021 6.66671 0.0976548 6.22463 0.39988 5.88623L0.397927 5.88428C0.397927 5.41592 0.71577 5.12143 1.06785 4.67529C1.14697 5.34287 0.8553 5.71672 0.607887 6.10596C0.505779 6.35351 0.460264 6.6209 0.475075 6.88818C0.489925 7.15554 0.564896 7.41603 0.693825 7.65088C0.822762 7.8857 1.00239 8.08918 1.22019 8.24561C1.43815 8.40206 1.68931 8.5078 1.95359 8.55518C3.8729 9.00443 5.1891 7.86483 4.97019 5.94678C4.86552 4.99733 4.79238 4.06692 4.65281 3.1333C4.58618 2.69649 4.72611 2.34182 4.8784 1.81006ZM10.7221 2.94287C10.9822 2.35769 11.325 2.59851 11.6928 2.8042C11.9498 2.9498 12.185 3.05085 12.0327 3.43701C11.8614 3.91497 11.6519 4.18084 11.1284 3.9751C10.7797 3.84238 10.6464 4.14901 10.4214 4.2915C10.063 4.53511 9.752 4.29182 9.48875 4.07666C9.10811 3.76021 9.40232 3.44347 9.53562 3.146C9.69739 2.7884 9.92935 2.80063 10.1958 3.04736C10.2288 3.0931 10.2741 3.12919 10.3266 3.1499C10.3793 3.17058 10.4372 3.17552 10.4927 3.16455C10.5482 3.15354 10.5994 3.12662 10.6401 3.0874C10.6808 3.04818 10.7092 2.99783 10.7221 2.94287ZM7.91062 2.771C8.26913 2.20449 8.61558 2.69817 8.93601 2.8501C9.38309 3.05901 9.08465 3.36991 8.99265 3.64209C8.85935 4.02789 8.57053 4.13248 8.26609 3.89209C7.67625 3.43018 7.40988 4.16335 7.12449 4.22412C6.64858 4.13549 6.32489 4.04331 6.2075 3.71729C6.09027 3.39135 6.30526 3.11256 6.49558 2.86572C6.73977 2.54952 6.92737 2.84378 7.13035 2.95459C7.18956 3.00564 7.2604 3.04243 7.3364 3.06104C7.4123 3.07955 7.4918 3.0799 7.56785 3.06201C7.6439 3.04409 7.71431 3.00794 7.7739 2.95752C7.83357 2.907 7.88051 2.84306 7.91062 2.771ZM10.0366 1.19287C10.3347 1.19287 10.7758 1.4017 10.7602 1.7876C10.7571 1.97254 10.6995 2.1532 10.5952 2.30615C10.491 2.45892 10.3444 2.57808 10.1733 2.64893C9.85604 2.48433 9.42406 2.45555 9.46531 1.99658C9.50022 1.64213 9.56726 1.17395 10.0366 1.19287ZM6.8364 0.604004C7.15358 0.869741 7.67011 0.94272 7.70847 1.36963C7.7402 1.68611 7.58192 2.18353 7.1284 2.21533C7.04075 2.22403 6.95185 2.21476 6.86765 2.18896C6.78365 2.16319 6.70568 2.12107 6.63816 2.06494C6.57064 2.00875 6.51463 1.93966 6.4741 1.86182C6.43359 1.7839 6.40902 1.69832 6.40183 1.61084C6.38364 1.42014 6.41375 1.2272 6.48972 1.05127C6.56571 0.875508 6.6851 0.721714 6.8364 0.604004Z" fill="#38383A"/>
</svg>
