<svg width="284" height="284" viewBox="0 0 284 284" fill="none" xmlns="http://www.w3.org/2000/svg">
<path d="M179.111 119.883C181.227 117.962 185.897 116.056 187.59 123.833C189.707 133.562 181.255 177.113 236.463 172.728C256.476 171.138 249.994 157.475 240.469 151.952V133.199C241.883 131.523 256.971 138.78 264.044 154.555C269.333 166.355 263.115 189.828 253.142 193.411C241.119 197.728 193.984 211.014 182.978 151.952H176.619C176.374 156.399 168.848 165.497 140.652 166.361C134.769 196.624 106.37 250.79 39.7857 225.434C25.2082 220.871 -3.10384 202.095 0.277962 163.479C1.22656 155.313 6.79007 137.894 21.4528 133.57C4.64031 155.786 -9.23711 201.741 69.766 207.796C97.5131 207.315 144.69 194.958 111.394 149.419C108.102 145.576 103.066 135.074 109.274 123.833C126.321 140.044 164.154 161.951 179.111 119.883ZM86.8177 143.191C90.22 143.265 92.4548 146.756 91.0806 149.861L83.207 167.615C82.2851 169.693 80.0245 170.833 77.8026 170.334L56.0454 165.431C53.278 164.807 51.656 161.927 52.5745 159.249L57.1869 145.864C57.8606 143.907 59.7255 142.59 61.7992 142.634L86.8177 143.191ZM255.448 99.8275L280.07 104.266C283.416 104.87 285.078 108.665 283.238 111.517L272.686 127.83C271.45 129.737 269.024 130.526 266.909 129.69L246.177 121.44C245.682 121.242 245.254 120.951 244.872 120.626L239.724 130.363C238.75 132.186 236.707 133.169 234.669 132.804L210.023 128.388C206.68 127.78 205.036 123.965 206.878 121.114L217.431 104.801C218.668 102.89 221.09 102.123 223.208 102.965L243.917 111.191C244.403 111.385 244.844 111.665 245.221 111.981L250.393 102.291C251.365 100.461 253.405 99.46 255.448 99.8275ZM164.459 80.9342L189.081 85.3729C192.427 85.9752 194.083 89.7717 192.249 92.6234L181.697 108.937C180.461 110.846 178.037 111.635 175.92 110.796L155.188 102.546C154.692 102.348 154.266 102.058 153.883 101.733L148.735 111.47C147.761 113.295 145.72 114.277 143.68 113.91L119.034 109.495C115.69 108.887 114.044 105.072 115.889 102.221L126.442 85.9074C127.68 84.0012 130.103 83.231 132.219 84.0715L152.928 92.2981C153.414 92.4912 153.854 92.7723 154.232 93.0882L159.404 83.3976C160.377 81.5717 162.418 80.5671 164.459 80.9342ZM250.416 72.4288C253.818 72.5026 256.053 75.9935 254.679 79.0984L246.805 96.8529C245.884 98.9309 243.623 100.07 241.401 99.5719L219.644 94.6685C216.877 94.044 215.255 91.1642 216.173 88.4869L220.785 75.1013C221.459 73.144 223.324 71.8279 225.398 71.8711L250.416 72.4288ZM159.427 53.5355C162.831 53.6094 165.068 57.1225 163.69 60.2284L155.817 77.9829C154.895 80.0592 152.633 81.1989 150.412 80.7019L128.655 75.7984C125.886 75.1736 124.262 72.2723 125.184 69.5936L129.796 56.208C130.471 54.2516 132.336 52.9578 134.409 53.0011L159.427 53.5355Z" fill="#38383A"/>
</svg>
