<svg width="7" height="12" viewBox="0 0 7 12" fill="none" xmlns="http://www.w3.org/2000/svg">
<path d="M4.74609 4.31055C5.05055 4.20934 5.1017 4.51577 5.24121 4.6709C5.31503 4.77167 5.38217 4.87737 5.44141 4.9873C6.114 5.95588 5.75879 7.18091 6.44727 8.2666C7.08168 9.28574 5.52086 11.2514 4.1123 11.6758C2.70362 12.0999 1.39944 11.4157 0.761719 9.96289C0.758009 9.94508 0.755459 9.92702 0.751953 9.90918V9.97266C0.608671 9.67108 0.53424 9.34155 0.53418 9.00781C0.53418 8.67389 0.608573 8.34373 0.751953 8.04199V7.95312C0.756714 7.92363 0.765971 7.89486 0.780273 7.86816V7.86719C0.781604 7.57605 0.863264 7.29078 1.0166 7.04297C1.17125 6.79309 1.39308 6.59153 1.65625 6.45996L0.973633 7.87402C0.97493 9.20591 1.40068 9.95459 2.42383 10.3623C2.95792 10.5648 3.54073 10.6021 4.09668 10.4707C4.65261 10.3392 5.15678 10.0451 5.54297 9.625C5.68574 9.46358 5.92062 9.30769 5.86035 9.07031C5.7999 8.83326 5.50764 8.84315 5.29199 8.81152C5.19676 8.8104 5.1019 8.79752 5.00977 8.77344C4.69252 8.63734 4.12115 8.97257 4.05762 8.30176C3.99099 7.70985 4.27998 7.45918 4.84473 7.35156C5.55522 7.23129 5.56486 6.83936 5.22559 6.2793C4.97184 5.85844 4.51811 5.52262 4.54004 4.96582C4.54004 4.73486 4.44205 4.412 4.74609 4.31055ZM5.03906 2.66406C5.15957 2.39836 5.40639 2.45528 5.60938 2.57227C5.81242 2.68937 6.07322 2.81322 6.02246 3.1582C5.84493 3.50326 5.80617 4.10674 5.14648 3.7334C4.78502 3.52156 4.63535 3.623 4.41016 3.92676C4.18493 4.23042 3.82361 4.05681 3.57617 3.87012C3.2589 3.62639 3.52566 3.35408 3.61133 3.11035C3.73503 2.76229 3.97874 2.68641 4.27051 2.91406C4.66707 3.23055 4.86457 3.05971 5.03906 2.66406ZM4.2168 0.942383C4.59741 1.1164 5.08588 1.13863 5.07031 1.60352C5.07031 1.88518 5.0101 2.36065 4.54395 2.35449C4.45812 2.36557 4.37062 2.35956 4.28711 2.33691C4.20358 2.31424 4.12504 2.27462 4.05664 2.22168C3.98848 2.16885 3.93136 2.10316 3.88867 2.02832C3.8459 1.95322 3.8182 1.86991 3.80762 1.78418C3.78643 1.61943 3.81409 1.4522 3.88672 1.30273C3.95939 1.15325 4.07397 1.02782 4.2168 0.942383Z" fill="#38383A"/>
</svg>
