<svg width="284" height="284" viewBox="0 0 284 284" fill="none" xmlns="http://www.w3.org/2000/svg">
<path d="M108.852 72.6488C111.145 70.1819 115.73 67.4708 115.73 76.3545C115.732 87.4751 119.206 131.967 150.071 151.16C161.343 155.538 184.837 159.419 188.589 139.931C190.073 138.478 194.022 137.751 197.967 146.428C202.907 157.284 229.119 171.343 231.036 137.052C231.612 134.772 233.908 131.175 238.449 135.065L241.664 146.428C242.407 150.213 245.319 157.671 251.043 157.277C258.21 156.786 278.677 158.86 265.601 144.686C263.92 136.993 262.179 122.078 268.638 123.903C273.76 127.378 283.998 137.692 284 151.16C284 168 272.105 176.917 263.681 176.921C255.257 176.921 244.353 179.898 232.956 165.536C228.991 174.784 215.212 187.725 191.826 165.536C189.889 164.431 184.994 162.882 180.952 165.536C176.485 170.635 163.319 178.451 146.32 168.974C139.467 162.964 126.406 153.861 129.038 165.536C129.322 177.72 120.062 204.967 80.7402 216.545C67.1687 218.757 36.6936 220.098 23.422 207.795C10.1569 195.494 2.81588 182.086 0.802831 176.921C-1.61282 162.887 0.0167957 132.293 25.8335 122.162C27.3462 122.943 29.4547 125.703 25.8335 130.511C21.2919 136.534 -6.01391 159.693 24.6724 182.279C55.3585 204.864 89.2518 196.959 117.114 173.997C119.938 172.39 123.603 163.322 115.73 139.931C112.861 129.914 107.472 102.447 108.852 72.6488ZM224.851 95.8651L248.452 100.129C251.66 100.709 253.252 104.354 251.489 107.094L241.374 122.765C240.19 124.596 237.864 125.354 235.837 124.551L215.964 116.626C215.49 116.436 215.08 116.156 214.713 115.845L209.779 125.198C208.845 126.949 206.887 127.893 204.933 127.542L181.309 123.301C178.105 122.717 176.529 119.051 178.295 116.313L188.41 100.642C189.596 98.8071 191.918 98.0702 193.948 98.8788L213.798 106.781C214.264 106.967 214.686 107.237 215.048 107.54L220.005 98.2314C220.937 96.4738 222.893 95.5121 224.851 95.8651ZM217.862 67.5367C221.117 67.6148 223.242 70.9642 221.926 73.9435L214.379 90.9986C213.495 92.995 211.328 94.0898 209.198 93.6104L188.343 88.9002C185.691 88.3004 184.136 85.534 185.016 82.9622L189.437 70.1039C190.083 68.224 191.871 66.9598 193.858 67.001L217.862 67.5367Z" fill="#38383A"/>
</svg>
