<svg width="284" height="284" viewBox="0 0 284 284" fill="none" xmlns="http://www.w3.org/2000/svg">
<path d="M284 149.058C284 135.563 273.758 125.237 268.637 121.76C262.176 119.932 263.924 134.879 265.606 142.581C278.689 156.782 258.201 154.691 251.043 155.185C245.316 155.581 242.404 148.101 241.663 144.311L238.454 132.943C233.913 129.045 231.625 132.637 231.049 134.92C229.134 169.272 202.91 155.185 197.973 144.311C194.024 135.612 190.074 136.356 188.593 137.815C184.842 157.332 161.359 153.443 150.087 149.058C119.204 129.833 115.743 85.247 115.743 74.1258C115.743 65.2288 111.158 67.9458 108.865 70.4164C107.483 100.271 112.874 127.788 115.743 137.815C123.619 161.248 119.939 170.317 117.115 171.923C89.2512 194.92 55.3634 202.836 24.6761 180.217C-6.01122 157.597 21.2873 134.412 25.829 128.38C29.4624 123.555 27.3429 120.792 25.829 120.013C0.00884789 130.161 -1.61259 160.805 0.804211 174.859C2.81785 180.033 10.1632 193.461 23.4352 205.783C36.7073 218.105 67.1692 216.756 80.7411 214.542C120.075 202.944 129.333 175.646 129.045 163.446C126.413 151.753 139.463 160.867 146.317 166.886C163.331 176.392 176.508 168.554 180.97 163.446C185.012 160.788 189.897 162.339 191.834 163.446C215.226 185.676 229.001 172.709 232.964 163.446C244.363 177.834 255.26 174.859 263.686 174.859C272.111 174.859 284 165.927 284 149.058Z" fill="#38383A"/>
</svg>
