<svg width="284" height="284" viewBox="0 0 284 284" fill="none" xmlns="http://www.w3.org/2000/svg">
<path d="M262.96 74.5138C256.053 87.1982 260.082 96.107 262.96 98.9759C273.686 118.101 232.436 116.3 226.339 98.9759L220.295 87.1206C218.603 84.719 214.084 84.5269 209.544 102.971C205.003 121.415 179.393 116.18 167.155 111.256L145.275 91.8036C130.927 81.4288 132.601 98.7657 135.232 108.731C149.579 124.29 154.123 135.63 154.601 139.355C170.024 158.087 90.7542 208.52 40.1791 178.62C-10.3961 148.721 16.8643 115.939 27.2662 104.772C35.5878 95.8383 34.5983 92.404 33.0634 91.8036C4.94218 105.636 -0.657293 134.551 0.0581227 147.28C1.49755 170.455 19.8 216.013 81.4945 212.843C143.189 209.673 166.504 160.368 170.45 136.113C191.612 136.113 202.729 132.87 209.544 125.306C214.996 119.254 218.983 121.103 220.295 122.784C280.913 160.609 281.631 116.296 283.783 108.731C285.935 101.166 271.593 58.6582 262.96 74.5138Z" fill="#38383A"/>
</svg>
