<svg width="284" height="284" viewBox="0 0 284 284" fill="none" xmlns="http://www.w3.org/2000/svg">
<path d="M239.969 119.595C246.961 106.84 258.567 141.03 256.824 147.115C255.081 153.203 254.502 188.856 205.412 158.433C204.349 157.081 201.118 155.584 196.702 160.452C191.182 166.534 182.175 169.141 165.04 169.141C161.845 188.652 142.97 228.321 93.0069 230.874C43.0477 233.423 28.2164 196.779 27.047 178.134C26.4676 167.895 31.0135 144.622 53.7888 133.496C55.0272 133.987 55.8013 136.754 49.0807 143.921C40.6568 152.904 18.5843 179.28 59.5326 203.33C100.493 227.381 164.702 186.815 152.211 171.747C151.821 168.747 148.145 159.624 136.533 147.115C134.403 139.1 133.039 125.157 144.654 133.496L162.38 149.158C172.292 153.117 193.021 157.315 196.702 142.489C200.379 127.653 204.042 127.807 205.412 129.739L210.308 139.272C215.248 153.206 248.654 154.655 239.969 139.272C237.639 136.965 234.377 129.797 239.969 119.595ZM204.07 83.3626L228.952 87.8476C232.335 88.4568 234.013 92.2918 232.154 95.1738L221.49 111.658C220.241 113.584 217.789 114.382 215.652 113.536L194.701 105.2C194.201 105.001 193.769 104.707 193.383 104.379L188.18 114.217C187.196 116.059 185.132 117.053 183.072 116.683L158.167 112.221C154.788 111.607 153.127 107.752 154.989 104.872L165.652 88.3877C166.902 86.4572 169.35 85.6821 171.49 86.5326L192.418 94.8451C192.909 95.0406 193.354 95.3239 193.736 95.6435L198.962 85.8517C199.944 84.0029 202.006 82.9913 204.07 83.3626ZM196.702 53.5646C200.134 53.6461 202.374 57.1696 200.986 60.3038L193.03 78.2436C192.098 80.3438 189.814 81.4956 187.568 80.991L165.582 76.0364C162.785 75.4055 161.146 72.4954 162.074 69.7903L166.735 56.2649C167.416 54.2877 169.301 52.9581 171.396 53.001L196.702 53.5646Z" fill="#38383A"/>
</svg>
