<svg width="10" height="6" viewBox="0 0 10 6" fill="none" xmlns="http://www.w3.org/2000/svg">
<path d="M7.63574 1.52588C7.69602 1.05427 7.84173 0.983799 8.22559 1.2085C8.65339 1.48283 8.99184 1.87609 9.19922 2.33936C9.40655 2.80254 9.47328 3.31605 9.39258 3.81689C9.37592 4.00762 9.30239 4.18941 9.18066 4.3374C9.05899 4.48528 8.89504 4.59247 8.71094 4.646C6.3663 5.3297 3.99918 5.659 1.63867 4.77588C0.00825958 4.16493 -0.366271 2.1746 0.864258 1.09521C0.886345 1.1204 0.92458 1.14849 0.921875 1.16748C0.544321 2.98753 0.744309 3.32671 2.62891 3.79834C4.51343 4.26989 6.45849 3.96311 8.33984 3.50732C8.92965 3.36492 8.73629 3.09873 8.42871 2.81396C8.04805 2.45951 7.54395 2.20933 7.63574 1.52588ZM4.50977 0.797363C4.61763 0.553658 4.7509 0.30055 5.05859 0.534668C5.44558 0.819481 6.02615 0.923957 6.06445 1.33838C6.00417 2.15503 5.63583 2.14309 5.18848 1.97217C4.74121 1.80122 4.37037 1.39266 3.91992 2.06982C3.71063 2.38619 3.25395 2.09231 3.02539 1.85498C2.74619 1.56377 2.90777 1.22132 3.0791 0.904785C3.29797 0.50946 3.53603 0.72124 3.76758 0.904785C4.05312 1.11369 4.3194 1.22149 4.50977 0.797363Z" fill="#38383A"/>
</svg>
