<svg width="284" height="284" viewBox="0 0 284 284" fill="none" xmlns="http://www.w3.org/2000/svg">
<path d="M189.017 113.569C194.026 112.298 203.026 111.923 198.986 120.623C185.267 129.061 160.194 147.74 169.549 155.017C176.425 159.444 190.233 171.434 190.425 183.921C190.66 199.533 186.192 217.25 159 221.445C131.82 225.632 118.019 205.371 121.528 186.502C125.044 167.63 137.706 164.799 121.528 155.017C110.31 148.235 95.6946 141.202 87.3689 137.422C85.3307 136.496 84.0025 134.489 84 132.262V120.568C84.0048 117.467 86.5405 114.941 89.6609 114.941H97.3101C98.2658 114.942 99.2077 115.195 100.044 115.655L141.438 138.493C144.491 140.744 153.072 143.048 163.004 134.293C172.938 125.537 184.482 116.833 189.017 113.569ZM159 172.502C153.137 167.689 139.797 162.361 133.236 179.502C126.68 196.646 149.095 198.28 161.127 196.96C169.017 195.171 179.623 187.785 159 172.502ZM149.253 63.089L178.441 68.3319C182.409 69.0435 184.377 73.5268 182.196 76.8961L169.687 96.1656C168.222 98.4206 165.348 99.3522 162.839 98.3615L138.262 88.617C137.675 88.3831 137.17 88.0406 136.716 87.6563L130.613 99.1576C129.459 101.313 127.039 102.473 124.621 102.04L95.4047 96.8244C91.44 96.1063 89.4896 91.6 91.6768 88.2327L104.186 68.9632C105.652 66.7066 108.524 65.8005 111.034 66.7947L135.583 76.5118C136.16 76.7404 136.681 77.0711 137.13 77.4451L143.26 65.9987C144.413 63.8375 146.831 62.6549 149.253 63.089Z" fill="#38383A"/>
</svg>
