<svg width="284" height="284" viewBox="0 0 284 284" fill="none" xmlns="http://www.w3.org/2000/svg">
<path d="M59.3594 116.119C69.8868 117.576 76.3026 138.851 78.1937 149.316C81.2308 157.482 94.842 175.44 124.968 181.919C162.63 190.018 208.409 187.294 255.79 170.976C260.992 169.624 265.464 163.19 241.82 148.213C239.424 147.257 234.736 143.63 235.118 136.761C235.604 128.163 238 110.954 250.417 121.689C262.841 132.44 288.892 158.491 272.645 186.444C259.642 208.803 185.024 213.446 149.345 212.968C125.21 212.725 74.6343 200.714 65.2699 154.66C63.3024 146.196 55.5485 133.889 40.3272 152.342C25.1003 170.807 11.1677 182.454 6.10876 185.963C2.33139 187.985 -3.59131 188.583 2.88488 174.822C10.9857 157.613 46.1925 114.315 59.3594 116.119ZM249.342 72.091L279.234 77.492C283.294 78.2241 285.303 82.8446 283.08 86.3144L270.269 106.165C268.769 108.488 265.826 109.448 263.256 108.427L238.087 98.3888C237.487 98.1478 236.968 97.7944 236.503 97.3991L230.254 109.247C229.071 111.468 226.594 112.663 224.117 112.216L194.197 106.844C190.137 106.103 188.139 101.461 190.379 97.9929L203.19 78.1423C204.693 75.826 207.637 74.8877 210.203 75.9084L235.344 85.9185C235.933 86.153 236.469 86.4966 236.928 86.88L243.206 75.0884C244.388 72.8693 246.867 71.6449 249.342 72.091Z" fill="#38383A"/>
</svg>
