<svg width="7" height="10" viewBox="0 0 7 10" fill="none" xmlns="http://www.w3.org/2000/svg">
<path d="M1.24316 0.25293C1.60168 0.0376893 2.02067 0.284797 2.49023 0.604492C1.56063 0.569674 1.3738 1.01562 1.42773 1.7373C1.52926 3.15536 1.53178 4.58656 1.63965 5.99512C1.6762 6.42207 1.81829 6.83334 2.05273 7.19238C2.28732 7.55159 2.60745 7.84783 2.98438 8.05371C3.3612 8.2595 3.78332 8.36839 4.21289 8.37207C4.6426 8.37572 5.06688 8.27368 5.44727 8.07422C5.93565 7.83054 5.86629 7.56132 5.64746 7.16895C5.17481 6.32712 5.20278 6.32068 5.37402 5.52344C5.80089 5.81677 6.12382 6.23747 6.29492 6.72559C6.46603 7.21381 6.47688 7.74438 6.32617 8.23926C6.02469 9.2329 5.20883 9.44475 4.31738 9.50488C2.71532 9.61241 1.75694 8.89725 1.37305 7.32422C1.05577 6.0581 1.23336 4.7441 1.11914 3.45898C1.0557 2.76588 0.995832 2.07591 0.960938 1.38281C0.938731 0.977701 0.884784 0.468213 1.24316 0.25293ZM5.3623 3.48145C5.65407 3.23179 6.02162 3.56053 6.2627 3.79785C6.57997 4.11438 6.39667 4.43152 6.21582 4.74805C5.99383 5.11484 5.71759 4.89619 5.47656 4.78223C5.15929 4.62396 4.8827 4.51365 4.56543 4.86816C4.33702 5.12098 4.02914 4.90231 3.80078 4.73145C3.57269 4.56049 3.67121 4.2659 3.75684 4.03809C3.84246 3.81036 3.95672 3.55103 4.3623 3.64258C4.69861 3.91479 4.99744 3.80114 5.3623 3.48145Z" fill="#38383A"/>
</svg>
