<svg width="284" height="284" viewBox="0 0 284 284" fill="none" xmlns="http://www.w3.org/2000/svg">
<path d="M109.111 196.881C111.998 196.943 113.893 199.904 112.727 202.537L106.049 217.595C105.267 219.358 103.349 220.324 101.464 219.901L83.0087 215.743C80.6614 215.213 79.2858 212.771 80.0645 210.5L83.9769 199.147C84.5485 197.487 86.1301 196.371 87.8894 196.408L109.111 196.881ZM207.811 76.5746C212.004 80.7358 206.077 85.3857 202.575 87.198L204.353 143.587C223.325 130.131 245.81 127.638 254.682 128.075C294.939 139.85 285.156 161.548 275.232 170.924C267.934 175.568 242.601 184.857 199.611 184.858C145.866 184.858 148.037 168.573 147.386 166.706C146.866 165.227 145.75 166.086 145.252 166.706C141.13 175.889 133.024 181.231 129.484 182.749C96.6384 190.713 26.394 200.757 8.1982 177.29C-9.99157 153.821 6.28472 135.253 16.6949 128.903C30.2622 125.761 29.211 130.221 26.9897 132.845C10.7559 138.89 10.1192 150.27 11.834 155.215C12.5621 171.668 57.8402 174.778 80.3806 174.274C134.949 174.271 143.751 153.709 147.386 147.962C148.758 145.795 150.366 145.251 151.852 145.479C154.865 145.946 155.34 149.709 155.488 152.751C156.166 166.811 174.481 168.054 184.475 166.706L197.497 149.342L192.241 96.5599C183.733 96.3694 190.17 74.7717 194.454 64H199.611L207.811 76.5746ZM264.186 155.117C252.387 140.119 208.419 140.823 194.078 169.899C221.381 169.973 273.616 167.112 264.186 155.117Z" fill="#38383A"/>
</svg>
