<svg width="284" height="284" viewBox="0 0 284 284" fill="none" xmlns="http://www.w3.org/2000/svg">
<path d="M67.75 126.873C68.1486 121.098 72.9823 124.273 73.4177 126.873C77.1924 149.41 107.457 186.244 134.629 188.327C168.595 190.928 173.619 182.833 173.619 180.232C173.599 177.625 162.275 169.842 139.655 172.438C117.012 175.038 150.967 149.035 159.46 149.033C171.726 147.299 197.965 144.872 204.759 149.033C213.248 154.234 221.741 162.042 221.741 167.241C221.732 172.437 207.61 180.215 204.759 180.232C201.929 180.232 238.7 195.836 252.86 188.048C267.012 180.246 274.406 167.226 241.546 159.425C241.546 149.887 242.686 130.824 247.213 130.824C252.89 130.843 284 159.44 284 172.438C284 185.441 261.349 229.653 187.756 190.646C170.767 207.114 125.479 226.52 80.1976 172.438C79.2532 185.44 64.3558 208.314 34.92 206.235C-1.8768 203.635 -6.84402 152.158 7.30863 139.155C7.30839 152.158 3.78044 180.247 37.7432 185.45C62.1724 189.19 65.6877 156.761 67.75 126.873ZM149.665 92.088L170.517 100.247C172.901 101.181 174.17 103.802 173.426 106.26L170.218 116.824C169.453 119.328 166.867 120.794 164.336 120.152L139.056 113.732C135.842 112.914 134.351 109.193 136.105 106.367L143.74 94.0634C144.987 92.0624 147.473 91.2328 149.665 92.088ZM256.795 81.9745L277.648 90.134C280.031 91.0675 281.3 93.6883 280.557 96.1462L277.37 106.689C276.61 109.2 274.001 110.682 271.467 110.039L249.48 104.456L247.769 110.146C247.007 112.65 244.418 114.114 241.888 113.474L216.608 107.054C213.391 106.239 211.881 102.517 213.635 99.6892L221.27 87.3855C222.517 85.3795 225.021 84.5511 227.216 85.41L245.502 92.5604L250.871 83.9499C252.116 81.9453 254.602 81.1185 256.795 81.9745ZM46.8115 77.3364L67.6644 85.4959C70.0448 86.4301 71.3139 89.0526 70.5732 91.5082L67.365 102.073C66.6017 104.579 64.0155 106.043 61.4834 105.401L36.2033 99.0021C32.9863 98.1864 31.4975 94.4431 33.2518 91.6156L40.8658 79.3119C42.1121 77.3061 44.6172 76.4784 46.8115 77.3364Z" fill="#38383A"/>
</svg>
