<svg width="8" height="13" viewBox="0 0 8 13" fill="none" xmlns="http://www.w3.org/2000/svg">
<path d="M4.56924 2.21974C4.95282 2.28949 4.97861 2.58683 4.91201 2.87795C4.84538 3.16916 4.91135 3.59605 4.41006 3.44728C3.97575 3.32094 3.83622 3.6059 3.70303 3.89064C3.36528 4.54043 2.86568 5.09273 2.25283 5.49514C3.15386 5.44133 4.05493 5.37202 4.95596 5.3467C5.27323 5.3467 5.75603 5.08416 5.81631 5.59377C5.8617 5.81225 5.82093 6.03992 5.70303 6.22951C5.58495 6.41917 5.3981 6.55702 5.18154 6.6133C4.32665 6.83563 3.49793 7.14851 2.70986 7.54689C1.79929 8.0027 1.25944 8.66759 1.30068 9.69631C1.34209 10.7247 2.11037 11.0322 2.8876 11.3613C4.15647 11.8961 5.50792 11.6615 6.82119 11.7627C6.93214 11.7627 7.04344 11.7631 7.21768 11.7852C5.72314 13.339 2.14182 13.1742 1.15518 11.6328C0.635001 10.8258 0.837873 9.98087 1.01553 9.16115C1.17699 8.26109 1.59918 7.42763 2.23037 6.76467C1.80043 6.61614 1.33897 6.5809 0.891503 6.6631C0.206451 6.70733 0.24169 6.34715 0.400292 5.90724C0.622383 5.27418 1.19662 5.01442 1.71377 4.74221C2.66551 4.23897 3.64893 3.79227 3.88369 2.5674C3.94411 2.2511 4.26157 2.15962 4.56924 2.21974ZM4.72451 0.680682C4.92118 0.332576 5.15925 0.414215 5.42568 0.61037C5.69212 0.806564 5.94581 1.01267 5.74307 1.44924C5.59713 1.77209 5.45749 1.9018 5.04189 1.79103C4.91153 1.70175 4.75224 1.66492 4.5956 1.68654C4.4389 1.70821 4.29539 1.78687 4.19424 1.90822C3.87697 2.22473 3.4644 1.94343 3.18838 1.69338C2.9128 1.44345 3.07746 1.11412 3.23916 0.838885C3.55641 0.329304 3.82666 0.692903 4.07412 0.882831C4.41671 1.1455 4.56908 0.962301 4.72451 0.680682Z" fill="#38383A"/>
</svg>
