<svg width="284" height="284" viewBox="0 0 284 284" fill="none" xmlns="http://www.w3.org/2000/svg">
<path d="M236.431 81.3707C245.814 76.5429 262.782 74.7282 255.64 106.079C253.412 97.4481 240.651 87.778 207.416 118.09L267.053 133.63C268.683 138.488 269.782 148.215 261.179 148.215C252.574 148.216 225.019 150.152 212.308 151.123C193.406 160.84 151.773 174.444 136.521 151.123L128.212 142.377H125.018C118.992 149.321 100.546 162.933 74.9856 161.779C43.0338 160.336 10.4243 159.693 0.740553 134.673C-1.19938 125.958 -0.509771 106.374 17.6936 97.7766C10.2684 108.362 1.41054 131.012 25.4219 136.915C52.1703 144.4 109.542 151.503 125.018 120.065H128.212C130.797 127.443 140.84 142.643 160.332 144.441C176.308 144.996 203.457 144.68 201.497 132.098C201.03 129.172 161.105 130.938 159.326 127.969C157.146 127.586 156.387 119.514 159.326 115.559C162.266 111.605 174.242 114.073 183.472 111.585C192.702 109.095 236.431 81.3707 236.431 81.3707ZM91.5143 69.2939L115.123 73.5341C118.334 74.1095 119.925 77.7355 118.161 80.4605L108.043 96.045C106.858 97.8679 104.533 98.6222 102.504 97.821L82.6245 89.94C82.1501 89.7508 81.7405 89.4734 81.3737 89.163L76.4374 98.4648C75.5035 100.208 73.5464 101.146 71.5905 100.796L47.959 96.5778C44.7543 95.9957 43.1763 92.3516 44.9436 89.6292L55.0618 74.0447C56.2472 72.2203 58.571 71.4882 60.6012 72.2909L80.4579 80.1497C80.9241 80.3343 81.3458 80.6025 81.7087 80.9045L86.6673 71.6471C87.5992 69.9 89.5563 68.944 91.5143 69.2939ZM256.622 47.0716L280.232 51.3118C283.442 51.8872 285.033 55.5132 283.269 58.2382L273.151 73.8227C271.966 75.6456 269.641 76.3999 267.612 75.5987L247.733 67.7177C247.258 67.5285 246.849 67.2511 246.482 66.9407L241.545 76.2425C240.612 77.9854 238.654 78.9241 236.699 78.5735L213.067 74.3555C209.862 73.7734 208.284 70.1293 210.052 67.4069L220.17 51.8224C221.355 49.998 223.679 49.2659 225.709 50.0686L245.566 57.9274C246.032 58.112 246.454 58.3802 246.817 58.6822L251.775 49.4248C252.707 47.6777 254.664 46.7218 256.622 47.0716Z" fill="#38383A"/>
</svg>
