<svg width="14" height="10" viewBox="0 0 14 10" fill="none" xmlns="http://www.w3.org/2000/svg">
<path d="M9.16016 0.313477C9.33139 0.313477 9.57593 0.225227 9.58887 0.512695C9.58868 0.746542 9.39514 0.696563 9.24609 0.706055C9.00812 0.705989 8.61138 0.620929 8.61133 0.94043C8.61162 1.25965 9.02726 1.20005 9.28418 1.21582C9.69342 1.24431 10.1064 1.25371 10.5156 1.26953C10.8328 1.26957 11.1272 1.33312 11.1494 1.6875C11.1598 1.83336 11.1122 1.97804 11.0166 2.08887C10.9209 2.19945 10.7847 2.26798 10.6387 2.2793C8.54244 2.27947 9.37025 3.32368 9.50684 4.31738C9.61464 5.15609 9.50671 6.02138 9.76367 6.85059C9.96355 7.53055 10.3252 8.03975 11.0859 8.16016C12.0377 8.30575 12.2312 8.09066 11.9648 7.21094C11.8602 6.87242 11.8609 6.87169 12.1367 6.16309C12.9297 7.0334 13.0882 8.48279 12.4541 9.05273C11.8195 9.62218 10.5052 9.36905 9.6709 8.50195C8.62732 9.51774 8.36395 9.54029 7.24414 8.60352C7.00314 8.3979 6.92682 8.40417 6.65723 8.60352C5.96163 9.09968 5.16161 9.43175 4.31836 9.57324C3.47508 9.7147 2.61006 9.66182 1.79004 9.41992C1.376 9.29885 1.0021 9.06887 0.708008 8.75391C0.413854 8.43872 0.209743 8.04975 0.118164 7.62891C-0.0689984 6.92948 0.397274 5.72928 0.949219 5.31445C1.18066 5.54863 0.94966 5.72023 0.854492 5.89746C0.353476 6.89744 0.587799 7.61639 1.59961 8.11328C3.03359 8.83173 5.96502 8.2328 7.01855 6.99219C7.22381 7.26933 7.44813 7.53279 7.68848 7.78027C7.85939 7.94803 8.08131 8.05527 8.31934 8.08398C8.55748 8.11261 8.79882 8.06095 9.00488 7.93848C9.49649 7.68532 9.36355 7.27734 9.32227 6.86914C9.1922 5.60313 8.85586 4.33668 9.00488 3.02637C9.1897 2.42812 8.87192 2.51358 8.54199 2.48828C8.10102 2.45347 7.65655 2.43177 7.21875 2.39062C7.06343 2.37479 6.87956 2.32005 7.03125 2.1084C7.07564 2.0483 7.20975 2.05433 7.30176 2.03223C7.30819 2.03119 7.31485 2.03032 7.32129 2.0293C8.30906 2.0174 9.31834 2.21478 10.2617 1.69727H10.0586C10.0646 1.63966 9.95656 1.62486 10.0244 1.69727H8.4248C8.10761 1.0074 8.42447 0.38337 9.16016 0.313477ZM4.50195 5.8916C4.76837 5.32845 5.10748 5.49924 5.49121 5.7207C5.87508 5.94226 5.8344 6.23978 5.70117 6.60059C5.47908 7.21782 5.12049 6.85375 4.79688 6.75879C4.70825 6.72922 4.62157 6.69421 4.53711 6.6543C4.25168 6.6543 4.21975 6.9268 4.06445 7.05664C3.94238 7.16018 3.78507 7.21407 3.625 7.20703C3.46499 7.19999 3.31362 7.13234 3.20117 7.01855C2.88391 6.77483 3.01371 6.47402 3.12793 6.16699C3.26753 5.78716 3.47691 5.80638 3.77832 5.98047C4.02579 6.12291 4.33697 6.23978 4.50195 5.8916ZM11.9854 4.17676C12.2518 3.61341 12.5908 3.78433 12.9746 4.00586C13.3585 4.22743 13.3178 4.5249 13.1846 4.88574C12.9625 5.50243 12.6038 5.13893 12.2803 5.04395C12.1917 5.0144 12.1049 4.97934 12.0205 4.93945C11.7352 4.93945 11.7029 5.2109 11.5479 5.34082C11.4258 5.44436 11.2685 5.49826 11.1084 5.49121C10.9483 5.48416 10.797 5.41659 10.6846 5.30273C10.3676 5.05914 10.4972 4.759 10.6113 4.45215C10.7509 4.0724 10.9604 4.09067 11.2617 4.26465C11.5091 4.40704 11.8203 4.52455 11.9854 4.17676ZM4.04883 4.14355C4.32478 4.35557 4.86389 4.28295 4.81348 4.81738C4.77224 5.21612 4.57233 5.53326 4.08398 5.45117C3.70331 5.39104 3.42372 5.20087 3.51562 4.77051C3.57591 4.49513 3.61734 4.14355 4.04883 4.14355Z" fill="#38383A"/>
</svg>
