<svg version="1.1" id="Layer_1" xmlns="http://www.w3.org/2000/svg" xmlns:xlink="http://www.w3.org/1999/xlink" x="0px" y="0px"
	 width="100%" viewBox="0 0 101 92" enable-background="new 0 0 101 92" xml:space="preserve">
<path fill="#FFFFFF" opacity="1.000000" stroke="none" 
	d="
M61.000000,93.000000 
	C40.666672,93.000000 20.833340,93.000000 1.000008,93.000000 
	C1.000005,62.333344 1.000005,31.666685 1.000003,1.000020 
	C34.666653,1.000014 68.333305,1.000014 101.999969,1.000007 
	C101.999977,31.666647 101.999977,62.333294 101.999985,92.999969 
	C88.500000,93.000000 75.000000,93.000000 61.000000,93.000000 
M83.997971,35.757069 
	C83.399063,38.706421 82.800163,41.655777 82.130066,44.955711 
	C81.722534,44.982426 80.233620,45.080013 77.954185,45.051140 
	C76.091415,44.656288 73.876183,44.773819 72.427353,43.777199 
	C66.404762,39.634384 60.613235,35.155663 54.682201,30.759645 
	C59.961445,28.053686 65.629211,24.954044 71.470062,22.224823 
	C75.211441,20.476614 75.644783,17.552736 75.810173,12.666022 
	C68.036034,17.538006 60.971626,21.467442 54.478752,26.183699 
	C48.759384,30.338095 51.622070,36.377403 55.737110,38.979885 
	C57.862900,40.324299 59.901649,41.806335 61.979725,43.226192 
	C61.876789,43.689816 61.773857,44.153442 61.670921,44.617065 
	C58.505234,44.790894 55.339542,44.964725 51.515545,45.009361 
	C49.425198,44.384769 47.334854,43.760174 45.366573,43.172050 
	C43.325233,44.073772 41.099049,45.642696 38.694725,45.994640 
	C34.007229,46.680786 29.180626,47.203148 24.483784,46.845577 
	C18.203602,46.367466 15.931628,42.521523 17.480219,35.753498 
	C16.546432,36.386623 15.625385,36.664070 15.384610,37.230621 
	C13.807692,40.941143 11.795948,44.456306 14.245970,48.815170 
	C16.542719,52.901352 20.249271,53.328808 24.088148,54.006405 
	C33.741333,55.710285 42.771980,49.313679 53.423309,51.978470 
	C59.024551,52.617504 64.014137,52.112602 65.269096,44.868950 
	C69.520691,48.673653 72.380905,53.908913 79.658867,51.976635 
	C84.777275,51.876114 86.960274,50.001022 86.935631,45.093250 
	C86.918648,41.710094 86.302742,38.329941 86.694824,34.982368 
	C87.911148,33.646877 89.127480,32.311382 90.347992,30.971298 
	C85.444710,27.036440 80.576080,27.922651 78.065399,33.330021 
	C80.142128,33.902241 82.111191,34.444798 83.997971,35.757069 
M25.583622,35.062534 
	C28.211285,37.031013 33.564613,35.928383 35.720440,33.147537 
	C34.301361,30.738607 33.129360,28.267597 31.500847,26.147202 
	C30.338303,24.633524 28.115944,23.105137 26.936543,25.796122 
	C25.758829,28.483255 25.649807,31.638773 25.583622,35.062534 
M36.609009,72.922981 
	C36.793587,77.653259 32.529301,76.128838 30.405245,76.763443 
	C27.484064,77.636192 23.673628,77.900612 23.326609,72.797264 
	C22.631653,73.365364 22.182838,73.596191 22.210054,73.730698 
	C22.544342,75.382736 22.406734,77.851974 23.428467,78.517586 
	C27.728556,81.318886 32.230995,79.683617 36.330978,77.718407 
	C37.604130,77.108147 38.126259,74.931068 38.992218,73.471306 
	C38.312405,73.087074 37.632587,72.702850 36.609009,72.922981 
M70.273018,76.993469 
	C67.415779,76.848015 63.815929,78.146217 62.870495,73.214317 
	C62.436924,75.217484 62.162861,77.363258 63.105724,78.375343 
	C65.548134,80.997086 74.643997,80.072212 77.427727,76.862381 
	C78.489677,75.637878 78.345284,73.367180 78.750656,71.573265 
	C78.018494,71.178947 77.286331,70.784637 76.554161,70.390327 
	C78.832779,77.115852 73.456856,75.347824 70.273018,76.993469 
M55.996895,76.222572 
	C55.497746,71.872177 54.998596,67.521774 54.499447,63.171375 
	C53.925442,63.257793 53.351440,63.344208 52.777435,63.430622 
	C53.106350,65.770020 53.352909,68.124603 53.781040,70.445694 
	C54.720127,75.536865 53.722401,77.494179 47.520798,76.839424 
	C46.472649,76.728760 45.402790,76.823799 44.342960,76.823799 
	C44.363022,77.372391 44.383087,77.920982 44.403149,78.469574 
	C48.286880,78.580635 52.296284,80.815964 55.996895,76.222572 
z"/>
<path fill="#006838" opacity="1.000000" stroke="none" 
	d="
M78.815346,51.826565 
	C72.380905,53.908913 69.520691,48.673653 65.269096,44.868950 
	C64.014137,52.112602 59.024551,52.617504 52.992271,51.494843 
	C52.432102,49.053661 52.302979,47.096111 52.173855,45.138557 
	C55.339542,44.964725 58.505234,44.790894 61.670921,44.617065 
	C61.773857,44.153442 61.876789,43.689816 61.979725,43.226192 
	C59.901649,41.806335 57.862900,40.324299 55.737110,38.979885 
	C51.622070,36.377403 48.759384,30.338095 54.478752,26.183699 
	C60.971626,21.467442 68.036034,17.538006 75.810173,12.666022 
	C75.644783,17.552736 75.211441,20.476614 71.470062,22.224823 
	C65.629211,24.954044 59.961445,28.053686 54.682201,30.759645 
	C60.613235,35.155663 66.404762,39.634384 72.427353,43.777199 
	C73.876183,44.773819 76.091415,44.656288 78.397369,45.528366 
	C78.832153,47.945915 78.823746,49.886238 78.815346,51.826565 
z"/>
<path fill="#F28220" opacity="1.000000" stroke="none" 
	d="
M51.844700,45.073959 
	C52.302979,47.096111 52.432102,49.053661 52.522026,51.429771 
	C42.771980,49.313679 33.741333,55.710285 24.088148,54.006405 
	C20.249271,53.328808 16.542719,52.901352 14.245970,48.815170 
	C11.795948,44.456306 13.807692,40.941143 15.384610,37.230621 
	C15.625385,36.664070 16.546432,36.386623 17.480219,35.753498 
	C15.931628,42.521523 18.203602,46.367466 24.483784,46.845577 
	C29.180626,47.203148 34.007229,46.680786 38.694725,45.994640 
	C41.099049,45.642696 43.325233,44.073772 45.366573,43.172050 
	C47.334854,43.760174 49.425198,44.384769 51.844700,45.073959 
z"/>
<path fill="#F68320" opacity="1.000000" stroke="none" 
	d="
M25.327950,34.825745 
	C25.649807,31.638773 25.758829,28.483255 26.936543,25.796122 
	C28.115944,23.105137 30.338303,24.633524 31.500847,26.147202 
	C33.129360,28.267597 34.301361,30.738607 35.720440,33.147537 
	C33.564613,35.928383 28.211285,37.031013 25.327950,34.825745 
z"/>
<path fill="#034EA1" opacity="1.000000" stroke="none" 
	d="
M79.237106,51.901600 
	C78.823746,49.886238 78.832153,47.945915 78.792633,45.591595 
	C80.233620,45.080013 81.722534,44.982426 82.130066,44.955711 
	C82.800163,41.655777 83.399063,38.706421 84.009918,35.382370 
	C84.021866,35.007675 83.981407,35.054432 84.326996,35.030357 
	C85.134308,35.019806 85.596031,35.033321 86.031967,35.022224 
	C86.006165,34.997612 85.954514,34.948448 85.954514,34.948448 
	C86.302742,38.329941 86.918648,41.710094 86.935631,45.093250 
	C86.960274,50.001022 84.777275,51.876114 79.237106,51.901600 
z"/>
<path fill="#F6821F" opacity="1.000000" stroke="none" 
	d="
M36.780891,72.620804 
	C37.632587,72.702850 38.312405,73.087074 38.992218,73.471306 
	C38.126259,74.931068 37.604130,77.108147 36.330978,77.718407 
	C32.230995,79.683617 27.728556,81.318886 23.428467,78.517586 
	C22.406734,77.851974 22.544342,75.382736 22.210054,73.730698 
	C22.182838,73.596191 22.631653,73.365364 23.326609,72.797264 
	C23.673628,77.900612 27.484064,77.636192 30.405245,76.763443 
	C32.529301,76.128838 36.793587,77.653259 36.780891,72.620804 
z"/>
<path fill="#034EA2" opacity="1.000000" stroke="none" 
	d="
M84.051056,34.997513 
	C82.111191,34.444798 80.142128,33.902241 78.065399,33.330021 
	C80.576080,27.922651 85.444710,27.036440 90.347992,30.971298 
	C89.127480,32.311382 87.911148,33.646877 86.324669,34.965408 
	C85.954514,34.948448 86.006165,34.997612 85.939308,34.691509 
	C85.247993,34.116947 84.623535,33.848488 83.999077,33.580029 
	C83.993187,34.071495 83.987297,34.562965 83.981407,35.054432 
	C83.981407,35.054432 84.021866,35.007675 84.051056,34.997513 
z"/>
<path fill="#034EA2" opacity="1.000000" stroke="none" 
	d="
M70.696671,76.972900 
	C73.456856,75.347824 78.832779,77.115852 76.554161,70.390327 
	C77.286331,70.784637 78.018494,71.178947 78.750656,71.573265 
	C78.345284,73.367180 78.489677,75.637878 77.427727,76.862381 
	C74.643997,80.072212 65.548134,80.997086 63.105724,78.375343 
	C62.162861,77.363258 62.436924,75.217484 62.870495,73.214317 
	C63.815929,78.146217 67.415779,76.848015 70.696671,76.972900 
z"/>
<path fill="#006838" opacity="1.000000" stroke="none" 
	d="
M55.975906,76.672318 
	C52.296284,80.815964 48.286880,78.580635 44.403149,78.469574 
	C44.383087,77.920982 44.363022,77.372391 44.342960,76.823799 
	C45.402790,76.823799 46.472649,76.728760 47.520798,76.839424 
	C53.722401,77.494179 54.720127,75.536865 53.781040,70.445694 
	C53.352909,68.124603 53.106350,65.770020 52.777435,63.430622 
	C53.351440,63.344208 53.925442,63.257793 54.499447,63.171375 
	C54.998596,67.521774 55.497746,71.872177 55.975906,76.672318 
z"/>
<path fill="#FFFFFF" opacity="1.000000" stroke="none" 
	d="
M84.326996,35.030357 
	C83.987297,34.562965 83.993187,34.071495 83.999077,33.580029 
	C84.623535,33.848488 85.247993,34.116947 85.965103,34.716125 
	C85.596031,35.033321 85.134308,35.019806 84.326996,35.030357 
z"/>
</svg>