<svg width="10" height="11" viewBox="0 0 10 11" fill="none" xmlns="http://www.w3.org/2000/svg">
<path d="M7.74665 2.85308C8.06373 2.67289 8.15251 3.03936 8.27301 3.22613C9.16772 4.60936 8.66308 5.86599 7.06403 6.21734C6.16618 6.41041 5.25875 6.59409 4.3736 6.16363C4.05645 6.00232 3.98022 6.16415 3.85016 6.43316C3.55197 7.06579 3.14891 6.94556 2.95856 6.38238C2.66988 5.53103 2.08635 5.48642 1.37262 5.65093C0.598479 5.82819 0.395601 6.3889 0.478092 7.08843C0.657551 8.11521 0.729008 9.15811 0.692936 10.1998C0.659035 10.3335 0.612136 10.4636 0.553287 10.5884C0.105676 9.09698 -0.0394409 7.53111 0.125553 5.98296C0.144524 5.73611 0.215399 5.49561 0.333561 5.27789C0.45169 5.06033 0.614402 4.86999 0.8111 4.71929C1.00795 4.56857 1.23482 4.4605 1.47614 4.40289C1.71762 4.34529 1.9694 4.33967 2.21344 4.38531C2.86663 4.51803 3.00362 4.21718 3.20661 3.67925C4.24087 5.45134 5.74446 5.34431 7.33063 4.92339C7.87951 4.77779 8.22841 4.57144 7.75251 3.9732C7.66863 3.83894 7.60838 3.69129 7.57477 3.53668C7.5224 3.42023 7.51067 3.28942 7.54157 3.16558C7.57264 3.04158 7.64536 2.93135 7.74665 2.85308ZM8.21833 0.431207C8.35158 0.288768 8.82828 0.649864 9.07575 0.887262C9.32266 1.12445 9.07585 1.41543 8.98688 1.65582C8.83459 2.01666 8.51023 1.94743 8.26911 1.80816C7.97755 1.64382 7.81589 1.63114 7.57184 1.91558C7.32761 2.20037 6.98166 1.98873 6.74372 1.79253C6.42644 1.53931 6.588 1.22241 6.70856 0.931207C6.77828 0.769788 6.78815 0.541949 7.11481 0.58941C7.54624 1.19706 7.81865 0.842623 8.21833 0.431207Z" fill="#38383A"/>
</svg>
