<svg width="14" height="9" viewBox="0 0 14 9" fill="none" xmlns="http://www.w3.org/2000/svg">
<path d="M4.85356 0.148926C5.24687 0.48435 5.15225 0.939957 5.19341 1.36084C5.24417 1.89261 5.31403 2.42474 5.35845 2.94385C5.43776 3.92817 5.88461 4.6153 6.89653 4.84326C7.39249 4.93873 7.90602 4.88605 8.37212 4.69189C8.83821 4.49767 9.23702 4.17048 9.51763 3.75146C9.56715 3.67954 9.62149 3.61051 9.67974 3.54541C10.0409 3.75431 9.96491 4.17821 10.212 4.42822C10.5705 4.77955 10.9517 5.00161 11.4815 4.72314C12.0113 4.4446 11.6143 4.16572 11.5127 3.87451C11.4159 3.60437 11.4159 3.30871 11.5127 3.03857C11.5857 2.82658 11.7509 2.72271 11.9317 2.9126C12.1795 3.20323 12.3429 3.55636 12.4034 3.93311C12.4637 4.30961 12.4188 4.6953 12.2745 5.04834C12.1957 5.37693 11.9922 5.66287 11.7071 5.84521C11.422 6.02742 11.0772 6.09256 10.7452 6.02686C10.5358 5.99834 10.2436 5.91288 10.1612 5.76416C9.67579 4.85909 9.273 5.24198 8.67974 5.69775C8.35861 5.9371 7.97736 6.08329 7.57817 6.11963C7.17899 6.15593 6.77724 6.08123 6.41802 5.90381C5.78347 5.60944 5.60252 5.74852 5.39946 6.37842C4.76486 8.40411 2.4675 9.03974 0.92876 7.67236C-0.279661 6.59918 -0.076231 4.22224 1.32915 3.19678C1.40847 3.63359 1.07763 3.89978 0.918994 4.21631C0.313103 5.42537 0.55154 6.24886 1.74126 6.90088C2.71202 7.42931 3.58463 7.09003 4.4063 6.54248C5.12941 6.06143 5.25302 5.41932 5.05962 4.56494C4.83817 3.42134 4.68043 2.26599 4.58696 1.10498C4.5362 0.788459 4.50142 0.41481 4.85356 0.148926ZM7.55376 1.13623C7.74604 1.15451 7.93054 1.2222 8.08892 1.33252C8.24725 1.44288 8.37466 1.5923 8.45806 1.76611C8.27407 2.18071 8.2389 2.658 7.7188 2.56006C7.37614 2.49359 6.90926 2.40847 7.01079 1.87354C7.06789 1.55701 7.09691 1.08559 7.55376 1.13623ZM12.2208 0.85791C12.4396 0.481316 12.7028 0.629369 12.9502 0.787598C13.1977 0.945863 13.5186 0.96218 13.5186 1.33252C13.36 1.80731 13.1627 2.24425 12.5313 2.01318C12.1823 1.88341 11.8971 1.69667 11.5577 2.10498C11.2658 2.4562 10.9233 2.10449 10.6631 1.91455C10.2825 1.59808 10.5584 1.28216 10.7139 1.00049C10.9392 0.563677 11.215 0.762517 11.4688 0.968262C11.7226 1.17392 12.0019 1.23439 12.2208 0.85791Z" fill="#38383A"/>
</svg>
