<svg width="13" height="11" viewBox="0 0 13 11" fill="none" xmlns="http://www.w3.org/2000/svg">
<path d="M10.7933 2.59661C11.6498 3.71386 11.9513 4.85317 11.3392 6.14446C11.1647 6.50844 10.8505 6.95555 10.5365 6.84173C9.68617 6.5252 8.80426 6.79976 8.03646 6.62884C7.26868 6.45793 7.04028 6.78151 6.79915 7.26263C6.60255 7.64875 6.56077 8.11095 6.38314 8.5097C6.1206 9.17623 5.63098 9.72914 5.00033 10.0712C4.36964 10.4133 3.63838 10.5224 2.9349 10.3798C1.63408 10.1203 0.749093 9.01894 0.714193 7.46478C0.676394 6.94723 0.745002 6.42738 0.916341 5.93743C1.08769 5.44753 1.35802 4.99787 1.71029 4.61614C1.80852 5.10647 1.485 5.37553 1.35482 5.69817C0.840837 6.96429 1.27855 8.3926 2.40169 8.96868C3.52481 9.5446 5.48267 8.98763 6.12044 7.9179C6.37416 7.48759 6.14572 7.18965 5.9554 6.88274C5.58738 6.28136 5.21629 5.69562 5.47005 4.94231C5.7491 4.78745 5.8632 5.04061 6.00911 5.17669C6.24383 5.40137 6.49468 5.64189 6.82454 5.59759C7.41146 5.52159 7.90978 5.04308 8.60775 5.55267C8.92502 5.77738 9.21354 5.06837 9.42611 4.5556C9.51612 4.80891 9.6222 5.05683 9.74349 5.29681C10.0607 5.7745 10.4825 5.74288 10.9076 5.52142C11.3326 5.2999 11.2248 4.92031 11.0218 4.5722C10.6538 3.96765 10.2984 3.36257 10.7933 2.59661ZM11.0745 1.09856C11.2712 0.750563 11.5094 0.832224 11.7757 1.02825C12.0422 1.22447 12.296 1.43046 12.0931 1.86712C11.9472 2.18998 11.8076 2.3197 11.3919 2.20892C11.2616 2.11973 11.1022 2.08278 10.9456 2.10442C10.7892 2.12612 10.6463 2.20498 10.5452 2.3261C10.228 2.6426 9.81541 2.3613 9.53939 2.11126C9.26339 1.86122 9.42837 1.53213 9.59017 1.25677C9.90732 0.747346 10.1768 1.11074 10.4242 1.30071C10.7667 1.56333 10.9191 1.38009 11.0745 1.09856Z" fill="#38383A"/>
</svg>
