<svg width="284" height="284" viewBox="0 0 284 284" fill="none" xmlns="http://www.w3.org/2000/svg">
<path d="M179.466 102.931C181.589 101.047 186.251 99.1992 187.946 106.832C190.066 116.381 181.617 159.129 236.931 154.824C256.977 153.261 250.486 139.828 240.943 134.409V116.024C242.357 114.377 257.471 121.5 264.558 136.987C269.852 148.569 263.628 171.581 253.64 175.102C241.605 179.337 194.367 192.403 183.341 134.409H176.982C176.748 138.77 169.208 147.701 140.944 148.551C135.054 178.254 106.588 231.446 39.873 206.557C25.2671 202.077 -3.11344 183.631 0.279027 145.723C1.2319 137.705 6.81894 120.634 21.5007 116.389C4.65855 138.198 -9.23135 183.28 69.9161 189.221C97.7156 188.75 144.967 176.643 111.607 131.946C108.309 128.173 103.272 117.862 109.487 106.832C126.568 122.744 164.483 144.234 179.466 102.931ZM173.654 173.345L197.748 177.702C201.024 178.293 202.648 182.019 200.848 184.819L190.522 200.831C189.31 202.698 186.936 203.478 184.869 202.656L164.582 194.559C164.098 194.365 163.679 194.079 163.305 193.76L158.268 203.318C157.312 205.102 155.314 206.072 153.321 205.713L129.205 201.379C125.938 200.781 124.333 197.035 126.127 194.239L136.453 178.227C137.663 176.352 140.034 175.599 142.106 176.425L162.371 184.499C162.847 184.689 163.276 184.964 163.647 185.275L168.707 175.763C169.658 173.968 171.656 172.986 173.654 173.345ZM83.7296 126.152C87.0563 126.227 89.2446 129.675 87.901 132.721L80.1737 150.148C79.2708 152.189 77.0612 153.309 74.8853 152.817L53.5953 148.004C50.89 147.391 49.3059 144.562 50.1989 141.936L54.7122 128.775C55.3719 126.858 57.2007 125.588 59.2255 125.627L83.7296 126.152ZM256.056 73.0734L280.172 77.43C283.442 78.0282 285.052 81.7496 283.25 84.5467L272.924 100.559C271.714 102.435 269.343 103.187 267.271 102.361L247.006 94.2865C246.521 94.092 246.082 93.8078 245.707 93.4882L240.67 103.023C239.718 104.819 237.722 105.801 235.723 105.441L211.629 101.084C208.356 100.489 206.727 96.7656 208.529 93.9672L218.855 77.9547C220.064 76.0827 222.438 75.3311 224.508 76.1527L244.795 84.2274C245.261 84.4138 245.662 84.7003 246.026 85.0029L251.109 75.4684C252.063 73.6828 254.064 72.7169 256.056 73.0734Z" fill="#38383A"/>
</svg>
