<svg width="7" height="11" viewBox="0 0 7 11" fill="none" xmlns="http://www.w3.org/2000/svg">
<path d="M4.36031 2.54759C4.56336 2.47162 4.64599 2.61383 4.75386 2.73411C5.094 3.08668 5.35535 3.50736 5.51949 3.96849C5.68363 4.42972 5.74717 4.9212 5.70601 5.40892C5.68061 5.72539 5.5759 6.04215 6.07711 6.10228C7.13972 6.20682 6.93957 7.00111 6.74605 7.58665C6.51174 8.27817 6.10104 8.89718 5.55367 9.38157C4.48458 10.331 3.26925 10.5175 2.17476 9.85618C1.62772 9.53181 1.20262 9.03628 0.965778 8.447C0.729018 7.85778 0.693357 7.20693 0.864216 6.59544C0.911777 6.38345 0.9497 6.16512 0.994099 5.96263C0.996335 5.9619 0.998725 5.96138 1.00093 5.96068L0.997028 5.95677C1.0146 5.76202 1.08542 5.57553 1.20113 5.41771C1.31677 5.26002 1.47273 5.13598 1.65328 5.06028C1.62755 5.46314 1.45411 5.84236 1.16597 6.12571V6.12767C1.12166 7.52012 1.5813 8.36182 2.63765 8.81126C3.15574 9.01205 3.72224 9.05452 4.26461 8.93333C4.80688 8.81212 5.30086 8.5326 5.68355 8.1306C5.83582 7.97874 6.07643 7.81444 6.01949 7.59935C5.94339 7.283 5.61728 7.37417 5.3857 7.32689C5.15409 7.27941 5.00453 7.32682 4.81734 7.3015C4.53815 7.26035 4.0842 7.4535 4.06832 6.98509C4.06832 6.61476 4.01777 6.10805 4.55074 5.97825C5.65802 5.7092 5.27448 5.11728 4.89058 4.5222C4.57338 4.03487 4.03356 3.64572 4.1855 2.94017C4.21405 2.79778 4.15754 2.6236 4.36031 2.54759ZM4.26851 0.822003C4.70295 0.18947 5.02346 0.821773 5.3691 0.951886C5.84818 1.12598 5.54729 1.48722 5.45211 1.73411C5.2649 2.20874 4.89358 2.196 4.53511 1.93333C4.10698 1.6201 3.97365 2.23971 3.63765 2.18333C3.51134 2.17829 3.38799 2.14088 3.28023 2.07493C3.1725 2.00899 3.08318 1.91641 3.02144 1.80638C2.86958 1.51232 3.06888 1.27179 3.18941 1.02513C3.20311 0.970817 3.23122 0.920638 3.27047 0.880597C3.30981 0.840524 3.35979 0.811426 3.41402 0.796613C3.46805 0.781914 3.52494 0.782237 3.57906 0.796613C3.63338 0.811102 3.68303 0.839783 3.72261 0.879621C3.93518 1.03472 4.10036 1.06573 4.26851 0.822003Z" fill="#38383A"/>
</svg>
