<svg width="284" height="284" viewBox="0 0 284 284" fill="none" xmlns="http://www.w3.org/2000/svg">
<path d="M197.687 125.847C198.575 119.311 201.707 107.347 207.172 111.697C214.009 117.149 239.188 135.245 227.244 158.914C217.685 177.85 191.962 183.716 175.973 183.186C166.3 183.144 145.201 182.063 138.182 178.027C131.168 173.988 130.144 178.783 130.511 181.687C126.196 196.75 102.533 225.816 42.3809 221.583C39.8333 219.726 37.1595 215.424 46.8413 213.059C58.9468 210.101 131.008 191.218 114.949 171.099C102.08 155 96.6606 144.178 95.5629 140.784L96.0776 125.405C98.3223 122.34 104.134 118.143 109.459 125.847C116.12 135.488 127.48 156.121 138.917 155.941C178.516 160.363 233.802 161.268 200.309 136.951C199.333 136.263 197.443 133.075 197.687 125.847ZM103.062 71.5301C106.639 71.6128 108.996 75.3241 107.547 78.6053L99.2391 97.3742C98.2663 99.5651 95.8877 100.775 93.5533 100.249L70.663 95.0404C67.7505 94.38 66.0429 91.3367 67.0113 88.5056L71.8639 74.3552C72.5721 72.2877 74.5368 70.9216 76.7164 70.965L103.062 71.5301ZM213.96 63.0791L239.865 67.7714C243.387 68.4081 245.134 72.4206 243.198 75.4362L232.096 92.682C230.796 94.6991 228.245 95.5338 226.018 94.6473L204.206 85.9261C203.686 85.7168 203.236 85.4098 202.834 85.0663L197.418 95.3597C196.393 97.2883 194.245 98.3272 192.099 97.9392L166.17 93.2716C162.654 92.6271 160.923 88.5947 162.861 85.5822L173.964 68.3364C175.264 66.3176 177.814 65.5077 180.041 66.3956L201.829 75.0922C202.34 75.2965 202.803 75.5934 203.201 75.9275L208.642 65.6832C209.664 63.75 211.812 62.6923 213.96 63.0791Z" fill="#38383A"/>
</svg>
