<svg width="284" height="284" viewBox="0 0 284 284" fill="none" xmlns="http://www.w3.org/2000/svg">
<path d="M15.8366 122.745L17.0471 123.423C17.3288 123.711 17.5016 124.065 17.5555 124.441C17.6547 125.183 17.352 126.069 16.8534 126.985C16.3465 127.91 15.6102 128.92 14.844 129.892L12.5925 132.678C10.8287 134.884 9.99689 137.624 9.73568 140.261C9.47667 142.895 9.77601 145.433 10.2199 147.214L10.9462 149.515C12.9327 154.646 16.9839 158.325 22.228 160.926C28.2312 163.901 35.7997 165.479 43.5812 166.255C59.1505 167.807 75.5688 166.16 82.1961 166.158C88.7649 166.158 96.4688 163.248 102.992 159.424C106.249 157.513 109.211 155.368 111.587 153.246C113.964 151.122 115.756 149.018 116.671 147.189L117.785 145.372C118.159 144.895 118.551 144.551 118.923 144.306C119.671 143.816 120.407 143.765 121.077 143.991C121.737 144.218 122.324 144.717 122.82 145.3C123.317 145.885 123.741 146.568 124.031 147.189L127.251 152.422C130.527 157.144 133.951 160.34 137.395 162.331C141.982 164.98 146.623 165.507 151.001 164.753C159.767 163.241 167.544 156.544 171.894 151.138L174.412 148.328C176.849 145.966 179.012 144.86 180.803 144.5C182.595 144.143 184.028 144.532 184.992 145.154L185.791 145.833L185.815 145.857L185.694 145.905L185.815 145.881C192.002 158.779 203.392 165.971 215.375 168.872C227.365 171.773 239.962 170.369 248.519 166.158L250.407 165.141C254.417 162.706 255.648 160.075 255.346 157.607C255.079 155.476 253.658 153.414 251.811 151.623L249.85 149.927C248.031 148.523 246.285 146.869 245.226 144.864L244.427 142.732C243.218 137.724 243.572 134.308 244.572 132.096C245.574 129.889 247.219 128.876 248.543 128.632L248.664 128.608L248.64 128.632L253.361 131.999C258.253 135.864 263.39 141.201 266.361 147.286C268.337 151.341 269.352 155.745 268.71 160.271C268.224 163.669 266.81 167.15 264.158 170.592L261.059 174.032C249.364 185.423 236.197 187.953 225.35 187.187C217.231 186.611 210.396 184.195 206.442 182.293L203.488 180.646C201.547 179.29 199.956 178.998 198.767 179.192C197.596 179.386 196.776 180.033 196.394 180.573C196.705 188.163 195.474 192.467 193.756 194.745C192.459 196.459 190.897 197.035 189.567 196.998L188.333 196.78C181.833 194.964 179.105 189.726 178.334 183.965C177.569 178.225 178.735 171.918 180.053 167.854C179.429 166.268 178.579 165.46 177.632 165.189C176.671 164.917 175.567 165.182 174.436 165.771C172.173 166.953 169.855 169.437 168.408 171.367L168.384 171.391C160.259 178.264 153.265 181.647 147.345 182.802C141.422 183.953 136.542 182.859 132.674 180.767C128.816 178.675 125.931 175.592 123.958 172.772C122.972 171.361 122.208 170.001 121.658 168.872L120.642 166.304C120.465 165.603 120.2 165.138 119.891 164.874C119.586 164.619 119.208 164.524 118.777 164.584C118.343 164.646 117.84 164.859 117.301 165.189C116.757 165.524 116.161 165.989 115.557 166.522C114.347 167.59 113.061 168.983 111.829 170.374L108.415 174.274C103.338 179.949 95.853 183.077 91.7348 184.086H91.7106C77.2322 185.628 55.5032 187.948 36.8993 186.242C27.5983 185.388 19.0522 183.535 12.5925 180.064C6.13067 176.59 1.72809 171.483 0.729577 164.172C-1.25223 149.623 1.07133 139.072 4.48212 132.242C6.1851 128.838 8.17133 126.336 10.0262 124.732C11.8727 123.138 13.6289 122.417 14.8682 122.551L15.8366 122.745ZM187.34 170.035C187.024 170.166 186.758 170.404 186.541 170.689C186.109 171.26 185.831 172.108 185.694 173.039C185.422 174.907 185.63 177.236 185.887 178.804L186.057 179.846C186.131 180.102 186.231 180.317 186.347 180.452C186.468 180.584 186.621 180.651 186.783 180.646C186.944 180.638 187.117 180.546 187.267 180.428C187.564 180.186 187.891 179.757 188.187 179.216C188.489 178.663 188.776 177.964 189.035 177.23C189.551 175.76 189.933 174.039 189.93 172.651C189.927 171.963 189.82 171.334 189.591 170.858C189.475 170.618 189.321 170.408 189.131 170.253L188.454 169.938C188.041 169.868 187.658 169.905 187.34 170.035ZM89.5559 96.5323L115.146 101.16C118.625 101.787 120.35 105.744 118.438 108.718L107.471 125.725C106.187 127.714 103.667 128.537 101.467 127.663L79.9204 119.063C79.4061 118.856 78.9623 118.554 78.5646 118.215L73.2142 128.366C72.2019 130.267 70.0805 131.292 67.9606 130.909L42.3465 126.306C38.873 125.671 37.1628 121.694 39.0782 118.724L50.0453 101.717C51.3302 99.7257 53.8488 98.9268 56.0493 99.8029L77.572 108.379C78.0774 108.58 78.5344 108.873 78.9278 109.203L84.3024 99.1003C85.3124 97.1937 87.4337 96.1505 89.5559 96.5323ZM254.329 88.0774L279.919 92.7046C283.396 93.332 285.116 97.2902 283.211 100.263L272.244 117.27C270.96 119.26 268.44 120.083 266.24 119.208L244.693 110.608C244.181 110.401 243.734 110.098 243.338 109.76L237.987 119.911C236.975 121.814 234.854 122.837 232.734 122.454L207.12 117.851C203.647 117.215 201.934 113.239 203.851 110.269L214.818 93.2618C216.104 91.277 218.625 90.4755 220.822 91.3479L242.345 99.924C242.848 100.124 243.309 100.42 243.701 100.748L249.075 90.6454C250.087 88.7443 252.21 87.6972 254.329 88.0774Z" fill="#38383A"/>
</svg>
