<svg width="284" height="284" viewBox="0 0 284 284" fill="none" xmlns="http://www.w3.org/2000/svg">
<path d="M234.025 136.525C231.566 127.024 229.449 110.116 240.626 118.417C254.612 128.81 279.258 144.428 261.727 175.615C251.203 187.474 211.591 204.486 137.266 177.783C133.431 176.236 125.996 175.081 126.857 182.711C127.953 192.29 92.0317 211.182 57.4893 184.908C51.2761 192.755 32.006 209.154 4.59617 212C1.1262 209.9 -3.72684 205.371 4.59617 204.058C15.0096 202.414 45.9821 186.273 50.9164 171.221C48.3608 154.689 49.5598 129.062 78.3362 129.062C106.405 130.814 140.847 153.88 154.559 165.195C160.597 168.843 187.949 173.245 249.118 161.646C253.2 159.304 255.905 151.002 234.025 136.525ZM113.711 162.744C95.6197 153.897 59.9872 140.819 62.1721 159.196C64.379 177.584 99.2703 178.514 116.447 176.685C129.18 174.71 119.933 166.572 113.711 162.744ZM249.428 72.0905L279.245 77.4694C283.296 78.1987 285.3 82.8002 283.082 86.256L270.303 106.026C268.806 108.34 265.87 109.295 263.307 108.279L238.2 98.2813C237.602 98.0413 237.084 97.6891 236.621 97.2956L230.386 109.096C229.207 111.308 226.736 112.497 224.265 112.053L194.419 106.702C190.37 105.964 188.377 101.341 190.611 97.887L203.39 78.1172C204.888 75.8102 207.826 74.8765 210.386 75.8923L235.464 85.8617C236.051 86.0952 236.587 86.4377 237.044 86.8193L243.306 75.0756C244.486 72.8656 246.959 71.6468 249.428 72.0905Z" fill="#38383A"/>
</svg>
