<svg width="8" height="8" viewBox="0 0 8 8" fill="none" xmlns="http://www.w3.org/2000/svg">
<path d="M7.19558 1.79764C6.73554 1.32284 6.38018 1.05697 5.85986 1.38932C5.26021 1.77232 4.6701 2.18381 4.50512 2.896C4.39407 3.36446 4.84141 3.39296 5.20628 3.41511C6.95445 3.53539 7.20193 3.92156 6.58007 5.50737C5.89476 7.25778 4.24177 8.0776 2.62685 7.47303C1.0976 6.90327 0.494786 5.28897 1.14202 3.42144C1.24038 4.09565 1.08808 4.76353 1.5164 5.34911C2.5634 6.77666 5.0064 6.81464 6.08513 5.40292C6.4024 4.98827 6.30405 4.78568 5.8091 4.72554C5.77738 4.72554 5.74565 4.72554 5.71393 4.72554C3.91499 4.49764 3.75 4.24125 4.23225 2.45286C4.43602 1.75234 4.83419 1.12359 5.38079 0.639149C5.80277 0.243486 6.28502 -0.174336 6.88784 0.15169C7.49065 0.477716 7.26538 1.06646 7.19558 1.79764Z" fill="#38383A"/>
</svg>
