<svg width="7" height="12" viewBox="0 0 7 12" fill="none" xmlns="http://www.w3.org/2000/svg">
<path d="M4.66309 9.9541C4.81857 9.63794 5.08852 9.75483 5.29785 9.90039C5.50719 10.0459 5.86861 10.1032 5.85938 10.4668C5.86038 10.5911 5.82945 10.7142 5.76953 10.8232C5.70961 10.9323 5.62221 11.0238 5.5166 11.0898C5.41103 11.1558 5.29043 11.194 5.16602 11.2002C5.04158 11.2064 4.91734 11.1811 4.80566 11.126C4.47253 10.9614 4.31704 10.9103 4.04102 11.249C3.76499 11.5876 3.31801 11.3182 3.05469 11.0967C2.73747 10.8308 2.91192 10.464 3.05469 10.1475C3.27673 9.68876 3.58119 9.95084 3.83496 10.0996C4.15223 10.2959 4.43782 10.4162 4.66309 9.9541ZM1.33203 0.258789C1.85868 0.246096 2.5217 0.0725656 2.99121 0.791016C2.65173 0.791016 2.43913 0.806842 2.22656 0.791016C1.49366 0.73404 1.25878 1.05034 1.24609 1.79102C1.22072 3.33565 1.35404 4.87404 1.46191 6.40918C1.56351 7.8935 3.88539 8.87143 5.16406 8.00781C5.48126 7.79895 5.38313 7.57754 5.18652 7.375C4.71707 6.93196 4.81554 6.42517 4.96777 5.81445C5.85917 6.28925 6.0781 7.02349 6.02734 7.92871C5.97966 8.78311 5.45642 9.10623 4.71094 9.29297C2.36947 9.87538 1.11302 8.92519 1.05273 6.53223C1.00831 4.76926 0.912822 3.00906 0.865234 1.24609C0.865194 0.856761 0.805538 0.271446 1.33203 0.258789Z" fill="#38383A"/>
</svg>
