<svg width="284" height="284" viewBox="0 0 284 284" fill="none" xmlns="http://www.w3.org/2000/svg">
<path d="M218.724 187.466L246.637 192.507C250.432 193.19 252.314 197.501 250.229 200.74L238.266 219.266C236.863 221.427 234.112 222.329 231.717 221.378L208.214 212.009C207.655 211.784 207.167 211.453 206.735 211.085L200.899 222.143C199.792 224.209 197.477 225.33 195.168 224.914L167.228 219.9C163.449 219.204 161.585 214.873 163.663 211.64L175.626 193.113C177.026 190.947 179.777 190.079 182.175 191.029L205.652 200.371C206.202 200.59 206.702 200.91 207.131 201.268L212.993 190.263C214.094 188.189 216.412 187.054 218.724 187.466ZM60.1443 60C62.615 60.104 67.6089 63.749 67.829 77.5233C68.1031 94.7754 74.1247 135.024 108.92 140.781C136.756 146.121 228.896 161.9 268.186 143.842C269.914 142.193 269.562 135.366 254.375 121.252C253.08 108.362 254.031 87.5317 268.186 107.318C285.876 132.05 292.414 138.113 268.186 166.38C248.789 188.991 138.066 176.316 101.077 161.814C96.6961 160.973 84.989 154.951 73.269 137.588C71.2342 135.786 66.3236 133.901 62.9699 140.781C61.9379 144.34 55.9738 151.42 40.4176 151.205C20.9607 150.931 -2.04678 147.626 0.145499 132.838C2.33597 118.054 2.60844 102.978 53.0142 85.7307C51.9197 77.4203 51.8209 60.6611 60.1443 60ZM55.4965 94.8354C46.9546 95.5282 31.5136 107.738 23.1468 112.042C18.1879 114.591 17.0838 118.418 17.3899 121.622C17.6638 124.475 20.5159 126.03 23.3845 126.055C32.1275 126.133 44.9861 126.185 49.7396 126.003C55.4193 125.77 58.1309 120.268 58.7711 117.531V98.662C58.769 96.6216 57.5285 94.6815 55.4965 94.8354Z" fill="#38383A"/>
</svg>
