<svg width="284" height="284" viewBox="0 0 284 284" fill="none" xmlns="http://www.w3.org/2000/svg">
<path d="M80.5852 172.39C83.3886 172.451 85.2306 175.363 84.0968 177.936L77.6109 192.649C76.8508 194.373 74.9715 195.318 73.1398 194.903L55.2171 190.839C52.9412 190.32 51.6231 187.933 52.3772 185.716L56.1766 174.604C56.7341 172.985 58.269 171.91 59.9761 171.947L80.5852 172.39ZM18.2589 89.6181C26.2525 87.3619 24.7289 91.822 22.9602 94.3364C-12.7122 122.917 31.4245 142.717 74.9244 141.461C109.719 140.455 122.396 130.562 124.375 125.746V115.386H131.551C129.551 135.984 149.919 138.41 160.354 137.051C158.373 120.402 160.924 88.1846 186.951 92.4491C212.974 96.7229 206.78 119.574 200.421 130.465V137.051C209.605 137.678 231.967 137.626 247.991 132.352C264.004 127.073 252.161 116.322 244.23 111.611V94.4712C252.133 96.2642 267.705 105.982 266.777 130.465C265.845 154.952 227.339 153.546 208.193 149.781V153.286C208.036 165.03 203.064 188.501 184.475 188.509C165.875 188.509 162.937 169.073 163.789 159.352H160.354C139.089 158.235 129.342 145.91 127.119 139.882H124.375C114.622 156.966 72.5168 159.979 52.6842 159.352C36.6228 156.525 3.7525 147.168 0.739215 132.352C-3.01396 113.829 8.2457 92.4533 18.2589 89.6181ZM260.483 155.751L280.766 159.429C283.517 159.933 284.886 163.076 283.376 165.438L274.683 178.957C273.667 180.537 271.666 181.188 269.924 180.497L252.846 173.661C252.44 173.498 252.086 173.255 251.771 172.987L247.531 181.056C246.73 182.566 245.044 183.378 243.367 183.078L223.064 179.419C220.309 178.915 218.954 175.754 220.474 173.391L229.167 159.872C230.186 158.292 232.182 157.654 233.925 158.351L250.985 165.168C251.383 165.328 251.749 165.562 252.059 165.823L256.319 157.792C257.121 156.278 258.802 155.446 260.483 155.751ZM188.447 147.816C183.056 147.023 172.068 148.002 171.196 158.216C170.333 168.428 179.471 170.844 184.149 170.772C211.907 163.155 198.585 152.292 188.447 147.816ZM193.743 115.54C171.058 100.991 166.484 123.2 167.032 136.127C180.854 139.233 191.567 130.39 195.624 125.843C198.855 122.208 195.725 117.456 193.743 115.54Z" fill="#38383A"/>
</svg>
