<svg width="9" height="11" viewBox="0 0 9 11" fill="none" xmlns="http://www.w3.org/2000/svg">
<path d="M5.28458 0.0120857C5.39506 0.000723357 5.50683 0.0239682 5.60294 0.0794686C5.88532 0.256725 5.82874 0.532702 5.73673 0.754273C5.64477 0.975866 5.68823 1.3868 5.35197 1.28552C4.60691 1.04856 4.52387 1.63678 4.26701 2.03552C4.01002 2.43435 3.78839 2.76102 3.50919 3.18201H5.83146C6.14866 3.18201 6.62769 2.86538 6.68497 3.41248C6.71813 3.63394 6.6679 3.8603 6.54435 4.04724C6.42079 4.23409 6.23208 4.36933 6.01505 4.42615C5.41242 4.60656 4.82864 4.85285 4.23869 5.07752C3.91454 5.19349 3.59648 5.32721 3.28654 5.47693C2.13834 6.06568 1.59547 6.9775 1.79533 7.95545C1.9605 8.7625 2.98579 9.5784 4.09611 9.6322C5.36517 9.6955 6.66618 9.6322 8.02091 9.6322C7.65294 10.4329 6.95808 10.5822 6.29826 10.7025C5.56081 10.8788 4.8035 10.9611 4.04533 10.9467C2.14169 10.8675 1.02125 9.55634 1.28458 7.67615C1.39765 6.53635 1.91046 5.47247 2.73185 4.67224C2.34895 4.55183 1.93801 4.55193 1.55509 4.67224C0.71432 4.79569 0.730237 4.41579 1.00626 3.83337C1.32362 3.15005 1.95783 2.82723 2.5922 2.56775C3.39627 2.26336 4.04683 1.6534 4.40079 0.871461C4.51991 0.576179 4.72415 0.322312 4.98771 0.142945C5.07034 0.0691349 5.17427 0.0235292 5.28458 0.0120857ZM7.66544 5.74548C8.02385 5.17918 8.3695 5.67252 8.68986 5.82459C9.13698 6.03339 8.83965 6.34349 8.74747 6.6156C8.61422 7.00177 8.32549 7.10616 8.02091 6.8656C7.43083 6.40358 7.16387 7.13847 6.87833 7.19861C6.40249 7.10999 6.07872 7.01777 5.96134 6.69177C5.84414 6.36585 6.06009 6.08704 6.2504 5.84021C6.49462 5.52405 6.68216 5.81832 6.88517 5.92908C6.94429 5.98001 7.01439 6.01692 7.09025 6.03552C7.16611 6.05409 7.24566 6.05431 7.32169 6.0365C7.39786 6.01858 7.46906 5.98253 7.52872 5.93201C7.58839 5.88149 7.63533 5.81755 7.66544 5.74548Z" fill="#38383A"/>
</svg>
