<svg width="284" height="284" viewBox="0 0 284 284" fill="none" xmlns="http://www.w3.org/2000/svg">
<path d="M199.069 171.865C201.952 171.928 203.847 174.907 202.68 177.541L196.011 192.597C195.231 194.357 193.314 195.322 191.434 194.902L173.006 190.744C170.661 190.214 169.285 187.754 170.066 185.483L173.973 174.132C174.544 172.472 176.122 171.374 177.879 171.412L199.069 171.865ZM98.9004 170.88C101.782 170.943 103.675 173.903 102.511 176.536L95.8423 191.592C95.0619 193.353 93.1458 194.318 91.2649 193.897L72.8372 189.739C70.4933 189.21 69.1195 186.768 69.8974 184.497L73.804 173.146C74.3749 171.486 75.953 170.369 77.7105 170.407L98.9004 170.88ZM259.818 158.879L280.672 162.643C283.504 163.157 284.913 166.374 283.355 168.791L274.418 182.625C273.372 184.241 271.316 184.909 269.525 184.202L251.965 177.206C251.548 177.039 251.184 176.79 250.86 176.516L246.5 184.773C245.676 186.318 243.944 187.151 242.219 186.842L221.344 183.098C218.512 182.583 217.12 179.347 218.681 176.93L227.618 163.096C228.666 161.476 230.718 160.825 232.511 161.539L250.051 168.515C250.462 168.679 250.837 168.918 251.156 169.185L255.536 160.968C256.36 159.416 258.087 158.567 259.818 158.879ZM218.03 90.4182C226.683 86.1324 242.337 84.5178 235.747 112.352C233.696 104.689 221.931 96.1016 191.276 123.013L246.263 136.807C247.766 141.12 248.788 149.752 240.857 149.755C232.923 149.755 207.496 151.474 195.774 152.336C178.343 160.962 157.378 173.038 143.312 152.336L135.657 144.572H132.698C127.139 150.737 92.7019 162.801 69.128 161.776C39.6626 160.494 9.61373 159.923 0.684846 137.714C-1.10217 129.975 -0.488481 112.611 16.2912 104.981C9.44398 114.38 1.29122 134.485 23.4335 139.724C48.1053 146.368 118.426 152.671 132.698 124.767H135.657C138.043 131.317 147.297 144.809 165.272 146.405C180.004 146.897 187.616 146.613 185.811 135.448C185.39 132.849 156.929 136.665 155.289 134.029C153.279 133.689 152.582 126.526 155.289 123.013C158 119.502 160.686 119.449 169.198 117.239C177.717 115.023 218.03 90.4182 218.03 90.4182Z" fill="#38383A"/>
</svg>
