<svg width="13" height="7" viewBox="0 0 13 7" fill="none" xmlns="http://www.w3.org/2000/svg">
<path d="M10.8203 4.67233C11.1787 4.10626 11.5244 4.59941 11.8447 4.75143C12.2921 4.96034 11.9944 5.27121 11.9023 5.54343C11.7691 5.9292 11.4801 6.03353 11.1758 5.79343C10.5857 5.33129 10.3187 6.06532 10.0332 6.12546C9.55732 6.03683 9.2336 5.94464 9.11621 5.61862C8.99909 5.29274 9.21498 5.01387 9.40527 4.76706C9.64943 4.45114 9.83707 4.74519 10.04 4.85593C10.0992 4.90688 10.1692 4.94378 10.2451 4.96237C10.321 4.98095 10.4005 4.98119 10.4766 4.96335C10.5527 4.94543 10.6239 4.90937 10.6836 4.85886C10.7432 4.80836 10.7902 4.74434 10.8203 4.67233ZM11.1045 0.789521C11.447 0.615514 11.5871 1.10593 11.7393 1.3403C12.783 2.92287 11.9742 4.30659 9.9248 4.43015C9.65837 4.61684 9.34729 4.43341 9.09668 4.57565C8.50032 4.63262 7.90059 4.70847 7.33594 4.41745C7.03453 4.25919 6.79581 4.41715 6.55469 4.57858C6.15479 4.86709 5.67949 5.03305 5.18652 5.05612C4.69352 5.07917 4.20452 4.95842 3.7793 4.70847C3.37953 4.4869 3.19499 4.53445 2.96973 4.91745C2.47478 5.7499 1.70083 6.06969 0.749023 6.03171C0.844206 5.7152 1.1395 5.60797 1.38379 5.46237C2.38944 4.82938 3.28729 4.19591 3.09082 2.73386C3.05217 2.4127 3.12544 2.08726 3.29883 1.81393C3.47219 1.54081 3.7347 1.33547 4.04199 1.23288C4.37519 1.117 4.73608 1.10582 5.07617 1.19968C5.3739 1.28186 5.64405 1.44089 5.8584 1.66061L6.2627 2.10983C6.58866 2.45152 6.94435 2.76414 7.32617 3.04343C8.59523 3.81573 9.89598 3.31608 11.1777 3.02487C11.4949 2.9521 11.4951 2.67036 11.3145 2.42038C11.1844 2.24314 10.981 2.10363 10.9111 1.89792C10.7747 1.50544 10.6921 0.998446 11.1045 0.789521ZM6.36816 3.80026C5.65748 2.98362 5.14635 2.2173 4.07715 2.41354C3.8267 2.45784 3.54486 2.5247 3.50977 2.82175C3.48123 3.06229 3.67806 3.20831 3.87793 3.32858C4.61794 3.79543 5.50816 3.96416 6.36816 3.80026Z" fill="#38383A"/>
</svg>
