<svg width="284" height="284" viewBox="0 0 284 284" fill="none" xmlns="http://www.w3.org/2000/svg">
<path d="M244.346 173.698L278.545 179.916C283.19 180.762 285.494 186.079 282.945 190.074L268.288 212.927C266.572 215.601 263.204 216.705 260.264 215.531L231.469 203.974C230.78 203.697 230.189 203.291 229.657 202.835L222.506 216.475C221.155 219.032 218.318 220.406 215.486 219.894L181.254 213.708C176.609 212.857 174.324 207.512 176.887 203.519L191.543 180.665C193.262 177.993 196.628 176.915 199.567 178.093L228.33 189.618C229.006 189.889 229.617 190.281 230.142 190.725L237.325 177.149C238.676 174.59 241.51 173.184 244.346 173.698ZM224.61 85.3122C225.495 76.6158 229.142 60.6012 236.548 66.1374C245.81 73.061 270.726 96.7056 255.993 128.578C244.2 154.061 199.045 160.445 177.922 160.449C165.154 160.819 137.235 160.281 127.805 155.24C118.385 150.211 117.261 156.62 117.872 160.449C112.835 180.588 82.8629 220.124 3.3042 217.159C-0.136725 214.813 -3.84883 209.226 8.80447 205.667C24.644 201.22 118.943 173.046 96.8413 147.101C79.1615 126.347 71.5508 112.255 69.9546 107.808V87.4283C72.7787 83.2694 80.2854 77.4469 87.6526 87.4283C96.8606 99.9058 112.728 126.703 127.805 125.973C180.247 130.09 273.814 130.634 228.557 99.8968C227.235 99.0144 224.602 94.8721 224.61 85.3122Z" fill="#38383A"/>
</svg>
