<svg width="13" height="9" viewBox="0 0 13 9" fill="none" xmlns="http://www.w3.org/2000/svg">
<path d="M10.3301 0.75C11.1772 1.91166 11.9964 3.01366 11.584 4.54883C11.3555 5.39369 10.8251 5.65922 10.0225 5.33008C9.8797 5.27299 9.67674 5.05477 9.65137 5.08008C8.94707 5.69726 8.20476 5.30823 7.45605 5.24805C7.26557 5.25137 7.08372 5.32927 6.9502 5.46484C6.8168 5.60038 6.74218 5.7827 6.74219 5.97266C6.62163 7.42226 5.76181 8.34351 4.39453 8.72656C3.26504 9.04309 2.17379 8.88436 1.37109 7.91895C0.447889 6.79847 0.507307 5.54217 1.03711 4.2666C1.1513 3.98496 1.23712 3.66811 1.56055 3.52246C1.71284 3.76302 1.56076 3.95051 1.46875 4.15625C1.05013 5.13721 0.834637 6.09285 1.73828 6.94727C2.53775 7.71638 3.75634 7.86561 4.91113 7.33398C6.22464 6.73574 6.42457 6.20685 5.73926 4.96289C5.58916 4.72964 5.49478 4.46481 5.46289 4.18945C5.43106 3.91414 5.46282 3.63522 5.55566 3.37402C5.91306 3.6595 6.28909 3.92117 6.68164 4.15625C6.82691 4.22349 6.98883 4.24747 7.14746 4.22559C7.30603 4.20368 7.45469 4.13623 7.57617 4.03223C7.70943 3.93094 7.77988 3.73499 8.04004 3.87109C8.97567 4.35838 8.99198 4.34592 9.59473 3.55469C9.83548 3.7036 9.85794 4.05474 10.1592 4.14648C10.4606 4.23827 10.8478 4.33272 11.1396 4.06055C11.431 3.78847 11.1391 3.523 11.0312 3.30469C10.7928 2.85943 10.5271 2.42912 10.2354 2.0166C10.0919 1.83116 10.0216 1.59884 10.0391 1.36523C10.0566 1.13157 10.1605 0.912095 10.3301 0.75ZM11.4189 6.41309C11.5395 6.15358 11.6219 5.82074 12.0088 6.06738C12.3102 6.26361 12.694 6.41269 12.7607 6.93164C12.6876 7.14665 12.5804 7.349 12.4434 7.53027C12.215 7.74837 11.9547 7.53041 11.7549 7.41016C11.4376 7.21074 11.1899 6.89401 10.9424 7.51758C10.7552 7.98551 10.3626 7.76727 10.0645 7.58691C9.59814 7.30841 9.83598 6.9543 9.97559 6.59668C10.1469 6.15684 10.4035 6.35222 10.6445 6.50098C10.9332 6.6782 11.2127 6.84963 11.4189 6.41309Z" fill="#38383A"/>
</svg>
