<svg width="13" height="9" viewBox="0 0 13 9" fill="none" xmlns="http://www.w3.org/2000/svg">
<path d="M11.3749 6.73291C11.5938 6.41664 11.8763 6.59739 12.1142 6.75244C12.352 6.90749 12.6437 6.89786 12.5868 7.2583C12.4155 7.70141 12.2698 8.20864 11.6132 7.94287C11.2326 7.79097 10.9186 7.54701 10.5761 8.05615C10.354 8.37268 9.98542 8.1862 9.75381 7.97412C9.45572 7.6956 9.64647 7.39451 9.81143 7.12549C9.9763 6.8567 10.1603 6.63533 10.4804 6.9165C10.8738 7.26785 11.1147 7.11908 11.3749 6.73291ZM5.16299 0.418457C5.66111 0.734984 5.53165 1.10264 5.53799 1.40967C5.50123 2.16684 5.58355 2.92503 5.78213 3.65674C6.0074 4.32778 6.36932 4.92277 7.15616 5.07471C7.94273 5.22642 8.39654 4.80605 8.68838 4.01807C9.10391 4.56241 9.40844 5.07858 10.0683 5.06592C10.4997 5.06592 10.8675 5.03035 10.5565 4.43213C10.3348 4.0209 10.3982 3.60013 10.6708 3.10986C11.4162 4.21748 11.4578 5.46718 10.8554 6.01807C10.3065 6.52451 9.51571 6.33448 8.6337 5.521C7.52328 6.55285 7.29511 6.58161 6.0419 5.79346C5.45543 5.42354 5.43301 5.99571 5.29678 6.26807C4.91927 7.03715 4.42082 7.65124 3.56436 7.89502C1.69251 8.4331 0.0300447 7.16112 0.0585013 5.19873C0.0418476 4.72365 0.137152 4.251 0.337798 3.81982C0.538394 3.38878 0.838443 3.01115 1.2128 2.71729C1.0447 3.09382 0.867471 3.46454 0.708892 3.84424C0.505348 4.24161 0.445365 4.69692 0.53897 5.1333C0.632632 5.56958 0.873881 5.96035 1.22256 6.23975C1.61659 6.56111 2.10068 6.75321 2.60831 6.78955C3.11608 6.82582 3.62346 6.70503 4.05948 6.44287C4.83355 5.97442 5.37559 5.42274 5.23917 4.31494C5.08688 3.07113 4.87431 1.78252 5.16299 0.418457ZM8.55948 1.08252C8.91787 0.51651 9.26354 1.00964 9.58389 1.16162C10.0312 1.37053 9.73352 1.6814 9.64151 1.95361C9.50829 2.33941 9.21931 2.44367 8.91495 2.20361C8.32485 1.7415 8.0579 2.47544 7.77237 2.53564C7.29646 2.44702 6.97277 2.35483 6.85538 2.02881C6.73825 1.70293 6.95414 1.42406 7.14444 1.17725C7.3884 0.861661 7.57543 1.15521 7.77823 1.26611C7.83743 1.31716 7.90829 1.35395 7.98428 1.37256C8.06022 1.39115 8.13962 1.39141 8.21573 1.37354C8.2919 1.35562 8.36309 1.31956 8.42276 1.26904C8.48232 1.21855 8.5294 1.1545 8.55948 1.08252Z" fill="#38383A"/>
</svg>
