<svg width="284" height="284" viewBox="0 0 284 284" fill="none" xmlns="http://www.w3.org/2000/svg">
<path d="M255.739 192.083L280.114 196.503C283.425 197.103 285.062 200.884 283.25 203.724L272.804 219.971C271.58 221.873 269.18 222.658 267.085 221.823L246.561 213.607C246.071 213.409 245.648 213.12 245.269 212.797L240.173 222.494C239.209 224.312 237.189 225.29 235.169 224.924L210.771 220.527C207.461 219.921 205.831 216.122 207.658 213.283L218.104 197.036C219.33 195.14 221.731 194.372 223.823 195.207L244.324 203.4C244.804 203.592 245.241 203.873 245.615 204.187L250.735 194.536C251.699 192.72 253.72 191.718 255.739 192.083ZM177.31 100.479C179.406 98.5671 184.029 96.6884 185.704 104.437C187.798 114.129 179.438 157.497 234.085 153.132C253.901 151.548 247.483 137.916 238.052 132.418V113.764C239.444 112.09 254.385 119.318 261.389 135.033C266.621 146.787 260.468 170.14 250.596 173.707C238.701 178.004 192.032 191.257 181.138 132.418H174.843C174.612 136.843 167.171 145.906 139.238 146.767C133.418 176.905 105.305 230.875 39.3862 205.622C24.9544 201.077 -3.07623 182.36 0.275805 143.897C1.21775 135.761 6.72758 118.438 21.2377 114.134C4.59585 136.261 -9.1364 182.003 69.065 188.033C96.5321 187.554 143.229 175.267 110.274 129.918C107.015 126.091 102.031 115.631 108.175 104.437C125.052 120.582 162.506 142.387 177.31 100.479ZM79.6727 124.04C83.0362 124.121 85.2323 127.615 83.8697 130.705L76.0753 148.387C75.1628 150.457 72.9245 151.591 70.7253 151.095L49.1869 146.212C46.4495 145.59 44.8464 142.72 45.7509 140.055L50.3169 126.701C50.9854 124.756 52.8322 123.465 54.8828 123.508L79.6727 124.04ZM175.812 59.0751L200.186 63.4955C203.5 64.096 205.143 67.8759 203.323 70.7164L192.876 86.9634C191.653 88.8646 189.253 89.6497 187.157 88.8149L166.633 80.5989C166.143 80.4018 165.721 80.1127 165.342 79.7888L160.246 89.4861C159.282 91.3037 157.261 92.2812 155.242 91.9162L130.844 87.5189C127.533 86.9134 125.904 83.114 127.731 80.2748L138.177 64.0278C139.401 62.1254 141.8 61.3612 143.896 62.1995L164.397 70.3924C164.878 70.5851 165.313 70.8642 165.688 71.1793L170.807 61.5283C171.77 59.7063 173.789 58.7091 175.812 59.0751Z" fill="#38383A"/>
</svg>
