<svg width="9" height="9" viewBox="0 0 9 9" fill="none" xmlns="http://www.w3.org/2000/svg">
<path d="M4.22168 0.332031C5.1037 1.13602 5.25923 2.12127 5.12598 3.18164C5.0657 3.63402 4.95788 3.97209 5.61719 3.99121C6.10895 4.00704 6.281 4.36826 6.28418 4.85254C6.28418 6.26413 4.89124 8.04252 3.51758 8.33398C2.99095 8.46196 2.4368 8.42213 1.93457 8.21875C1.43235 8.01537 1.00699 7.65912 0.71875 7.20117C0.370447 6.65484 0.185547 6.02052 0.185547 5.37305C0.185586 4.72561 0.370445 4.09121 0.71875 3.54492C0.811568 3.35708 0.943057 3.1907 1.10352 3.05566C1.26389 2.92075 1.45028 2.82034 1.65137 2.76074L1.03613 3.83691C0.443029 4.87178 0.481519 5.52082 1.18262 6.33105C1.49557 6.68725 1.90658 6.94435 2.36426 7.07031C2.82199 7.19619 3.30705 7.18589 3.75879 7.04004C3.97011 6.97618 4.17328 6.88791 4.36426 6.77734C4.86872 6.46081 5.63374 6.14363 5.50684 5.53906C5.40506 5.033 4.58958 5.26406 4.09473 5.15332C3.83139 5.09634 3.39307 5.33349 3.39941 4.78906C3.39942 4.37456 3.42852 4.02343 3.9707 3.83984C4.90341 3.5455 4.99531 3.25119 4.51953 2.39355C4.16419 1.76049 3.73943 1.16134 4.22168 0.332031ZM7.3125 6.41602C7.58212 6.02709 7.86173 6.27994 8.1377 6.41602C8.19741 6.43881 8.25144 6.47467 8.2959 6.52051C8.34028 6.56628 8.37365 6.62146 8.39453 6.68164C8.4154 6.74199 8.42269 6.80662 8.41602 6.87012C8.40932 6.93355 8.38938 6.99514 8.35645 7.0498C8.23276 7.32517 8.14353 7.70767 7.72168 7.59375C7.29987 7.47985 6.99219 7.45788 6.65918 7.83105C6.46564 8.0463 6.1032 7.87277 5.89062 7.67969C5.67817 7.48662 5.82426 7.27091 5.91309 7.06836C6.04951 6.71069 6.26898 6.47014 6.78613 6.71387C7.02712 6.85287 7.16343 6.63119 7.3125 6.41602Z" fill="#38383A"/>
</svg>
