<svg width="284" height="284" viewBox="0 0 284 284" fill="none" xmlns="http://www.w3.org/2000/svg">
<path d="M251.182 182.799L279.483 187.929C283.331 188.625 285.238 193.012 283.125 196.309L270.996 215.164C269.575 217.371 266.789 218.282 264.356 217.313L240.526 207.778C239.961 207.549 239.464 207.212 239.027 206.838L233.109 218.092C231.99 220.201 229.644 221.336 227.299 220.912L198.972 215.809C195.134 215.1 193.238 210.694 195.357 207.402L207.486 188.547C208.906 186.343 211.695 185.459 214.126 186.425L237.929 195.933C238.485 196.155 238.995 196.483 239.428 196.846L245.372 185.646C246.489 183.536 248.838 182.379 251.182 182.799ZM224.97 84.4948C227.249 85.5246 230.231 88.0692 233.457 91.6393C239.926 98.8001 247.503 110.193 252.869 122.178C258.233 134.165 261.396 146.805 258.974 156.45C257.759 161.279 255.135 165.37 250.7 168.241C246.27 171.102 240.018 172.754 231.583 172.754C201.281 172.754 178.054 173.418 161.353 174.392C144.656 175.367 134.448 176.654 130.187 177.884L130.16 177.911V177.884C112.85 180.195 85.8904 181.738 61.3223 178.77C49.0443 177.285 37.3275 174.661 27.7199 170.471C18.1164 166.278 10.5545 160.48 6.62141 152.636C-1.21335 136.999 -1.19139 124.403 2.04292 115.033C5.27533 105.672 11.736 99.5157 16.6887 96.7156L16.7155 96.6888L16.7423 96.8499V96.6888C21.098 96.2295 24.1646 96.2606 26.2206 96.5813C28.2592 96.9037 29.3847 97.5564 29.7816 98.4077C30.1667 99.2655 29.8025 100.258 29.139 101.201C28.4664 102.155 27.4373 103.113 26.408 103.887L26.3812 103.914C17.6133 107.175 11.6137 116.268 12.9938 126.046C14.3817 135.823 23.1662 146.357 44.0526 152.448L50.3982 154.113C82.2311 161.688 117.623 158.214 132.275 155.295C131.692 153.908 131.221 152.016 130.883 149.87C130.532 147.628 130.312 145.073 130.16 142.51C129.857 137.373 129.873 132.09 130 128.812V128.758L130.16 128.812L130.026 128.758C133.039 121.703 138.878 112.092 146.573 106.197C150.418 103.254 154.753 101.238 159.425 100.932C164.108 100.633 169.152 102.064 174.392 105.982L178.007 108.99C185.663 116.162 188.216 124.312 188.154 131.82C188.08 140.28 184.657 147.914 181.488 152.448C198.861 153.853 222.053 153.042 231.556 152.448L234.769 151.535C241.661 149.262 244.718 146.125 245.694 143.074C246.525 140.461 245.842 137.859 244.676 135.822L243.391 133.996C238.818 130.435 227.88 121.31 220.552 113.153C216.859 109.033 216.079 103.704 216.616 98.7569C217.019 95.0468 218.158 91.525 219.347 88.8459L220.525 86.4555C220.756 85.2497 221.283 84.4698 222.051 84.1456C222.826 83.8278 223.84 83.9882 224.97 84.4948ZM157.685 124.756C155.324 124.584 152.752 125.06 150.027 126.395L147.216 128.033C143.433 130.616 141.5 133.21 140.897 135.688C140.299 138.172 141.051 140.566 142.557 142.698C145.572 146.95 151.652 150.367 156.319 152.206H156.346C164.527 154.183 169.506 153.215 172.384 151.159C174.538 149.615 175.49 147.468 175.758 145.545L175.811 143.719V143.692C174.23 138.935 170.898 132.425 166.065 128.409C163.649 126.406 160.837 124.993 157.685 124.756ZM136.372 64.6459C140.279 64.7329 142.846 68.7682 141.272 72.3545L132.222 92.8748C131.161 95.2785 128.539 96.5972 125.983 96.0173L100.976 90.35C97.7949 89.6267 95.9541 86.3004 97.0131 83.2055L102.288 67.7347C103.063 65.471 105.231 63.9493 107.616 64.0013L136.372 64.6459Z" fill="#38383A"/>
</svg>
