<svg width="284" height="284" viewBox="0 0 284 284" fill="none" xmlns="http://www.w3.org/2000/svg">
<path d="M110.641 51C121.662 56.6277 139.131 71.6518 120.834 86.7232V177.211C148.26 152.637 208.626 118.959 230.704 180.765C234.415 209.076 204.731 256.831 56.3003 221.448C53.48 219.721 49.8612 215.272 57.9374 211.264H98.1783L104.832 199.038V76.115C100.72 77.8289 96.1375 75.1951 110.641 51ZM211.402 191.188C172.186 151.132 128.028 184.499 110.853 206.198L107.05 211.9C207.414 216.906 219.706 200.368 211.402 191.188ZM182.938 93.7511C186.789 93.8432 189.304 97.8482 187.743 101.389L178.819 121.651C177.773 124.02 175.209 125.321 172.693 124.754L148.031 119.158C144.892 118.445 143.051 115.134 144.096 112.077L149.324 96.801C150.088 94.568 152.203 93.0925 154.553 93.1411L182.938 93.7511Z" fill="#38383A"/>
</svg>
