<svg width="284" height="284" viewBox="0 0 284 284" fill="none" xmlns="http://www.w3.org/2000/svg">
<path d="M170.996 98.4899C170.936 96.1871 172.601 92.9632 179.775 98.4899C186.951 104.025 206.229 129.078 211.834 143.064C215.513 153.784 217.142 182.155 194.242 209.82C171.335 237.479 104.683 249.464 74.2206 252C70.3131 249.92 65.6213 244.392 78.013 238.867C93.5328 231.951 189.405 203.3 194.242 166.936C196.429 161.598 194.859 146.843 170.996 130.565V98.4899ZM190.766 33.8467C195.894 33.9584 199.262 39.2478 197.192 43.9516L185.323 70.851C183.934 73.9983 180.524 75.7238 177.176 74.9705L144.379 67.5414C140.207 66.5952 137.762 62.2325 139.147 58.1759L146.1 37.8957C147.116 34.9291 149.925 32.9346 153.053 33.0016L190.766 33.8467Z" fill="#38383A"/>
</svg>
