<svg width="284" height="284" viewBox="0 0 284 284" fill="none" xmlns="http://www.w3.org/2000/svg">
<path d="M71.2886 59C74.9601 60.7698 79.6845 64.9141 69.2876 67.391H52.6817C51.1755 67.139 48.1738 67.7577 48.1738 72.1727C48.1755 76.6728 49.4818 135.939 50.1287 165.025C50.681 175.555 58.4479 197.926 85.0886 203.21H118.116C122.923 195.644 130.032 179.784 132.537 176.911C130.548 157.915 127.766 114.306 132.537 93.0238C129.189 88.0983 127.631 75.6062 135.665 63.8277C143.708 52.0437 148.557 77.5565 149.971 91.7823C148.466 93.5573 148.828 97.2649 144.934 98.3572V170.313C167.793 151.866 219.489 127.368 243.42 176.911C247.524 192.805 231.712 224.59 135.665 224.59C103.772 228.881 40.0088 225.869 40.0088 179.508V70.4945C39.8545 66.6608 41.6725 59.0053 50.1287 59H71.2886ZM217.499 179.669C179.363 153.495 141.669 184.838 127.592 203.785C163.486 208.665 206.263 200.047 217.499 195.739C226.467 192.294 221.236 183.592 217.499 179.669ZM201.606 108.288C204.963 108.362 207.168 111.816 205.815 114.886L198.041 132.45C197.13 134.507 194.878 135.636 192.682 135.14L171.2 130.289C168.469 129.67 166.887 126.822 167.796 124.174L172.327 110.932C172.993 108.995 174.855 107.692 176.904 107.737L201.606 108.288Z" fill="#38383A"/>
</svg>
