<svg width="284" height="284" viewBox="0 0 284 284" fill="none" xmlns="http://www.w3.org/2000/svg">
<path d="M88.3308 104.571C114.753 105.702 173.7 117.292 198.14 154.63C215.407 181.016 210.408 198.651 201.338 208.572C194.666 215.865 184.396 218.053 174.677 219.863C136.013 227.061 75.5237 235.865 75.5061 224.66C75.5061 221.712 72.9589 201.702 75.5061 198.162C97.0034 195.899 145.522 193.268 167.596 193.267C189.664 193.267 184.679 181.595 181.726 177.146C160.179 156.712 112.018 143.738 88.3308 137.073C84.7651 128.948 85.5398 111.578 88.3308 104.571ZM123.901 55.7848C128.666 55.8884 131.795 60.7911 129.872 65.1504L118.842 90.0819C117.55 93.0023 114.354 94.6045 111.239 93.8999L80.76 87.0144C76.8914 86.1305 74.6437 82.0895 75.9303 78.334L82.3916 59.5375C83.3361 56.7872 85.9457 54.9384 88.8529 55.0016L123.901 55.7848Z" fill="#38383A"/>
</svg>
